<svg xmlns="http://www.w3.org/2000/svg" role="img" aria-label="Pocket SketchSteps lesson step diagram" width="1400" height="1000" viewBox="0 0 1400 1000"><rect width="100%" height="100%" fill="#F7F0E4"/><rect width="100%" height="100%" fill="url(#ambientGlow)" opacity="0.55"/><rect width="100%" height="100%" fill="url(#focusGlow)" opacity="0.65"/><defs><filter id="shadow" x="-20%" y="-20%" width="140%" height="140%"><feDropShadow dx="0" dy="6" stdDeviation="11" flood-color="#1f2430" flood-opacity="0.10"/></filter><linearGradient id="ambientGlow" x1="0" y1="0" x2="1" y2="1">
      <stop offset="0%" stop-color="#ffffff" stop-opacity="0.42"/>
      <stop offset="52%" stop-color="#ffffff" stop-opacity="0.06"/>
      <stop offset="100%" stop-color="#f6dcc5" stop-opacity="0.18"/>
    </linearGradient>
    <radialGradient id="focusGlow" cx="38%" cy="40%" r="60%">
      <stop offset="0%" stop-color="#ffffff" stop-opacity="0.26"/>
      <stop offset="100%" stop-color="#ffffff" stop-opacity="0"/>
    </radialGradient>
    <filter id="softInk" x="-10%" y="-10%" width="120%" height="120%">
      <feDropShadow dx="0" dy="1" stdDeviation="0.35" flood-color="#1f2430" flood-opacity="0.14"/>
    </filter>
    <style><![CDATA[
      svg { shape-rendering: geometricPrecision; text-rendering: optimizeLegibility; }
      text { letter-spacing: .01em; }
      path, line, polyline, polygon, rect, ellipse, circle { vector-effect: non-scaling-stroke; }
    ]]></style></defs><circle cx="16" cy="16" r="1.7" fill="#f9f3e9"/><circle cx="76" cy="16" r="1.7" fill="#f9f3e9"/><circle cx="136" cy="16" r="1.7" fill="#f9f3e9"/><circle cx="196" cy="16" r="1.7" fill="#f9f3e9"/><circle cx="256" cy="16" r="1.7" fill="#f9f3e9"/><circle cx="316" cy="16" r="1.7" fill="#f9f3e9"/><circle cx="376" cy="16" r="1.7" fill="#f9f3e9"/><circle cx="436" cy="16" r="1.7" fill="#f9f3e9"/><circle cx="496" cy="16" r="1.7" fill="#f9f3e9"/><circle cx="556" cy="16" r="1.7" fill="#f9f3e9"/><circle cx="616" cy="16" r="1.7" fill="#f9f3e9"/><circle cx="676" cy="16" r="1.7" fill="#f9f3e9"/><circle cx="736" cy="16" r="1.7" fill="#f9f3e9"/><circle cx="796" cy="16" r="1.7" fill="#f9f3e9"/><circle cx="856" cy="16" r="1.7" fill="#f9f3e9"/><circle cx="916" cy="16" r="1.7" fill="#f9f3e9"/><circle cx="976" cy="16" r="1.7" fill="#f9f3e9"/><circle cx="1036" cy="16" r="1.7" fill="#f9f3e9"/><circle cx="1096" cy="16" r="1.7" fill="#f9f3e9"/><circle cx="1156" cy="16" r="1.7" fill="#f9f3e9"/><circle cx="1216" cy="16" r="1.7" fill="#f9f3e9"/><circle cx="1276" cy="16" r="1.7" fill="#f9f3e9"/><circle cx="1336" cy="16" r="1.7" fill="#f9f3e9"/><circle cx="1396" cy="16" r="1.7" fill="#f9f3e9"/><circle cx="16" cy="76" r="1.7" fill="#f9f3e9"/><circle cx="76" cy="76" r="1.7" fill="#f9f3e9"/><circle cx="136" cy="76" r="1.7" fill="#f9f3e9"/><circle cx="196" cy="76" r="1.7" fill="#f9f3e9"/><circle cx="256" cy="76" r="1.7" fill="#f9f3e9"/><circle cx="316" cy="76" r="1.7" fill="#f9f3e9"/><circle cx="376" cy="76" r="1.7" fill="#f9f3e9"/><circle cx="436" cy="76" r="1.7" fill="#f9f3e9"/><circle cx="496" cy="76" r="1.7" fill="#f9f3e9"/><circle cx="556" cy="76" r="1.7" fill="#f9f3e9"/><circle cx="616" cy="76" r="1.7" fill="#f9f3e9"/><circle cx="676" cy="76" r="1.7" fill="#f9f3e9"/><circle cx="736" cy="76" r="1.7" fill="#f9f3e9"/><circle cx="796" cy="76" r="1.7" fill="#f9f3e9"/><circle cx="856" cy="76" r="1.7" fill="#f9f3e9"/><circle cx="916" cy="76" r="1.7" fill="#f9f3e9"/><circle cx="976" cy="76" r="1.7" fill="#f9f3e9"/><circle cx="1036" cy="76" r="1.7" fill="#f9f3e9"/><circle cx="1096" cy="76" r="1.7" fill="#f9f3e9"/><circle cx="1156" cy="76" r="1.7" fill="#f9f3e9"/><circle cx="1216" cy="76" r="1.7" fill="#f9f3e9"/><circle cx="1276" cy="76" r="1.7" fill="#f9f3e9"/><circle cx="1336" cy="76" r="1.7" fill="#f9f3e9"/><circle cx="1396" cy="76" r="1.7" fill="#f9f3e9"/><circle cx="16" cy="136" r="1.7" fill="#f9f3e9"/><circle cx="76" cy="136" r="1.7" fill="#f9f3e9"/><circle cx="136" cy="136" r="1.7" fill="#f9f3e9"/><circle cx="196" cy="136" r="1.7" fill="#f9f3e9"/><circle cx="256" cy="136" r="1.7" fill="#f9f3e9"/><circle cx="316" cy="136" r="1.7" fill="#f9f3e9"/><circle cx="376" cy="136" r="1.7" fill="#f9f3e9"/><circle cx="436" cy="136" r="1.7" fill="#f9f3e9"/><circle cx="496" cy="136" r="1.7" fill="#f9f3e9"/><circle cx="556" cy="136" r="1.7" fill="#f9f3e9"/><circle cx="616" cy="136" r="1.7" fill="#f9f3e9"/><circle cx="676" cy="136" r="1.7" fill="#f9f3e9"/><circle cx="736" cy="136" r="1.7" fill="#f9f3e9"/><circle cx="796" cy="136" r="1.7" fill="#f9f3e9"/><circle cx="856" cy="136" r="1.7" fill="#f9f3e9"/><circle cx="916" cy="136" r="1.7" fill="#f9f3e9"/><circle cx="976" cy="136" r="1.7" fill="#f9f3e9"/><circle cx="1036" cy="136" r="1.7" fill="#f9f3e9"/><circle cx="1096" cy="136" r="1.7" fill="#f9f3e9"/><circle cx="1156" cy="136" r="1.7" fill="#f9f3e9"/><circle cx="1216" cy="136" r="1.7" fill="#f9f3e9"/><circle cx="1276" cy="136" r="1.7" fill="#f9f3e9"/><circle cx="1336" cy="136" r="1.7" fill="#f9f3e9"/><circle cx="1396" cy="136" r="1.7" fill="#f9f3e9"/><circle cx="16" cy="196" r="1.7" fill="#f9f3e9"/><circle cx="76" cy="196" r="1.7" fill="#f9f3e9"/><circle cx="136" cy="196" r="1.7" fill="#f9f3e9"/><circle cx="196" cy="196" r="1.7" fill="#f9f3e9"/><circle cx="256" cy="196" r="1.7" fill="#f9f3e9"/><circle cx="316" cy="196" r="1.7" fill="#f9f3e9"/><circle cx="376" cy="196" r="1.7" fill="#f9f3e9"/><circle cx="436" cy="196" r="1.7" fill="#f9f3e9"/><circle cx="496" cy="196" r="1.7" fill="#f9f3e9"/><circle cx="556" cy="196" r="1.7" fill="#f9f3e9"/><circle cx="616" cy="196" r="1.7" fill="#f9f3e9"/><circle cx="676" cy="196" r="1.7" fill="#f9f3e9"/><circle cx="736" cy="196" r="1.7" fill="#f9f3e9"/><circle cx="796" cy="196" r="1.7" fill="#f9f3e9"/><circle cx="856" cy="196" r="1.7" fill="#f9f3e9"/><circle cx="916" cy="196" r="1.7" fill="#f9f3e9"/><circle cx="976" cy="196" r="1.7" fill="#f9f3e9"/><circle cx="1036" cy="196" r="1.7" fill="#f9f3e9"/><circle cx="1096" cy="196" r="1.7" fill="#f9f3e9"/><circle cx="1156" cy="196" r="1.7" fill="#f9f3e9"/><circle cx="1216" cy="196" r="1.7" fill="#f9f3e9"/><circle cx="1276" cy="196" r="1.7" fill="#f9f3e9"/><circle cx="1336" cy="196" r="1.7" fill="#f9f3e9"/><circle cx="1396" cy="196" r="1.7" fill="#f9f3e9"/><circle cx="16" cy="256" r="1.7" fill="#f9f3e9"/><circle cx="76" cy="256" r="1.7" fill="#f9f3e9"/><circle cx="136" cy="256" r="1.7" fill="#f9f3e9"/><circle cx="196" cy="256" r="1.7" fill="#f9f3e9"/><circle cx="256" cy="256" r="1.7" fill="#f9f3e9"/><circle cx="316" cy="256" r="1.7" fill="#f9f3e9"/><circle cx="376" cy="256" r="1.7" fill="#f9f3e9"/><circle cx="436" cy="256" r="1.7" fill="#f9f3e9"/><circle cx="496" cy="256" r="1.7" fill="#f9f3e9"/><circle cx="556" cy="256" r="1.7" fill="#f9f3e9"/><circle cx="616" cy="256" r="1.7" fill="#f9f3e9"/><circle cx="676" cy="256" r="1.7" fill="#f9f3e9"/><circle cx="736" cy="256" r="1.7" fill="#f9f3e9"/><circle cx="796" cy="256" r="1.7" fill="#f9f3e9"/><circle cx="856" cy="256" r="1.7" fill="#f9f3e9"/><circle cx="916" cy="256" r="1.7" fill="#f9f3e9"/><circle cx="976" cy="256" r="1.7" fill="#f9f3e9"/><circle cx="1036" cy="256" r="1.7" fill="#f9f3e9"/><circle cx="1096" cy="256" r="1.7" fill="#f9f3e9"/><circle cx="1156" cy="256" r="1.7" fill="#f9f3e9"/><circle cx="1216" cy="256" r="1.7" fill="#f9f3e9"/><circle cx="1276" cy="256" r="1.7" fill="#f9f3e9"/><circle cx="1336" cy="256" r="1.7" fill="#f9f3e9"/><circle cx="1396" cy="256" r="1.7" fill="#f9f3e9"/><circle cx="16" cy="316" r="1.7" fill="#f9f3e9"/><circle cx="76" cy="316" r="1.7" fill="#f9f3e9"/><circle cx="136" cy="316" r="1.7" fill="#f9f3e9"/><circle cx="196" cy="316" r="1.7" fill="#f9f3e9"/><circle cx="256" cy="316" r="1.7" fill="#f9f3e9"/><circle cx="316" cy="316" r="1.7" fill="#f9f3e9"/><circle cx="376" cy="316" r="1.7" fill="#f9f3e9"/><circle cx="436" cy="316" r="1.7" fill="#f9f3e9"/><circle cx="496" cy="316" r="1.7" fill="#f9f3e9"/><circle cx="556" cy="316" r="1.7" fill="#f9f3e9"/><circle cx="616" cy="316" r="1.7" fill="#f9f3e9"/><circle cx="676" cy="316" r="1.7" fill="#f9f3e9"/><circle cx="736" cy="316" r="1.7" fill="#f9f3e9"/><circle cx="796" cy="316" r="1.7" fill="#f9f3e9"/><circle cx="856" cy="316" r="1.7" fill="#f9f3e9"/><circle cx="916" cy="316" r="1.7" fill="#f9f3e9"/><circle cx="976" cy="316" r="1.7" fill="#f9f3e9"/><circle cx="1036" cy="316" r="1.7" fill="#f9f3e9"/><circle cx="1096" cy="316" r="1.7" fill="#f9f3e9"/><circle cx="1156" cy="316" r="1.7" fill="#f9f3e9"/><circle cx="1216" cy="316" r="1.7" fill="#f9f3e9"/><circle cx="1276" cy="316" r="1.7" fill="#f9f3e9"/><circle cx="1336" cy="316" r="1.7" fill="#f9f3e9"/><circle cx="1396" cy="316" r="1.7" fill="#f9f3e9"/><circle cx="16" cy="376" r="1.7" fill="#f9f3e9"/><circle cx="76" cy="376" r="1.7" fill="#f9f3e9"/><circle cx="136" cy="376" r="1.7" fill="#f9f3e9"/><circle cx="196" cy="376" r="1.7" fill="#f9f3e9"/><circle cx="256" cy="376" r="1.7" fill="#f9f3e9"/><circle cx="316" cy="376" r="1.7" fill="#f9f3e9"/><circle cx="376" cy="376" r="1.7" fill="#f9f3e9"/><circle cx="436" cy="376" r="1.7" fill="#f9f3e9"/><circle cx="496" cy="376" r="1.7" fill="#f9f3e9"/><circle cx="556" cy="376" r="1.7" fill="#f9f3e9"/><circle cx="616" cy="376" r="1.7" fill="#f9f3e9"/><circle cx="676" cy="376" r="1.7" fill="#f9f3e9"/><circle cx="736" cy="376" r="1.7" fill="#f9f3e9"/><circle cx="796" cy="376" r="1.7" fill="#f9f3e9"/><circle cx="856" cy="376" r="1.7" fill="#f9f3e9"/><circle cx="916" cy="376" r="1.7" fill="#f9f3e9"/><circle cx="976" cy="376" r="1.7" fill="#f9f3e9"/><circle cx="1036" cy="376" r="1.7" fill="#f9f3e9"/><circle cx="1096" cy="376" r="1.7" fill="#f9f3e9"/><circle cx="1156" cy="376" r="1.7" fill="#f9f3e9"/><circle cx="1216" cy="376" r="1.7" fill="#f9f3e9"/><circle cx="1276" cy="376" r="1.7" fill="#f9f3e9"/><circle cx="1336" cy="376" r="1.7" fill="#f9f3e9"/><circle cx="1396" cy="376" r="1.7" fill="#f9f3e9"/><circle cx="16" cy="436" r="1.7" fill="#f9f3e9"/><circle cx="76" cy="436" r="1.7" fill="#f9f3e9"/><circle cx="136" cy="436" r="1.7" fill="#f9f3e9"/><circle cx="196" cy="436" r="1.7" fill="#f9f3e9"/><circle cx="256" cy="436" r="1.7" fill="#f9f3e9"/><circle cx="316" cy="436" r="1.7" fill="#f9f3e9"/><circle cx="376" cy="436" r="1.7" fill="#f9f3e9"/><circle cx="436" cy="436" r="1.7" fill="#f9f3e9"/><circle cx="496" cy="436" r="1.7" fill="#f9f3e9"/><circle cx="556" cy="436" r="1.7" fill="#f9f3e9"/><circle cx="616" cy="436" r="1.7" fill="#f9f3e9"/><circle cx="676" cy="436" r="1.7" fill="#f9f3e9"/><circle cx="736" cy="436" r="1.7" fill="#f9f3e9"/><circle cx="796" cy="436" r="1.7" fill="#f9f3e9"/><circle cx="856" cy="436" r="1.7" fill="#f9f3e9"/><circle cx="916" cy="436" r="1.7" fill="#f9f3e9"/><circle cx="976" cy="436" r="1.7" fill="#f9f3e9"/><circle cx="1036" cy="436" r="1.7" fill="#f9f3e9"/><circle cx="1096" cy="436" r="1.7" fill="#f9f3e9"/><circle cx="1156" cy="436" r="1.7" fill="#f9f3e9"/><circle cx="1216" cy="436" r="1.7" fill="#f9f3e9"/><circle cx="1276" cy="436" r="1.7" fill="#f9f3e9"/><circle cx="1336" cy="436" r="1.7" fill="#f9f3e9"/><circle cx="1396" cy="436" r="1.7" fill="#f9f3e9"/><circle cx="16" cy="496" r="1.7" fill="#f9f3e9"/><circle cx="76" cy="496" r="1.7" fill="#f9f3e9"/><circle cx="136" cy="496" r="1.7" fill="#f9f3e9"/><circle cx="196" cy="496" r="1.7" fill="#f9f3e9"/><circle cx="256" cy="496" r="1.7" fill="#f9f3e9"/><circle cx="316" cy="496" r="1.7" fill="#f9f3e9"/><circle cx="376" cy="496" r="1.7" fill="#f9f3e9"/><circle cx="436" cy="496" r="1.7" fill="#f9f3e9"/><circle cx="496" cy="496" r="1.7" fill="#f9f3e9"/><circle cx="556" cy="496" r="1.7" fill="#f9f3e9"/><circle cx="616" cy="496" r="1.7" fill="#f9f3e9"/><circle cx="676" cy="496" r="1.7" fill="#f9f3e9"/><circle cx="736" cy="496" r="1.7" fill="#f9f3e9"/><circle cx="796" cy="496" r="1.7" fill="#f9f3e9"/><circle cx="856" cy="496" r="1.7" fill="#f9f3e9"/><circle cx="916" cy="496" r="1.7" fill="#f9f3e9"/><circle cx="976" cy="496" r="1.7" fill="#f9f3e9"/><circle cx="1036" cy="496" r="1.7" fill="#f9f3e9"/><circle cx="1096" cy="496" r="1.7" fill="#f9f3e9"/><circle cx="1156" cy="496" r="1.7" fill="#f9f3e9"/><circle cx="1216" cy="496" r="1.7" fill="#f9f3e9"/><circle cx="1276" cy="496" r="1.7" fill="#f9f3e9"/><circle cx="1336" cy="496" r="1.7" fill="#f9f3e9"/><circle cx="1396" cy="496" r="1.7" fill="#f9f3e9"/><circle cx="16" cy="556" r="1.7" fill="#f9f3e9"/><circle cx="76" cy="556" r="1.7" fill="#f9f3e9"/><circle cx="136" cy="556" r="1.7" fill="#f9f3e9"/><circle cx="196" cy="556" r="1.7" fill="#f9f3e9"/><circle cx="256" cy="556" r="1.7" fill="#f9f3e9"/><circle cx="316" cy="556" r="1.7" fill="#f9f3e9"/><circle cx="376" cy="556" r="1.7" fill="#f9f3e9"/><circle cx="436" cy="556" r="1.7" fill="#f9f3e9"/><circle cx="496" cy="556" r="1.7" fill="#f9f3e9"/><circle cx="556" cy="556" r="1.7" fill="#f9f3e9"/><circle cx="616" cy="556" r="1.7" fill="#f9f3e9"/><circle cx="676" cy="556" r="1.7" fill="#f9f3e9"/><circle cx="736" cy="556" r="1.7" fill="#f9f3e9"/><circle cx="796" cy="556" r="1.7" fill="#f9f3e9"/><circle cx="856" cy="556" r="1.7" fill="#f9f3e9"/><circle cx="916" cy="556" r="1.7" fill="#f9f3e9"/><circle cx="976" cy="556" r="1.7" fill="#f9f3e9"/><circle cx="1036" cy="556" r="1.7" fill="#f9f3e9"/><circle cx="1096" cy="556" r="1.7" fill="#f9f3e9"/><circle cx="1156" cy="556" r="1.7" fill="#f9f3e9"/><circle cx="1216" cy="556" r="1.7" fill="#f9f3e9"/><circle cx="1276" cy="556" r="1.7" fill="#f9f3e9"/><circle cx="1336" cy="556" r="1.7" fill="#f9f3e9"/><circle cx="1396" cy="556" r="1.7" fill="#f9f3e9"/><circle cx="16" cy="616" r="1.7" fill="#f9f3e9"/><circle cx="76" cy="616" r="1.7" fill="#f9f3e9"/><circle cx="136" cy="616" r="1.7" fill="#f9f3e9"/><circle cx="196" cy="616" r="1.7" fill="#f9f3e9"/><circle cx="256" cy="616" r="1.7" fill="#f9f3e9"/><circle cx="316" cy="616" r="1.7" fill="#f9f3e9"/><circle cx="376" cy="616" r="1.7" fill="#f9f3e9"/><circle cx="436" cy="616" r="1.7" fill="#f9f3e9"/><circle cx="496" cy="616" r="1.7" fill="#f9f3e9"/><circle cx="556" cy="616" r="1.7" fill="#f9f3e9"/><circle cx="616" cy="616" r="1.7" fill="#f9f3e9"/><circle cx="676" cy="616" r="1.7" fill="#f9f3e9"/><circle cx="736" cy="616" r="1.7" fill="#f9f3e9"/><circle cx="796" cy="616" r="1.7" fill="#f9f3e9"/><circle cx="856" cy="616" r="1.7" fill="#f9f3e9"/><circle cx="916" cy="616" r="1.7" fill="#f9f3e9"/><circle cx="976" cy="616" r="1.7" fill="#f9f3e9"/><circle cx="1036" cy="616" r="1.7" fill="#f9f3e9"/><circle cx="1096" cy="616" r="1.7" fill="#f9f3e9"/><circle cx="1156" cy="616" r="1.7" fill="#f9f3e9"/><circle cx="1216" cy="616" r="1.7" fill="#f9f3e9"/><circle cx="1276" cy="616" r="1.7" fill="#f9f3e9"/><circle cx="1336" cy="616" r="1.7" fill="#f9f3e9"/><circle cx="1396" cy="616" r="1.7" fill="#f9f3e9"/><circle cx="16" cy="676" r="1.7" fill="#f9f3e9"/><circle cx="76" cy="676" r="1.7" fill="#f9f3e9"/><circle cx="136" cy="676" r="1.7" fill="#f9f3e9"/><circle cx="196" cy="676" r="1.7" fill="#f9f3e9"/><circle cx="256" cy="676" r="1.7" fill="#f9f3e9"/><circle cx="316" cy="676" r="1.7" fill="#f9f3e9"/><circle cx="376" cy="676" r="1.7" fill="#f9f3e9"/><circle cx="436" cy="676" r="1.7" fill="#f9f3e9"/><circle cx="496" cy="676" r="1.7" fill="#f9f3e9"/><circle cx="556" cy="676" r="1.7" fill="#f9f3e9"/><circle cx="616" cy="676" r="1.7" fill="#f9f3e9"/><circle cx="676" cy="676" r="1.7" fill="#f9f3e9"/><circle cx="736" cy="676" r="1.7" fill="#f9f3e9"/><circle cx="796" cy="676" r="1.7" fill="#f9f3e9"/><circle cx="856" cy="676" r="1.7" fill="#f9f3e9"/><circle cx="916" cy="676" r="1.7" fill="#f9f3e9"/><circle cx="976" cy="676" r="1.7" fill="#f9f3e9"/><circle cx="1036" cy="676" r="1.7" fill="#f9f3e9"/><circle cx="1096" cy="676" r="1.7" fill="#f9f3e9"/><circle cx="1156" cy="676" r="1.7" fill="#f9f3e9"/><circle cx="1216" cy="676" r="1.7" fill="#f9f3e9"/><circle cx="1276" cy="676" r="1.7" fill="#f9f3e9"/><circle cx="1336" cy="676" r="1.7" fill="#f9f3e9"/><circle cx="1396" cy="676" r="1.7" fill="#f9f3e9"/><circle cx="16" cy="736" r="1.7" fill="#f9f3e9"/><circle cx="76" cy="736" r="1.7" fill="#f9f3e9"/><circle cx="136" cy="736" r="1.7" fill="#f9f3e9"/><circle cx="196" cy="736" r="1.7" fill="#f9f3e9"/><circle cx="256" cy="736" r="1.7" fill="#f9f3e9"/><circle cx="316" cy="736" r="1.7" fill="#f9f3e9"/><circle cx="376" cy="736" r="1.7" fill="#f9f3e9"/><circle cx="436" cy="736" r="1.7" fill="#f9f3e9"/><circle cx="496" cy="736" r="1.7" fill="#f9f3e9"/><circle cx="556" cy="736" r="1.7" fill="#f9f3e9"/><circle cx="616" cy="736" r="1.7" fill="#f9f3e9"/><circle cx="676" cy="736" r="1.7" fill="#f9f3e9"/><circle cx="736" cy="736" r="1.7" fill="#f9f3e9"/><circle cx="796" cy="736" r="1.7" fill="#f9f3e9"/><circle cx="856" cy="736" r="1.7" fill="#f9f3e9"/><circle cx="916" cy="736" r="1.7" fill="#f9f3e9"/><circle cx="976" cy="736" r="1.7" fill="#f9f3e9"/><circle cx="1036" cy="736" r="1.7" fill="#f9f3e9"/><circle cx="1096" cy="736" r="1.7" fill="#f9f3e9"/><circle cx="1156" cy="736" r="1.7" fill="#f9f3e9"/><circle cx="1216" cy="736" r="1.7" fill="#f9f3e9"/><circle cx="1276" cy="736" r="1.7" fill="#f9f3e9"/><circle cx="1336" cy="736" r="1.7" fill="#f9f3e9"/><circle cx="1396" cy="736" r="1.7" fill="#f9f3e9"/><circle cx="16" cy="796" r="1.7" fill="#f9f3e9"/><circle cx="76" cy="796" r="1.7" fill="#f9f3e9"/><circle cx="136" cy="796" r="1.7" fill="#f9f3e9"/><circle cx="196" cy="796" r="1.7" fill="#f9f3e9"/><circle cx="256" cy="796" r="1.7" fill="#f9f3e9"/><circle cx="316" cy="796" r="1.7" fill="#f9f3e9"/><circle cx="376" cy="796" r="1.7" fill="#f9f3e9"/><circle cx="436" cy="796" r="1.7" fill="#f9f3e9"/><circle cx="496" cy="796" r="1.7" fill="#f9f3e9"/><circle cx="556" cy="796" r="1.7" fill="#f9f3e9"/><circle cx="616" cy="796" r="1.7" fill="#f9f3e9"/><circle cx="676" cy="796" r="1.7" fill="#f9f3e9"/><circle cx="736" cy="796" r="1.7" fill="#f9f3e9"/><circle cx="796" cy="796" r="1.7" fill="#f9f3e9"/><circle cx="856" cy="796" r="1.7" fill="#f9f3e9"/><circle cx="916" cy="796" r="1.7" fill="#f9f3e9"/><circle cx="976" cy="796" r="1.7" fill="#f9f3e9"/><circle cx="1036" cy="796" r="1.7" fill="#f9f3e9"/><circle cx="1096" cy="796" r="1.7" fill="#f9f3e9"/><circle cx="1156" cy="796" r="1.7" fill="#f9f3e9"/><circle cx="1216" cy="796" r="1.7" fill="#f9f3e9"/><circle cx="1276" cy="796" r="1.7" fill="#f9f3e9"/><circle cx="1336" cy="796" r="1.7" fill="#f9f3e9"/><circle cx="1396" cy="796" r="1.7" fill="#f9f3e9"/><circle cx="16" cy="856" r="1.7" fill="#f9f3e9"/><circle cx="76" cy="856" r="1.7" fill="#f9f3e9"/><circle cx="136" cy="856" r="1.7" fill="#f9f3e9"/><circle cx="196" cy="856" r="1.7" fill="#f9f3e9"/><circle cx="256" cy="856" r="1.7" fill="#f9f3e9"/><circle cx="316" cy="856" r="1.7" fill="#f9f3e9"/><circle cx="376" cy="856" r="1.7" fill="#f9f3e9"/><circle cx="436" cy="856" r="1.7" fill="#f9f3e9"/><circle cx="496" cy="856" r="1.7" fill="#f9f3e9"/><circle cx="556" cy="856" r="1.7" fill="#f9f3e9"/><circle cx="616" cy="856" r="1.7" fill="#f9f3e9"/><circle cx="676" cy="856" r="1.7" fill="#f9f3e9"/><circle cx="736" cy="856" r="1.7" fill="#f9f3e9"/><circle cx="796" cy="856" r="1.7" fill="#f9f3e9"/><circle cx="856" cy="856" r="1.7" fill="#f9f3e9"/><circle cx="916" cy="856" r="1.7" fill="#f9f3e9"/><circle cx="976" cy="856" r="1.7" fill="#f9f3e9"/><circle cx="1036" cy="856" r="1.7" fill="#f9f3e9"/><circle cx="1096" cy="856" r="1.7" fill="#f9f3e9"/><circle cx="1156" cy="856" r="1.7" fill="#f9f3e9"/><circle cx="1216" cy="856" r="1.7" fill="#f9f3e9"/><circle cx="1276" cy="856" r="1.7" fill="#f9f3e9"/><circle cx="1336" cy="856" r="1.7" fill="#f9f3e9"/><circle cx="1396" cy="856" r="1.7" fill="#f9f3e9"/><circle cx="16" cy="916" r="1.7" fill="#f9f3e9"/><circle cx="76" cy="916" r="1.7" fill="#f9f3e9"/><circle cx="136" cy="916" r="1.7" fill="#f9f3e9"/><circle cx="196" cy="916" r="1.7" fill="#f9f3e9"/><circle cx="256" cy="916" r="1.7" fill="#f9f3e9"/><circle cx="316" cy="916" r="1.7" fill="#f9f3e9"/><circle cx="376" cy="916" r="1.7" fill="#f9f3e9"/><circle cx="436" cy="916" r="1.7" fill="#f9f3e9"/><circle cx="496" cy="916" r="1.7" fill="#f9f3e9"/><circle cx="556" cy="916" r="1.7" fill="#f9f3e9"/><circle cx="616" cy="916" r="1.7" fill="#f9f3e9"/><circle cx="676" cy="916" r="1.7" fill="#f9f3e9"/><circle cx="736" cy="916" r="1.7" fill="#f9f3e9"/><circle cx="796" cy="916" r="1.7" fill="#f9f3e9"/><circle cx="856" cy="916" r="1.7" fill="#f9f3e9"/><circle cx="916" cy="916" r="1.7" fill="#f9f3e9"/><circle cx="976" cy="916" r="1.7" fill="#f9f3e9"/><circle cx="1036" cy="916" r="1.7" fill="#f9f3e9"/><circle cx="1096" cy="916" r="1.7" fill="#f9f3e9"/><circle cx="1156" cy="916" r="1.7" fill="#f9f3e9"/><circle cx="1216" cy="916" r="1.7" fill="#f9f3e9"/><circle cx="1276" cy="916" r="1.7" fill="#f9f3e9"/><circle cx="1336" cy="916" r="1.7" fill="#f9f3e9"/><circle cx="1396" cy="916" r="1.7" fill="#f9f3e9"/><circle cx="16" cy="976" r="1.7" fill="#f9f3e9"/><circle cx="76" cy="976" r="1.7" fill="#f9f3e9"/><circle cx="136" cy="976" r="1.7" fill="#f9f3e9"/><circle cx="196" cy="976" r="1.7" fill="#f9f3e9"/><circle cx="256" cy="976" r="1.7" fill="#f9f3e9"/><circle cx="316" cy="976" r="1.7" fill="#f9f3e9"/><circle cx="376" cy="976" r="1.7" fill="#f9f3e9"/><circle cx="436" cy="976" r="1.7" fill="#f9f3e9"/><circle cx="496" cy="976" r="1.7" fill="#f9f3e9"/><circle cx="556" cy="976" r="1.7" fill="#f9f3e9"/><circle cx="616" cy="976" r="1.7" fill="#f9f3e9"/><circle cx="676" cy="976" r="1.7" fill="#f9f3e9"/><circle cx="736" cy="976" r="1.7" fill="#f9f3e9"/><circle cx="796" cy="976" r="1.7" fill="#f9f3e9"/><circle cx="856" cy="976" r="1.7" fill="#f9f3e9"/><circle cx="916" cy="976" r="1.7" fill="#f9f3e9"/><circle cx="976" cy="976" r="1.7" fill="#f9f3e9"/><circle cx="1036" cy="976" r="1.7" fill="#f9f3e9"/><circle cx="1096" cy="976" r="1.7" fill="#f9f3e9"/><circle cx="1156" cy="976" r="1.7" fill="#f9f3e9"/><circle cx="1216" cy="976" r="1.7" fill="#f9f3e9"/><circle cx="1276" cy="976" r="1.7" fill="#f9f3e9"/><circle cx="1336" cy="976" r="1.7" fill="#f9f3e9"/><circle cx="1396" cy="976" r="1.7" fill="#f9f3e9"/><text x="54" y="52" font-family="Arial, Helvetica, sans-serif" font-size="22" font-weight="700" fill="#4f4d49" text-anchor="start" >Pocket SketchSteps</text><text x="54" y="94" font-family="Arial, Helvetica, sans-serif" font-size="42" font-weight="700" fill="#252a33" text-anchor="start" >Cute-Creepy Expressions</text><text x="54" y="132" font-family="Arial, Helvetica, sans-serif" font-size="26" font-weight="400" fill="#63605b" text-anchor="start" >Mina Spooksmile</text><rect x="1070" y="44" width="280" height="44" rx="16" fill="#EDE8FF" stroke="none" stroke-width="1" /><text x="1210.0" y="73" font-family="Arial, Helvetica, sans-serif" font-size="20" font-weight="700" fill="#1e1e1e" text-anchor="middle" >STEP 4 • Clean Lineart</text><rect x="70" y="182" width="910" height="740" rx="28" fill="#fffdf8" stroke="#e0dcef" stroke-width="3" filter="url(#shadow)"/><line x1="110" y1="214" x2="110" y2="888" stroke="#ebe9f5" stroke-width="1" opacity="0.62" stroke-linecap="round" stroke-linejoin="round" /><line x1="150" y1="214" x2="150" y2="888" stroke="#ebe9f5" stroke-width="1" opacity="0.62" stroke-linecap="round" stroke-linejoin="round" /><line x1="190" y1="214" x2="190" y2="888" stroke="#ebe9f5" stroke-width="1" opacity="0.62" stroke-linecap="round" stroke-linejoin="round" /><line x1="230" y1="214" x2="230" y2="888" stroke="#ebe9f5" stroke-width="1" opacity="0.62" stroke-linecap="round" stroke-linejoin="round" /><line x1="270" y1="214" x2="270" y2="888" stroke="#ebe9f5" stroke-width="1" opacity="0.62" stroke-linecap="round" stroke-linejoin="round" /><line x1="310" y1="214" x2="310" y2="888" stroke="#ebe9f5" stroke-width="1" opacity="0.62" stroke-linecap="round" stroke-linejoin="round" /><line x1="350" y1="214" x2="350" y2="888" stroke="#ebe9f5" stroke-width="1" opacity="0.62" stroke-linecap="round" stroke-linejoin="round" /><line x1="390" y1="214" x2="390" y2="888" stroke="#ebe9f5" stroke-width="1" opacity="0.62" stroke-linecap="round" stroke-linejoin="round" /><line x1="430" y1="214" x2="430" y2="888" stroke="#ebe9f5" stroke-width="1" opacity="0.62" stroke-linecap="round" stroke-linejoin="round" /><line x1="470" y1="214" x2="470" y2="888" stroke="#ebe9f5" stroke-width="1" opacity="0.62" stroke-linecap="round" stroke-linejoin="round" /><line x1="510" y1="214" x2="510" y2="888" stroke="#ebe9f5" stroke-width="1" opacity="0.62" stroke-linecap="round" stroke-linejoin="round" /><line x1="550" y1="214" x2="550" y2="888" stroke="#ebe9f5" stroke-width="1" opacity="0.62" stroke-linecap="round" stroke-linejoin="round" /><line x1="590" y1="214" x2="590" y2="888" stroke="#ebe9f5" stroke-width="1" opacity="0.62" stroke-linecap="round" stroke-linejoin="round" /><line x1="630" y1="214" x2="630" y2="888" stroke="#ebe9f5" stroke-width="1" opacity="0.62" stroke-linecap="round" stroke-linejoin="round" /><line x1="670" y1="214" x2="670" y2="888" stroke="#ebe9f5" stroke-width="1" opacity="0.62" stroke-linecap="round" stroke-linejoin="round" /><line x1="710" y1="214" x2="710" y2="888" stroke="#ebe9f5" stroke-width="1" opacity="0.62" stroke-linecap="round" stroke-linejoin="round" /><line x1="750" y1="214" x2="750" y2="888" stroke="#ebe9f5" stroke-width="1" opacity="0.62" stroke-linecap="round" stroke-linejoin="round" /><line x1="790" y1="214" x2="790" y2="888" stroke="#ebe9f5" stroke-width="1" opacity="0.62" stroke-linecap="round" stroke-linejoin="round" /><line x1="830" y1="214" x2="830" y2="888" stroke="#ebe9f5" stroke-width="1" opacity="0.62" stroke-linecap="round" stroke-linejoin="round" /><line x1="870" y1="214" x2="870" y2="888" stroke="#ebe9f5" stroke-width="1" opacity="0.62" stroke-linecap="round" stroke-linejoin="round" /><line x1="910" y1="214" x2="910" y2="888" stroke="#ebe9f5" stroke-width="1" opacity="0.62" stroke-linecap="round" stroke-linejoin="round" /><line x1="102" y1="214" x2="948" y2="214" stroke="#ebe9f5" stroke-width="1" opacity="0.62" stroke-linecap="round" stroke-linejoin="round" /><line x1="102" y1="254" x2="948" y2="254" stroke="#ebe9f5" stroke-width="1" opacity="0.62" stroke-linecap="round" stroke-linejoin="round" /><line x1="102" y1="294" x2="948" y2="294" stroke="#ebe9f5" stroke-width="1" opacity="0.62" stroke-linecap="round" stroke-linejoin="round" /><line x1="102" y1="334" x2="948" y2="334" stroke="#ebe9f5" stroke-width="1" opacity="0.62" stroke-linecap="round" stroke-linejoin="round" /><line x1="102" y1="374" x2="948" y2="374" stroke="#ebe9f5" stroke-width="1" opacity="0.62" stroke-linecap="round" stroke-linejoin="round" /><line x1="102" y1="414" x2="948" y2="414" stroke="#ebe9f5" stroke-width="1" opacity="0.62" stroke-linecap="round" stroke-linejoin="round" /><line x1="102" y1="454" x2="948" y2="454" stroke="#ebe9f5" stroke-width="1" opacity="0.62" stroke-linecap="round" stroke-linejoin="round" /><line x1="102" y1="494" x2="948" y2="494" stroke="#ebe9f5" stroke-width="1" opacity="0.62" stroke-linecap="round" stroke-linejoin="round" /><line x1="102" y1="534" x2="948" y2="534" stroke="#ebe9f5" stroke-width="1" opacity="0.62" stroke-linecap="round" stroke-linejoin="round" /><line x1="102" y1="574" x2="948" y2="574" stroke="#ebe9f5" stroke-width="1" opacity="0.62" stroke-linecap="round" stroke-linejoin="round" /><line x1="102" y1="614" x2="948" y2="614" stroke="#ebe9f5" stroke-width="1" opacity="0.62" stroke-linecap="round" stroke-linejoin="round" /><line x1="102" y1="654" x2="948" y2="654" stroke="#ebe9f5" stroke-width="1" opacity="0.62" stroke-linecap="round" stroke-linejoin="round" /><line x1="102" y1="694" x2="948" y2="694" stroke="#ebe9f5" stroke-width="1" opacity="0.62" stroke-linecap="round" stroke-linejoin="round" /><line x1="102" y1="734" x2="948" y2="734" stroke="#ebe9f5" stroke-width="1" opacity="0.62" stroke-linecap="round" stroke-linejoin="round" /><line x1="102" y1="774" x2="948" y2="774" stroke="#ebe9f5" stroke-width="1" opacity="0.62" stroke-linecap="round" stroke-linejoin="round" /><line x1="102" y1="814" x2="948" y2="814" stroke="#ebe9f5" stroke-width="1" opacity="0.62" stroke-linecap="round" stroke-linejoin="round" /><line x1="102" y1="854" x2="948" y2="854" stroke="#ebe9f5" stroke-width="1" opacity="0.62" stroke-linecap="round" stroke-linejoin="round" /><rect x="1010" y="182" width="320" height="740" rx="28" fill="#ffffff" stroke="#e6e2f2" stroke-width="3" filter="url(#shadow)"/><text x="1042" y="226" font-family="Arial, Helvetica, sans-serif" font-size="20" font-weight="700" fill="#5e5b57" text-anchor="start" >Layer</text><rect x="1042" y="244" width="240" height="42" rx="14" fill="#f8f6ff" stroke="none" stroke-width="1" /><text x="1060" y="272" font-family="Arial, Helvetica, sans-serif" font-size="20" font-weight="700" fill="#22303c" text-anchor="start" >Lineart</text><text x="1042" y="330" font-family="Arial, Helvetica, sans-serif" font-size="20" font-weight="700" fill="#5e5b57" text-anchor="start" >What to draw</text><text x="1042" y="364" font-family="Arial, Helvetica, sans-serif" font-size="22" font-weight="400" fill="#262626" text-anchor="start" >On the Lineart</text><text x="1042" y="392" font-family="Arial, Helvetica, sans-serif" font-size="22" font-weight="400" fill="#262626" text-anchor="start" >layer, trace the</text><text x="1042" y="420" font-family="Arial, Helvetica, sans-serif" font-size="22" font-weight="400" fill="#262626" text-anchor="start" >ghost shapes,</text><text x="1042" y="448" font-family="Arial, Helvetica, sans-serif" font-size="22" font-weight="400" fill="#262626" text-anchor="start" >faces, fangs,</text><text x="1042" y="476" font-family="Arial, Helvetica, sans-serif" font-size="22" font-weight="400" fill="#262626" text-anchor="start" >cheeks, sparkles,</text><text x="1042" y="504" font-family="Arial, Helvetica, sans-serif" font-size="22" font-weight="400" fill="#262626" text-anchor="start" >sweat drops, and</text><text x="1042" y="532" font-family="Arial, Helvetica, sans-serif" font-size="22" font-weight="400" fill="#262626" text-anchor="start" >candy crumb.</text><text x="1042" y="616" font-family="Arial, Helvetica, sans-serif" font-size="20" font-weight="700" fill="#5e5b57" text-anchor="start" >Helpful hint</text><text x="1042" y="650" font-family="Arial, Helvetica, sans-serif" font-size="19" font-weight="400" fill="#454340" text-anchor="start" >Keep the fangs small</text><text x="1042" y="674" font-family="Arial, Helvetica, sans-serif" font-size="19" font-weight="400" fill="#454340" text-anchor="start" >and rounded so the</text><text x="1042" y="698" font-family="Arial, Helvetica, sans-serif" font-size="19" font-weight="400" fill="#454340" text-anchor="start" >ghosts stay friendly.</text><text x="1042" y="828" font-family="Arial, Helvetica, sans-serif" font-size="18" font-weight="700" fill="#686560" text-anchor="start" >SVG guide step</text><circle cx="1060" cy="858" r="14" fill="#F6B7C8" stroke="none" stroke-width="1" /><circle cx="1106" cy="858" r="14" fill="#F6B7C8" stroke="none" stroke-width="1" /><circle cx="1152" cy="858" r="14" fill="#F6B7C8" stroke="none" stroke-width="1" /><circle cx="1198" cy="858" r="14" fill="#F6B7C8" stroke="none" stroke-width="1" /><circle cx="1244" cy="858" r="14" fill="#f8f2e8" stroke="none" stroke-width="1" /><path d="M 225 420 Q 225 360 280 320 Q 335 360 335 420 Q 328 458 305 460 Q 288 450 280 448 Q 272 452 255 460 Q 232 458 225 420" stroke="#252a33" stroke-width="4" fill="none" stroke-linecap="round" stroke-linejoin="round" /><path d="M 405 420 Q 405 360 460 320 Q 515 360 515 420 Q 508 458 485 460 Q 468 450 460 448 Q 452 452 435 460 Q 412 458 405 420" stroke="#252a33" stroke-width="4" fill="none" stroke-linecap="round" stroke-linejoin="round" /><path d="M 585 420 Q 585 360 640 320 Q 695 360 695 420 Q 688 458 665 460 Q 648 450 640 448 Q 632 452 615 460 Q 592 458 585 420" stroke="#252a33" stroke-width="4" fill="none" stroke-linecap="round" stroke-linejoin="round" /><path d="M 765 420 Q 765 360 820 320 Q 875 360 875 420 Q 868 458 845 460 Q 828 450 820 448 Q 812 452 795 460 Q 772 458 765 420" stroke="#252a33" stroke-width="4" fill="none" stroke-linecap="round" stroke-linejoin="round" /><ellipse cx="262" cy="382" rx="10.5" ry="13.5" fill="white" stroke="#46384F" stroke-width="3.0" /><ellipse cx="262" cy="382.75" rx="4.5" ry="6.75" fill="#46384F" stroke="none" stroke-width="1" /><ellipse cx="298" cy="382" rx="10.5" ry="13.5" fill="white" stroke="#46384F" stroke-width="3.0" /><ellipse cx="298" cy="382.75" rx="4.5" ry="6.75" fill="#46384F" stroke="none" stroke-width="1" /><line x1="253.0" y1="359.0" x2="269.5" y2="354.5" stroke="#46384F" stroke-width="3.0" stroke-linecap="round" stroke-linejoin="round" /><line x1="290.5" y1="354.5" x2="307.0" y2="359.0" stroke="#46384F" stroke-width="3.0" stroke-linecap="round" stroke-linejoin="round" /><path d="M 268.0 414 Q 280 420.75 292.0 414" stroke="#46384F" stroke-width="3.0" fill="none" stroke-linecap="round" stroke-linejoin="round" /><path d="M 430.0 382 Q 442 374.5 454.0 382" stroke="#46384F" stroke-width="3.0" fill="none" stroke-linecap="round" stroke-linejoin="round" /><path d="M 466.0 382 Q 478 374.5 490.0 382" stroke="#46384F" stroke-width="3.0" fill="none" stroke-linecap="round" stroke-linejoin="round" /><line x1="433.0" y1="356" x2="449.5" y2="354.5" stroke="#46384F" stroke-width="3.0" stroke-linecap="round" stroke-linejoin="round" /><line x1="470.5" y1="354.5" x2="487.0" y2="356" stroke="#46384F" stroke-width="3.0" stroke-linecap="round" stroke-linejoin="round" /><path d="M 448.0 414 Q 460 420.75 472.0 414" stroke="#46384F" stroke-width="3.0" fill="none" stroke-linecap="round" stroke-linejoin="round" /><ellipse cx="622" cy="382" rx="10.5" ry="13.5" fill="white" stroke="#46384F" stroke-width="3.0" /><ellipse cx="622" cy="382.75" rx="4.5" ry="6.75" fill="#46384F" stroke="none" stroke-width="1" /><ellipse cx="658" cy="382" rx="10.5" ry="13.5" fill="white" stroke="#46384F" stroke-width="3.0" /><ellipse cx="658" cy="382.75" rx="4.5" ry="6.75" fill="#46384F" stroke="none" stroke-width="1" /><line x1="613.0" y1="359.0" x2="629.5" y2="354.5" stroke="#46384F" stroke-width="3.0" stroke-linecap="round" stroke-linejoin="round" /><line x1="650.5" y1="354.5" x2="667.0" y2="359.0" stroke="#46384F" stroke-width="3.0" stroke-linecap="round" stroke-linejoin="round" /><ellipse cx="640" cy="414" rx="9.0" ry="8.25" fill="none" stroke="#46384F" stroke-width="2.25" /><circle cx="802" cy="382" r="5.25" fill="#46384F" stroke="none" stroke-width="1" /><ellipse cx="838" cy="382" rx="10.5" ry="13.5" fill="white" stroke="#46384F" stroke-width="3.0" /><ellipse cx="838" cy="382.75" rx="4.5" ry="6.75" fill="#46384F" stroke="none" stroke-width="1" /><line x1="793.0" y1="357.5" x2="811.0" y2="353.0" stroke="#46384F" stroke-width="3.0" stroke-linecap="round" stroke-linejoin="round" /><line x1="829.0" y1="353.0" x2="845.5" y2="356" stroke="#46384F" stroke-width="3.0" stroke-linecap="round" stroke-linejoin="round" /><path d="M 809.5 417.0 Q 820 421.5 832.0 412.5" stroke="#46384F" stroke-width="3.0" fill="none" stroke-linecap="round" stroke-linejoin="round" /><circle cx="260" cy="410" r="9" fill="none" stroke="#46384F" stroke-width="2" /><circle cx="300" cy="410" r="9" fill="none" stroke="#46384F" stroke-width="2" /><circle cx="440" cy="410" r="9" fill="none" stroke="#46384F" stroke-width="2" /><circle cx="480" cy="410" r="9" fill="none" stroke="#46384F" stroke-width="2" /><circle cx="620" cy="410" r="9" fill="none" stroke="#46384F" stroke-width="2" /><circle cx="660" cy="410" r="9" fill="none" stroke="#46384F" stroke-width="2" /><circle cx="800" cy="410" r="9" fill="none" stroke="#46384F" stroke-width="2" /><circle cx="840" cy="410" r="9" fill="none" stroke="#46384F" stroke-width="2" /><polygon points="450,423 457,438 464,423" stroke="#46384F" stroke-width="2" fill="none" stroke-linecap="round" stroke-linejoin="round" /><polygon points="466,423 473,438 480,423" stroke="#46384F" stroke-width="2" fill="none" stroke-linecap="round" stroke-linejoin="round" /><polygon points="810,423 817,438 824,423" stroke="#46384F" stroke-width="2" fill="none" stroke-linecap="round" stroke-linejoin="round" /><polygon points="826,423 833,438 840,423" stroke="#46384F" stroke-width="2" fill="none" stroke-linecap="round" stroke-linejoin="round" /><line x1="239.4" y1="315" x2="250.6" y2="315" stroke="#F6B7C8" stroke-width="1.6" stroke-linecap="round" stroke-linejoin="round" /><line x1="245" y1="309.4" x2="245" y2="320.6" stroke="#F6B7C8" stroke-width="1.6" stroke-linecap="round" stroke-linejoin="round" /><line x1="494.4" y1="312" x2="505.6" y2="312" stroke="#F6B7C8" stroke-width="1.6" stroke-linecap="round" stroke-linejoin="round" /><line x1="500" y1="306.4" x2="500" y2="317.6" stroke="#F6B7C8" stroke-width="1.6" stroke-linecap="round" stroke-linejoin="round" /><line x1="679.4" y1="315" x2="690.6" y2="315" stroke="#F6B7C8" stroke-width="1.6" stroke-linecap="round" stroke-linejoin="round" /><line x1="685" y1="309.4" x2="685" y2="320.6" stroke="#F6B7C8" stroke-width="1.6" stroke-linecap="round" stroke-linejoin="round" /><line x1="849.4" y1="322" x2="860.6" y2="322" stroke="#F6B7C8" stroke-width="1.6" stroke-linecap="round" stroke-linejoin="round" /><line x1="855" y1="316.4" x2="855" y2="327.6" stroke="#F6B7C8" stroke-width="1.6" stroke-linecap="round" stroke-linejoin="round" /><path d="M 650 402 q 12 -12 20 0" stroke="#46384F" stroke-width="2" fill="none" stroke-linecap="round" stroke-linejoin="round" /><circle cx="655" cy="430" r="5" fill="none" stroke="#46384F" stroke-width="2" /><circle cx="870" cy="452" r="8" fill="none" stroke="#46384F" stroke-width="2" /><text x="112" y="872" font-family="Arial, Helvetica, sans-serif" font-size="32" font-weight="700" fill="#42354b" text-anchor="start" >Clean Lineart</text><g data-polish="board-pins" opacity="0.42">
          <circle cx="112" cy="202" r="4" fill="#7fb8e8"/>
          <circle cx="130" cy="202" r="4" fill="#f2c477"/>
          <circle cx="148" cy="202" r="4" fill="#f1a7bd"/>
          <path d="M 830 900 L 950 900" stroke="#2f3440" stroke-width="2" stroke-linecap="round" opacity="0.18"/>
        </g></svg>