<svg xmlns="http://www.w3.org/2000/svg" role="img" aria-label="Pocket SketchSteps lesson step diagram" width="1400" height="1000" viewBox="0 0 1400 1000"><rect width="100%" height="100%" fill="#F5EFE8"/><rect width="100%" height="100%" fill="url(#ambientGlow)" opacity="0.55"/><rect width="100%" height="100%" fill="url(#focusGlow)" opacity="0.65"/><defs><filter id="shadow" x="-20%" y="-20%" width="140%" height="140%"><feDropShadow dx="0" dy="6" stdDeviation="11" flood-color="#1f2430" flood-opacity="0.10"/></filter><linearGradient id="ambientGlow" x1="0" y1="0" x2="1" y2="1">
      <stop offset="0%" stop-color="#ffffff" stop-opacity="0.42"/>
      <stop offset="52%" stop-color="#ffffff" stop-opacity="0.06"/>
      <stop offset="100%" stop-color="#f6dcc5" stop-opacity="0.18"/>
    </linearGradient>
    <radialGradient id="focusGlow" cx="38%" cy="40%" r="60%">
      <stop offset="0%" stop-color="#ffffff" stop-opacity="0.26"/>
      <stop offset="100%" stop-color="#ffffff" stop-opacity="0"/>
    </radialGradient>
    <filter id="softInk" x="-10%" y="-10%" width="120%" height="120%">
      <feDropShadow dx="0" dy="1" stdDeviation="0.35" flood-color="#1f2430" flood-opacity="0.14"/>
    </filter>
    <style><![CDATA[
      svg { shape-rendering: geometricPrecision; text-rendering: optimizeLegibility; }
      text { letter-spacing: .01em; }
      path, line, polyline, polygon, rect, ellipse, circle { vector-effect: non-scaling-stroke; }
    ]]></style></defs><circle cx="16" cy="16" r="1.7" fill="#f7f2ed"/><circle cx="76" cy="16" r="1.7" fill="#f7f2ed"/><circle cx="136" cy="16" r="1.7" fill="#f7f2ed"/><circle cx="196" cy="16" r="1.7" fill="#f7f2ed"/><circle cx="256" cy="16" r="1.7" fill="#f7f2ed"/><circle cx="316" cy="16" r="1.7" fill="#f7f2ed"/><circle cx="376" cy="16" r="1.7" fill="#f7f2ed"/><circle cx="436" cy="16" r="1.7" fill="#f7f2ed"/><circle cx="496" cy="16" r="1.7" fill="#f7f2ed"/><circle cx="556" cy="16" r="1.7" fill="#f7f2ed"/><circle cx="616" cy="16" r="1.7" fill="#f7f2ed"/><circle cx="676" cy="16" r="1.7" fill="#f7f2ed"/><circle cx="736" cy="16" r="1.7" fill="#f7f2ed"/><circle cx="796" cy="16" r="1.7" fill="#f7f2ed"/><circle cx="856" cy="16" r="1.7" fill="#f7f2ed"/><circle cx="916" cy="16" r="1.7" fill="#f7f2ed"/><circle cx="976" cy="16" r="1.7" fill="#f7f2ed"/><circle cx="1036" cy="16" r="1.7" fill="#f7f2ed"/><circle cx="1096" cy="16" r="1.7" fill="#f7f2ed"/><circle cx="1156" cy="16" r="1.7" fill="#f7f2ed"/><circle cx="1216" cy="16" r="1.7" fill="#f7f2ed"/><circle cx="1276" cy="16" r="1.7" fill="#f7f2ed"/><circle cx="1336" cy="16" r="1.7" fill="#f7f2ed"/><circle cx="1396" cy="16" r="1.7" fill="#f7f2ed"/><circle cx="16" cy="76" r="1.7" fill="#f7f2ed"/><circle cx="76" cy="76" r="1.7" fill="#f7f2ed"/><circle cx="136" cy="76" r="1.7" fill="#f7f2ed"/><circle cx="196" cy="76" r="1.7" fill="#f7f2ed"/><circle cx="256" cy="76" r="1.7" fill="#f7f2ed"/><circle cx="316" cy="76" r="1.7" fill="#f7f2ed"/><circle cx="376" cy="76" r="1.7" fill="#f7f2ed"/><circle cx="436" cy="76" r="1.7" fill="#f7f2ed"/><circle cx="496" cy="76" r="1.7" fill="#f7f2ed"/><circle cx="556" cy="76" r="1.7" fill="#f7f2ed"/><circle cx="616" cy="76" r="1.7" fill="#f7f2ed"/><circle cx="676" cy="76" r="1.7" fill="#f7f2ed"/><circle cx="736" cy="76" r="1.7" fill="#f7f2ed"/><circle cx="796" cy="76" r="1.7" fill="#f7f2ed"/><circle cx="856" cy="76" r="1.7" fill="#f7f2ed"/><circle cx="916" cy="76" r="1.7" fill="#f7f2ed"/><circle cx="976" cy="76" r="1.7" fill="#f7f2ed"/><circle cx="1036" cy="76" r="1.7" fill="#f7f2ed"/><circle cx="1096" cy="76" r="1.7" fill="#f7f2ed"/><circle cx="1156" cy="76" r="1.7" fill="#f7f2ed"/><circle cx="1216" cy="76" r="1.7" fill="#f7f2ed"/><circle cx="1276" cy="76" r="1.7" fill="#f7f2ed"/><circle cx="1336" cy="76" r="1.7" fill="#f7f2ed"/><circle cx="1396" cy="76" r="1.7" fill="#f7f2ed"/><circle cx="16" cy="136" r="1.7" fill="#f7f2ed"/><circle cx="76" cy="136" r="1.7" fill="#f7f2ed"/><circle cx="136" cy="136" r="1.7" fill="#f7f2ed"/><circle cx="196" cy="136" r="1.7" fill="#f7f2ed"/><circle cx="256" cy="136" r="1.7" fill="#f7f2ed"/><circle cx="316" cy="136" r="1.7" fill="#f7f2ed"/><circle cx="376" cy="136" r="1.7" fill="#f7f2ed"/><circle cx="436" cy="136" r="1.7" fill="#f7f2ed"/><circle cx="496" cy="136" r="1.7" fill="#f7f2ed"/><circle cx="556" cy="136" r="1.7" fill="#f7f2ed"/><circle cx="616" cy="136" r="1.7" fill="#f7f2ed"/><circle cx="676" cy="136" r="1.7" fill="#f7f2ed"/><circle cx="736" cy="136" r="1.7" fill="#f7f2ed"/><circle cx="796" cy="136" r="1.7" fill="#f7f2ed"/><circle cx="856" cy="136" r="1.7" fill="#f7f2ed"/><circle cx="916" cy="136" r="1.7" fill="#f7f2ed"/><circle cx="976" cy="136" r="1.7" fill="#f7f2ed"/><circle cx="1036" cy="136" r="1.7" fill="#f7f2ed"/><circle cx="1096" cy="136" r="1.7" fill="#f7f2ed"/><circle cx="1156" cy="136" r="1.7" fill="#f7f2ed"/><circle cx="1216" cy="136" r="1.7" fill="#f7f2ed"/><circle cx="1276" cy="136" r="1.7" fill="#f7f2ed"/><circle cx="1336" cy="136" r="1.7" fill="#f7f2ed"/><circle cx="1396" cy="136" r="1.7" fill="#f7f2ed"/><circle cx="16" cy="196" r="1.7" fill="#f7f2ed"/><circle cx="76" cy="196" r="1.7" fill="#f7f2ed"/><circle cx="136" cy="196" r="1.7" fill="#f7f2ed"/><circle cx="196" cy="196" r="1.7" fill="#f7f2ed"/><circle cx="256" cy="196" r="1.7" fill="#f7f2ed"/><circle cx="316" cy="196" r="1.7" fill="#f7f2ed"/><circle cx="376" cy="196" r="1.7" fill="#f7f2ed"/><circle cx="436" cy="196" r="1.7" fill="#f7f2ed"/><circle cx="496" cy="196" r="1.7" fill="#f7f2ed"/><circle cx="556" cy="196" r="1.7" fill="#f7f2ed"/><circle cx="616" cy="196" r="1.7" fill="#f7f2ed"/><circle cx="676" cy="196" r="1.7" fill="#f7f2ed"/><circle cx="736" cy="196" r="1.7" fill="#f7f2ed"/><circle cx="796" cy="196" r="1.7" fill="#f7f2ed"/><circle cx="856" cy="196" r="1.7" fill="#f7f2ed"/><circle cx="916" cy="196" r="1.7" fill="#f7f2ed"/><circle cx="976" cy="196" r="1.7" fill="#f7f2ed"/><circle cx="1036" cy="196" r="1.7" fill="#f7f2ed"/><circle cx="1096" cy="196" r="1.7" fill="#f7f2ed"/><circle cx="1156" cy="196" r="1.7" fill="#f7f2ed"/><circle cx="1216" cy="196" r="1.7" fill="#f7f2ed"/><circle cx="1276" cy="196" r="1.7" fill="#f7f2ed"/><circle cx="1336" cy="196" r="1.7" fill="#f7f2ed"/><circle cx="1396" cy="196" r="1.7" fill="#f7f2ed"/><circle cx="16" cy="256" r="1.7" fill="#f7f2ed"/><circle cx="76" cy="256" r="1.7" fill="#f7f2ed"/><circle cx="136" cy="256" r="1.7" fill="#f7f2ed"/><circle cx="196" cy="256" r="1.7" fill="#f7f2ed"/><circle cx="256" cy="256" r="1.7" fill="#f7f2ed"/><circle cx="316" cy="256" r="1.7" fill="#f7f2ed"/><circle cx="376" cy="256" r="1.7" fill="#f7f2ed"/><circle cx="436" cy="256" r="1.7" fill="#f7f2ed"/><circle cx="496" cy="256" r="1.7" fill="#f7f2ed"/><circle cx="556" cy="256" r="1.7" fill="#f7f2ed"/><circle cx="616" cy="256" r="1.7" fill="#f7f2ed"/><circle cx="676" cy="256" r="1.7" fill="#f7f2ed"/><circle cx="736" cy="256" r="1.7" fill="#f7f2ed"/><circle cx="796" cy="256" r="1.7" fill="#f7f2ed"/><circle cx="856" cy="256" r="1.7" fill="#f7f2ed"/><circle cx="916" cy="256" r="1.7" fill="#f7f2ed"/><circle cx="976" cy="256" r="1.7" fill="#f7f2ed"/><circle cx="1036" cy="256" r="1.7" fill="#f7f2ed"/><circle cx="1096" cy="256" r="1.7" fill="#f7f2ed"/><circle cx="1156" cy="256" r="1.7" fill="#f7f2ed"/><circle cx="1216" cy="256" r="1.7" fill="#f7f2ed"/><circle cx="1276" cy="256" r="1.7" fill="#f7f2ed"/><circle cx="1336" cy="256" r="1.7" fill="#f7f2ed"/><circle cx="1396" cy="256" r="1.7" fill="#f7f2ed"/><circle cx="16" cy="316" r="1.7" fill="#f7f2ed"/><circle cx="76" cy="316" r="1.7" fill="#f7f2ed"/><circle cx="136" cy="316" r="1.7" fill="#f7f2ed"/><circle cx="196" cy="316" r="1.7" fill="#f7f2ed"/><circle cx="256" cy="316" r="1.7" fill="#f7f2ed"/><circle cx="316" cy="316" r="1.7" fill="#f7f2ed"/><circle cx="376" cy="316" r="1.7" fill="#f7f2ed"/><circle cx="436" cy="316" r="1.7" fill="#f7f2ed"/><circle cx="496" cy="316" r="1.7" fill="#f7f2ed"/><circle cx="556" cy="316" r="1.7" fill="#f7f2ed"/><circle cx="616" cy="316" r="1.7" fill="#f7f2ed"/><circle cx="676" cy="316" r="1.7" fill="#f7f2ed"/><circle cx="736" cy="316" r="1.7" fill="#f7f2ed"/><circle cx="796" cy="316" r="1.7" fill="#f7f2ed"/><circle cx="856" cy="316" r="1.7" fill="#f7f2ed"/><circle cx="916" cy="316" r="1.7" fill="#f7f2ed"/><circle cx="976" cy="316" r="1.7" fill="#f7f2ed"/><circle cx="1036" cy="316" r="1.7" fill="#f7f2ed"/><circle cx="1096" cy="316" r="1.7" fill="#f7f2ed"/><circle cx="1156" cy="316" r="1.7" fill="#f7f2ed"/><circle cx="1216" cy="316" r="1.7" fill="#f7f2ed"/><circle cx="1276" cy="316" r="1.7" fill="#f7f2ed"/><circle cx="1336" cy="316" r="1.7" fill="#f7f2ed"/><circle cx="1396" cy="316" r="1.7" fill="#f7f2ed"/><circle cx="16" cy="376" r="1.7" fill="#f7f2ed"/><circle cx="76" cy="376" r="1.7" fill="#f7f2ed"/><circle cx="136" cy="376" r="1.7" fill="#f7f2ed"/><circle cx="196" cy="376" r="1.7" fill="#f7f2ed"/><circle cx="256" cy="376" r="1.7" fill="#f7f2ed"/><circle cx="316" cy="376" r="1.7" fill="#f7f2ed"/><circle cx="376" cy="376" r="1.7" fill="#f7f2ed"/><circle cx="436" cy="376" r="1.7" fill="#f7f2ed"/><circle cx="496" cy="376" r="1.7" fill="#f7f2ed"/><circle cx="556" cy="376" r="1.7" fill="#f7f2ed"/><circle cx="616" cy="376" r="1.7" fill="#f7f2ed"/><circle cx="676" cy="376" r="1.7" fill="#f7f2ed"/><circle cx="736" cy="376" r="1.7" fill="#f7f2ed"/><circle cx="796" cy="376" r="1.7" fill="#f7f2ed"/><circle cx="856" cy="376" r="1.7" fill="#f7f2ed"/><circle cx="916" cy="376" r="1.7" fill="#f7f2ed"/><circle cx="976" cy="376" r="1.7" fill="#f7f2ed"/><circle cx="1036" cy="376" r="1.7" fill="#f7f2ed"/><circle cx="1096" cy="376" r="1.7" fill="#f7f2ed"/><circle cx="1156" cy="376" r="1.7" fill="#f7f2ed"/><circle cx="1216" cy="376" r="1.7" fill="#f7f2ed"/><circle cx="1276" cy="376" r="1.7" fill="#f7f2ed"/><circle cx="1336" cy="376" r="1.7" fill="#f7f2ed"/><circle cx="1396" cy="376" r="1.7" fill="#f7f2ed"/><circle cx="16" cy="436" r="1.7" fill="#f7f2ed"/><circle cx="76" cy="436" r="1.7" fill="#f7f2ed"/><circle cx="136" cy="436" r="1.7" fill="#f7f2ed"/><circle cx="196" cy="436" r="1.7" fill="#f7f2ed"/><circle cx="256" cy="436" r="1.7" fill="#f7f2ed"/><circle cx="316" cy="436" r="1.7" fill="#f7f2ed"/><circle cx="376" cy="436" r="1.7" fill="#f7f2ed"/><circle cx="436" cy="436" r="1.7" fill="#f7f2ed"/><circle cx="496" cy="436" r="1.7" fill="#f7f2ed"/><circle cx="556" cy="436" r="1.7" fill="#f7f2ed"/><circle cx="616" cy="436" r="1.7" fill="#f7f2ed"/><circle cx="676" cy="436" r="1.7" fill="#f7f2ed"/><circle cx="736" cy="436" r="1.7" fill="#f7f2ed"/><circle cx="796" cy="436" r="1.7" fill="#f7f2ed"/><circle cx="856" cy="436" r="1.7" fill="#f7f2ed"/><circle cx="916" cy="436" r="1.7" fill="#f7f2ed"/><circle cx="976" cy="436" r="1.7" fill="#f7f2ed"/><circle cx="1036" cy="436" r="1.7" fill="#f7f2ed"/><circle cx="1096" cy="436" r="1.7" fill="#f7f2ed"/><circle cx="1156" cy="436" r="1.7" fill="#f7f2ed"/><circle cx="1216" cy="436" r="1.7" fill="#f7f2ed"/><circle cx="1276" cy="436" r="1.7" fill="#f7f2ed"/><circle cx="1336" cy="436" r="1.7" fill="#f7f2ed"/><circle cx="1396" cy="436" r="1.7" fill="#f7f2ed"/><circle cx="16" cy="496" r="1.7" fill="#f7f2ed"/><circle cx="76" cy="496" r="1.7" fill="#f7f2ed"/><circle cx="136" cy="496" r="1.7" fill="#f7f2ed"/><circle cx="196" cy="496" r="1.7" fill="#f7f2ed"/><circle cx="256" cy="496" r="1.7" fill="#f7f2ed"/><circle cx="316" cy="496" r="1.7" fill="#f7f2ed"/><circle cx="376" cy="496" r="1.7" fill="#f7f2ed"/><circle cx="436" cy="496" r="1.7" fill="#f7f2ed"/><circle cx="496" cy="496" r="1.7" fill="#f7f2ed"/><circle cx="556" cy="496" r="1.7" fill="#f7f2ed"/><circle cx="616" cy="496" r="1.7" fill="#f7f2ed"/><circle cx="676" cy="496" r="1.7" fill="#f7f2ed"/><circle cx="736" cy="496" r="1.7" fill="#f7f2ed"/><circle cx="796" cy="496" r="1.7" fill="#f7f2ed"/><circle cx="856" cy="496" r="1.7" fill="#f7f2ed"/><circle cx="916" cy="496" r="1.7" fill="#f7f2ed"/><circle cx="976" cy="496" r="1.7" fill="#f7f2ed"/><circle cx="1036" cy="496" r="1.7" fill="#f7f2ed"/><circle cx="1096" cy="496" r="1.7" fill="#f7f2ed"/><circle cx="1156" cy="496" r="1.7" fill="#f7f2ed"/><circle cx="1216" cy="496" r="1.7" fill="#f7f2ed"/><circle cx="1276" cy="496" r="1.7" fill="#f7f2ed"/><circle cx="1336" cy="496" r="1.7" fill="#f7f2ed"/><circle cx="1396" cy="496" r="1.7" fill="#f7f2ed"/><circle cx="16" cy="556" r="1.7" fill="#f7f2ed"/><circle cx="76" cy="556" r="1.7" fill="#f7f2ed"/><circle cx="136" cy="556" r="1.7" fill="#f7f2ed"/><circle cx="196" cy="556" r="1.7" fill="#f7f2ed"/><circle cx="256" cy="556" r="1.7" fill="#f7f2ed"/><circle cx="316" cy="556" r="1.7" fill="#f7f2ed"/><circle cx="376" cy="556" r="1.7" fill="#f7f2ed"/><circle cx="436" cy="556" r="1.7" fill="#f7f2ed"/><circle cx="496" cy="556" r="1.7" fill="#f7f2ed"/><circle cx="556" cy="556" r="1.7" fill="#f7f2ed"/><circle cx="616" cy="556" r="1.7" fill="#f7f2ed"/><circle cx="676" cy="556" r="1.7" fill="#f7f2ed"/><circle cx="736" cy="556" r="1.7" fill="#f7f2ed"/><circle cx="796" cy="556" r="1.7" fill="#f7f2ed"/><circle cx="856" cy="556" r="1.7" fill="#f7f2ed"/><circle cx="916" cy="556" r="1.7" fill="#f7f2ed"/><circle cx="976" cy="556" r="1.7" fill="#f7f2ed"/><circle cx="1036" cy="556" r="1.7" fill="#f7f2ed"/><circle cx="1096" cy="556" r="1.7" fill="#f7f2ed"/><circle cx="1156" cy="556" r="1.7" fill="#f7f2ed"/><circle cx="1216" cy="556" r="1.7" fill="#f7f2ed"/><circle cx="1276" cy="556" r="1.7" fill="#f7f2ed"/><circle cx="1336" cy="556" r="1.7" fill="#f7f2ed"/><circle cx="1396" cy="556" r="1.7" fill="#f7f2ed"/><circle cx="16" cy="616" r="1.7" fill="#f7f2ed"/><circle cx="76" cy="616" r="1.7" fill="#f7f2ed"/><circle cx="136" cy="616" r="1.7" fill="#f7f2ed"/><circle cx="196" cy="616" r="1.7" fill="#f7f2ed"/><circle cx="256" cy="616" r="1.7" fill="#f7f2ed"/><circle cx="316" cy="616" r="1.7" fill="#f7f2ed"/><circle cx="376" cy="616" r="1.7" fill="#f7f2ed"/><circle cx="436" cy="616" r="1.7" fill="#f7f2ed"/><circle cx="496" cy="616" r="1.7" fill="#f7f2ed"/><circle cx="556" cy="616" r="1.7" fill="#f7f2ed"/><circle cx="616" cy="616" r="1.7" fill="#f7f2ed"/><circle cx="676" cy="616" r="1.7" fill="#f7f2ed"/><circle cx="736" cy="616" r="1.7" fill="#f7f2ed"/><circle cx="796" cy="616" r="1.7" fill="#f7f2ed"/><circle cx="856" cy="616" r="1.7" fill="#f7f2ed"/><circle cx="916" cy="616" r="1.7" fill="#f7f2ed"/><circle cx="976" cy="616" r="1.7" fill="#f7f2ed"/><circle cx="1036" cy="616" r="1.7" fill="#f7f2ed"/><circle cx="1096" cy="616" r="1.7" fill="#f7f2ed"/><circle cx="1156" cy="616" r="1.7" fill="#f7f2ed"/><circle cx="1216" cy="616" r="1.7" fill="#f7f2ed"/><circle cx="1276" cy="616" r="1.7" fill="#f7f2ed"/><circle cx="1336" cy="616" r="1.7" fill="#f7f2ed"/><circle cx="1396" cy="616" r="1.7" fill="#f7f2ed"/><circle cx="16" cy="676" r="1.7" fill="#f7f2ed"/><circle cx="76" cy="676" r="1.7" fill="#f7f2ed"/><circle cx="136" cy="676" r="1.7" fill="#f7f2ed"/><circle cx="196" cy="676" r="1.7" fill="#f7f2ed"/><circle cx="256" cy="676" r="1.7" fill="#f7f2ed"/><circle cx="316" cy="676" r="1.7" fill="#f7f2ed"/><circle cx="376" cy="676" r="1.7" fill="#f7f2ed"/><circle cx="436" cy="676" r="1.7" fill="#f7f2ed"/><circle cx="496" cy="676" r="1.7" fill="#f7f2ed"/><circle cx="556" cy="676" r="1.7" fill="#f7f2ed"/><circle cx="616" cy="676" r="1.7" fill="#f7f2ed"/><circle cx="676" cy="676" r="1.7" fill="#f7f2ed"/><circle cx="736" cy="676" r="1.7" fill="#f7f2ed"/><circle cx="796" cy="676" r="1.7" fill="#f7f2ed"/><circle cx="856" cy="676" r="1.7" fill="#f7f2ed"/><circle cx="916" cy="676" r="1.7" fill="#f7f2ed"/><circle cx="976" cy="676" r="1.7" fill="#f7f2ed"/><circle cx="1036" cy="676" r="1.7" fill="#f7f2ed"/><circle cx="1096" cy="676" r="1.7" fill="#f7f2ed"/><circle cx="1156" cy="676" r="1.7" fill="#f7f2ed"/><circle cx="1216" cy="676" r="1.7" fill="#f7f2ed"/><circle cx="1276" cy="676" r="1.7" fill="#f7f2ed"/><circle cx="1336" cy="676" r="1.7" fill="#f7f2ed"/><circle cx="1396" cy="676" r="1.7" fill="#f7f2ed"/><circle cx="16" cy="736" r="1.7" fill="#f7f2ed"/><circle cx="76" cy="736" r="1.7" fill="#f7f2ed"/><circle cx="136" cy="736" r="1.7" fill="#f7f2ed"/><circle cx="196" cy="736" r="1.7" fill="#f7f2ed"/><circle cx="256" cy="736" r="1.7" fill="#f7f2ed"/><circle cx="316" cy="736" r="1.7" fill="#f7f2ed"/><circle cx="376" cy="736" r="1.7" fill="#f7f2ed"/><circle cx="436" cy="736" r="1.7" fill="#f7f2ed"/><circle cx="496" cy="736" r="1.7" fill="#f7f2ed"/><circle cx="556" cy="736" r="1.7" fill="#f7f2ed"/><circle cx="616" cy="736" r="1.7" fill="#f7f2ed"/><circle cx="676" cy="736" r="1.7" fill="#f7f2ed"/><circle cx="736" cy="736" r="1.7" fill="#f7f2ed"/><circle cx="796" cy="736" r="1.7" fill="#f7f2ed"/><circle cx="856" cy="736" r="1.7" fill="#f7f2ed"/><circle cx="916" cy="736" r="1.7" fill="#f7f2ed"/><circle cx="976" cy="736" r="1.7" fill="#f7f2ed"/><circle cx="1036" cy="736" r="1.7" fill="#f7f2ed"/><circle cx="1096" cy="736" r="1.7" fill="#f7f2ed"/><circle cx="1156" cy="736" r="1.7" fill="#f7f2ed"/><circle cx="1216" cy="736" r="1.7" fill="#f7f2ed"/><circle cx="1276" cy="736" r="1.7" fill="#f7f2ed"/><circle cx="1336" cy="736" r="1.7" fill="#f7f2ed"/><circle cx="1396" cy="736" r="1.7" fill="#f7f2ed"/><circle cx="16" cy="796" r="1.7" fill="#f7f2ed"/><circle cx="76" cy="796" r="1.7" fill="#f7f2ed"/><circle cx="136" cy="796" r="1.7" fill="#f7f2ed"/><circle cx="196" cy="796" r="1.7" fill="#f7f2ed"/><circle cx="256" cy="796" r="1.7" fill="#f7f2ed"/><circle cx="316" cy="796" r="1.7" fill="#f7f2ed"/><circle cx="376" cy="796" r="1.7" fill="#f7f2ed"/><circle cx="436" cy="796" r="1.7" fill="#f7f2ed"/><circle cx="496" cy="796" r="1.7" fill="#f7f2ed"/><circle cx="556" cy="796" r="1.7" fill="#f7f2ed"/><circle cx="616" cy="796" r="1.7" fill="#f7f2ed"/><circle cx="676" cy="796" r="1.7" fill="#f7f2ed"/><circle cx="736" cy="796" r="1.7" fill="#f7f2ed"/><circle cx="796" cy="796" r="1.7" fill="#f7f2ed"/><circle cx="856" cy="796" r="1.7" fill="#f7f2ed"/><circle cx="916" cy="796" r="1.7" fill="#f7f2ed"/><circle cx="976" cy="796" r="1.7" fill="#f7f2ed"/><circle cx="1036" cy="796" r="1.7" fill="#f7f2ed"/><circle cx="1096" cy="796" r="1.7" fill="#f7f2ed"/><circle cx="1156" cy="796" r="1.7" fill="#f7f2ed"/><circle cx="1216" cy="796" r="1.7" fill="#f7f2ed"/><circle cx="1276" cy="796" r="1.7" fill="#f7f2ed"/><circle cx="1336" cy="796" r="1.7" fill="#f7f2ed"/><circle cx="1396" cy="796" r="1.7" fill="#f7f2ed"/><circle cx="16" cy="856" r="1.7" fill="#f7f2ed"/><circle cx="76" cy="856" r="1.7" fill="#f7f2ed"/><circle cx="136" cy="856" r="1.7" fill="#f7f2ed"/><circle cx="196" cy="856" r="1.7" fill="#f7f2ed"/><circle cx="256" cy="856" r="1.7" fill="#f7f2ed"/><circle cx="316" cy="856" r="1.7" fill="#f7f2ed"/><circle cx="376" cy="856" r="1.7" fill="#f7f2ed"/><circle cx="436" cy="856" r="1.7" fill="#f7f2ed"/><circle cx="496" cy="856" r="1.7" fill="#f7f2ed"/><circle cx="556" cy="856" r="1.7" fill="#f7f2ed"/><circle cx="616" cy="856" r="1.7" fill="#f7f2ed"/><circle cx="676" cy="856" r="1.7" fill="#f7f2ed"/><circle cx="736" cy="856" r="1.7" fill="#f7f2ed"/><circle cx="796" cy="856" r="1.7" fill="#f7f2ed"/><circle cx="856" cy="856" r="1.7" fill="#f7f2ed"/><circle cx="916" cy="856" r="1.7" fill="#f7f2ed"/><circle cx="976" cy="856" r="1.7" fill="#f7f2ed"/><circle cx="1036" cy="856" r="1.7" fill="#f7f2ed"/><circle cx="1096" cy="856" r="1.7" fill="#f7f2ed"/><circle cx="1156" cy="856" r="1.7" fill="#f7f2ed"/><circle cx="1216" cy="856" r="1.7" fill="#f7f2ed"/><circle cx="1276" cy="856" r="1.7" fill="#f7f2ed"/><circle cx="1336" cy="856" r="1.7" fill="#f7f2ed"/><circle cx="1396" cy="856" r="1.7" fill="#f7f2ed"/><circle cx="16" cy="916" r="1.7" fill="#f7f2ed"/><circle cx="76" cy="916" r="1.7" fill="#f7f2ed"/><circle cx="136" cy="916" r="1.7" fill="#f7f2ed"/><circle cx="196" cy="916" r="1.7" fill="#f7f2ed"/><circle cx="256" cy="916" r="1.7" fill="#f7f2ed"/><circle cx="316" cy="916" r="1.7" fill="#f7f2ed"/><circle cx="376" cy="916" r="1.7" fill="#f7f2ed"/><circle cx="436" cy="916" r="1.7" fill="#f7f2ed"/><circle cx="496" cy="916" r="1.7" fill="#f7f2ed"/><circle cx="556" cy="916" r="1.7" fill="#f7f2ed"/><circle cx="616" cy="916" r="1.7" fill="#f7f2ed"/><circle cx="676" cy="916" r="1.7" fill="#f7f2ed"/><circle cx="736" cy="916" r="1.7" fill="#f7f2ed"/><circle cx="796" cy="916" r="1.7" fill="#f7f2ed"/><circle cx="856" cy="916" r="1.7" fill="#f7f2ed"/><circle cx="916" cy="916" r="1.7" fill="#f7f2ed"/><circle cx="976" cy="916" r="1.7" fill="#f7f2ed"/><circle cx="1036" cy="916" r="1.7" fill="#f7f2ed"/><circle cx="1096" cy="916" r="1.7" fill="#f7f2ed"/><circle cx="1156" cy="916" r="1.7" fill="#f7f2ed"/><circle cx="1216" cy="916" r="1.7" fill="#f7f2ed"/><circle cx="1276" cy="916" r="1.7" fill="#f7f2ed"/><circle cx="1336" cy="916" r="1.7" fill="#f7f2ed"/><circle cx="1396" cy="916" r="1.7" fill="#f7f2ed"/><circle cx="16" cy="976" r="1.7" fill="#f7f2ed"/><circle cx="76" cy="976" r="1.7" fill="#f7f2ed"/><circle cx="136" cy="976" r="1.7" fill="#f7f2ed"/><circle cx="196" cy="976" r="1.7" fill="#f7f2ed"/><circle cx="256" cy="976" r="1.7" fill="#f7f2ed"/><circle cx="316" cy="976" r="1.7" fill="#f7f2ed"/><circle cx="376" cy="976" r="1.7" fill="#f7f2ed"/><circle cx="436" cy="976" r="1.7" fill="#f7f2ed"/><circle cx="496" cy="976" r="1.7" fill="#f7f2ed"/><circle cx="556" cy="976" r="1.7" fill="#f7f2ed"/><circle cx="616" cy="976" r="1.7" fill="#f7f2ed"/><circle cx="676" cy="976" r="1.7" fill="#f7f2ed"/><circle cx="736" cy="976" r="1.7" fill="#f7f2ed"/><circle cx="796" cy="976" r="1.7" fill="#f7f2ed"/><circle cx="856" cy="976" r="1.7" fill="#f7f2ed"/><circle cx="916" cy="976" r="1.7" fill="#f7f2ed"/><circle cx="976" cy="976" r="1.7" fill="#f7f2ed"/><circle cx="1036" cy="976" r="1.7" fill="#f7f2ed"/><circle cx="1096" cy="976" r="1.7" fill="#f7f2ed"/><circle cx="1156" cy="976" r="1.7" fill="#f7f2ed"/><circle cx="1216" cy="976" r="1.7" fill="#f7f2ed"/><circle cx="1276" cy="976" r="1.7" fill="#f7f2ed"/><circle cx="1336" cy="976" r="1.7" fill="#f7f2ed"/><circle cx="1396" cy="976" r="1.7" fill="#f7f2ed"/><text x="54" y="52" font-family="Arial, Helvetica, sans-serif" font-size="22" font-weight="700" fill="#4e4c4a" text-anchor="start" >Pocket SketchSteps</text><text x="54" y="94" font-family="Arial, Helvetica, sans-serif" font-size="42" font-weight="700" fill="#252a33" text-anchor="start" >Fuzzy Dust Bunny</text><text x="54" y="132" font-family="Arial, Helvetica, sans-serif" font-size="26" font-weight="400" fill="#62605d" text-anchor="start" >Linty Lops</text><rect x="1004" y="44" width="346" height="44" rx="16" fill="#CFC7BF" stroke="none" stroke-width="1" /><text x="1177.0" y="73" font-family="Arial, Helvetica, sans-serif" font-size="20" font-weight="700" fill="#1e1e1e" text-anchor="middle" >STEP 3 • Personality Details</text><rect x="70" y="182" width="910" height="740" rx="28" fill="#fffdf8" stroke="#d0cac6" stroke-width="3" filter="url(#shadow)"/><line x1="110" y1="214" x2="110" y2="888" stroke="#e1dddb" stroke-width="1" opacity="0.62" stroke-linecap="round" stroke-linejoin="round" /><line x1="150" y1="214" x2="150" y2="888" stroke="#e1dddb" stroke-width="1" opacity="0.62" stroke-linecap="round" stroke-linejoin="round" /><line x1="190" y1="214" x2="190" y2="888" stroke="#e1dddb" stroke-width="1" opacity="0.62" stroke-linecap="round" stroke-linejoin="round" /><line x1="230" y1="214" x2="230" y2="888" stroke="#e1dddb" stroke-width="1" opacity="0.62" stroke-linecap="round" stroke-linejoin="round" /><line x1="270" y1="214" x2="270" y2="888" stroke="#e1dddb" stroke-width="1" opacity="0.62" stroke-linecap="round" stroke-linejoin="round" /><line x1="310" y1="214" x2="310" y2="888" stroke="#e1dddb" stroke-width="1" opacity="0.62" stroke-linecap="round" stroke-linejoin="round" /><line x1="350" y1="214" x2="350" y2="888" stroke="#e1dddb" stroke-width="1" opacity="0.62" stroke-linecap="round" stroke-linejoin="round" /><line x1="390" y1="214" x2="390" y2="888" stroke="#e1dddb" stroke-width="1" opacity="0.62" stroke-linecap="round" stroke-linejoin="round" /><line x1="430" y1="214" x2="430" y2="888" stroke="#e1dddb" stroke-width="1" opacity="0.62" stroke-linecap="round" stroke-linejoin="round" /><line x1="470" y1="214" x2="470" y2="888" stroke="#e1dddb" stroke-width="1" opacity="0.62" stroke-linecap="round" stroke-linejoin="round" /><line x1="510" y1="214" x2="510" y2="888" stroke="#e1dddb" stroke-width="1" opacity="0.62" stroke-linecap="round" stroke-linejoin="round" /><line x1="550" y1="214" x2="550" y2="888" stroke="#e1dddb" stroke-width="1" opacity="0.62" stroke-linecap="round" stroke-linejoin="round" /><line x1="590" y1="214" x2="590" y2="888" stroke="#e1dddb" stroke-width="1" opacity="0.62" stroke-linecap="round" stroke-linejoin="round" /><line x1="630" y1="214" x2="630" y2="888" stroke="#e1dddb" stroke-width="1" opacity="0.62" stroke-linecap="round" stroke-linejoin="round" /><line x1="670" y1="214" x2="670" y2="888" stroke="#e1dddb" stroke-width="1" opacity="0.62" stroke-linecap="round" stroke-linejoin="round" /><line x1="710" y1="214" x2="710" y2="888" stroke="#e1dddb" stroke-width="1" opacity="0.62" stroke-linecap="round" stroke-linejoin="round" /><line x1="750" y1="214" x2="750" y2="888" stroke="#e1dddb" stroke-width="1" opacity="0.62" stroke-linecap="round" stroke-linejoin="round" /><line x1="790" y1="214" x2="790" y2="888" stroke="#e1dddb" stroke-width="1" opacity="0.62" stroke-linecap="round" stroke-linejoin="round" /><line x1="830" y1="214" x2="830" y2="888" stroke="#e1dddb" stroke-width="1" opacity="0.62" stroke-linecap="round" stroke-linejoin="round" /><line x1="870" y1="214" x2="870" y2="888" stroke="#e1dddb" stroke-width="1" opacity="0.62" stroke-linecap="round" stroke-linejoin="round" /><line x1="910" y1="214" x2="910" y2="888" stroke="#e1dddb" stroke-width="1" opacity="0.62" stroke-linecap="round" stroke-linejoin="round" /><line x1="102" y1="214" x2="948" y2="214" stroke="#e1dddb" stroke-width="1" opacity="0.62" stroke-linecap="round" stroke-linejoin="round" /><line x1="102" y1="254" x2="948" y2="254" stroke="#e1dddb" stroke-width="1" opacity="0.62" stroke-linecap="round" stroke-linejoin="round" /><line x1="102" y1="294" x2="948" y2="294" stroke="#e1dddb" stroke-width="1" opacity="0.62" stroke-linecap="round" stroke-linejoin="round" /><line x1="102" y1="334" x2="948" y2="334" stroke="#e1dddb" stroke-width="1" opacity="0.62" stroke-linecap="round" stroke-linejoin="round" /><line x1="102" y1="374" x2="948" y2="374" stroke="#e1dddb" stroke-width="1" opacity="0.62" stroke-linecap="round" stroke-linejoin="round" /><line x1="102" y1="414" x2="948" y2="414" stroke="#e1dddb" stroke-width="1" opacity="0.62" stroke-linecap="round" stroke-linejoin="round" /><line x1="102" y1="454" x2="948" y2="454" stroke="#e1dddb" stroke-width="1" opacity="0.62" stroke-linecap="round" stroke-linejoin="round" /><line x1="102" y1="494" x2="948" y2="494" stroke="#e1dddb" stroke-width="1" opacity="0.62" stroke-linecap="round" stroke-linejoin="round" /><line x1="102" y1="534" x2="948" y2="534" stroke="#e1dddb" stroke-width="1" opacity="0.62" stroke-linecap="round" stroke-linejoin="round" /><line x1="102" y1="574" x2="948" y2="574" stroke="#e1dddb" stroke-width="1" opacity="0.62" stroke-linecap="round" stroke-linejoin="round" /><line x1="102" y1="614" x2="948" y2="614" stroke="#e1dddb" stroke-width="1" opacity="0.62" stroke-linecap="round" stroke-linejoin="round" /><line x1="102" y1="654" x2="948" y2="654" stroke="#e1dddb" stroke-width="1" opacity="0.62" stroke-linecap="round" stroke-linejoin="round" /><line x1="102" y1="694" x2="948" y2="694" stroke="#e1dddb" stroke-width="1" opacity="0.62" stroke-linecap="round" stroke-linejoin="round" /><line x1="102" y1="734" x2="948" y2="734" stroke="#e1dddb" stroke-width="1" opacity="0.62" stroke-linecap="round" stroke-linejoin="round" /><line x1="102" y1="774" x2="948" y2="774" stroke="#e1dddb" stroke-width="1" opacity="0.62" stroke-linecap="round" stroke-linejoin="round" /><line x1="102" y1="814" x2="948" y2="814" stroke="#e1dddb" stroke-width="1" opacity="0.62" stroke-linecap="round" stroke-linejoin="round" /><line x1="102" y1="854" x2="948" y2="854" stroke="#e1dddb" stroke-width="1" opacity="0.62" stroke-linecap="round" stroke-linejoin="round" /><rect x="1010" y="182" width="320" height="740" rx="28" fill="#ffffff" stroke="#d8d4d1" stroke-width="3" filter="url(#shadow)"/><text x="1042" y="226" font-family="Arial, Helvetica, sans-serif" font-size="20" font-weight="700" fill="#5d5b58" text-anchor="start" >Layer</text><rect x="1042" y="244" width="240" height="42" rx="14" fill="#edeae7" stroke="none" stroke-width="1" /><text x="1060" y="272" font-family="Arial, Helvetica, sans-serif" font-size="20" font-weight="700" fill="#22303c" text-anchor="start" >Sketch</text><text x="1042" y="330" font-family="Arial, Helvetica, sans-serif" font-size="20" font-weight="700" fill="#5d5b58" text-anchor="start" >What to draw</text><text x="1042" y="364" font-family="Arial, Helvetica, sans-serif" font-size="22" font-weight="400" fill="#262626" text-anchor="start" >On the Sketch</text><text x="1042" y="392" font-family="Arial, Helvetica, sans-serif" font-size="22" font-weight="400" fill="#262626" text-anchor="start" >layer, add thread</text><text x="1042" y="420" font-family="Arial, Helvetica, sans-serif" font-size="22" font-weight="400" fill="#262626" text-anchor="start" >whiskers, cheek</text><text x="1042" y="448" font-family="Arial, Helvetica, sans-serif" font-size="22" font-weight="400" fill="#262626" text-anchor="start" >dots, small fuzz</text><text x="1042" y="476" font-family="Arial, Helvetica, sans-serif" font-size="22" font-weight="400" fill="#262626" text-anchor="start" >tufts, crumb</text><text x="1042" y="504" font-family="Arial, Helvetica, sans-serif" font-size="22" font-weight="400" fill="#262626" text-anchor="start" >shapes, and a tiny</text><text x="1042" y="532" font-family="Arial, Helvetica, sans-serif" font-size="22" font-weight="400" fill="#262626" text-anchor="start" >sparkle sneeze</text><text x="1042" y="560" font-family="Arial, Helvetica, sans-serif" font-size="22" font-weight="400" fill="#262626" text-anchor="start" >cloud.</text><text x="1042" y="616" font-family="Arial, Helvetica, sans-serif" font-size="20" font-weight="700" fill="#5d5b58" text-anchor="start" >Helpful hint</text><text x="1042" y="650" font-family="Arial, Helvetica, sans-serif" font-size="19" font-weight="400" fill="#454341" text-anchor="start" >Fuzz tufts can be</text><text x="1042" y="674" font-family="Arial, Helvetica, sans-serif" font-size="19" font-weight="400" fill="#454341" text-anchor="start" >short curved lines</text><text x="1042" y="698" font-family="Arial, Helvetica, sans-serif" font-size="19" font-weight="400" fill="#454341" text-anchor="start" >around the blob edge.</text><text x="1042" y="828" font-family="Arial, Helvetica, sans-serif" font-size="18" font-weight="700" fill="#676461" text-anchor="start" >SVG guide step</text><circle cx="1060" cy="858" r="14" fill="#F2B7C6" stroke="none" stroke-width="1" /><circle cx="1106" cy="858" r="14" fill="#F2B7C6" stroke="none" stroke-width="1" /><circle cx="1152" cy="858" r="14" fill="#F2B7C6" stroke="none" stroke-width="1" /><circle cx="1198" cy="858" r="14" fill="#f6f1eb" stroke="none" stroke-width="1" /><circle cx="1244" cy="858" r="14" fill="#f6f1eb" stroke="none" stroke-width="1" /><polygon points="656.0,500.0 659.4,522.5 641.0,541.1 618.0,554.5 608.2,572.6 602.1,597.3 581.9,613.5 551.3,612.7 524.0,608.8 500.0,615.2 472.9,622.8 446.6,617.3 425.9,602.7 405.4,590.2 383.0,578.6 368.5,560.7 364.8,539.4 358.1,520.0 344.0,500.0 340.6,477.5 359.0,458.9 382.0,445.5 391.8,427.4 397.9,402.7 418.1,386.5 448.7,387.3 476.0,391.2 500.0,384.8 527.1,377.2 553.4,382.7 574.1,397.3 594.6,409.8 617.0,421.4 631.5,439.3 635.2,460.6 641.9,480.0" stroke="#7fb8e8" stroke-width="5" fill="none" stroke-linecap="round" stroke-linejoin="round" /><ellipse cx="430" cy="360" rx="46" ry="112" fill="none" stroke="#7fb8e8" stroke-width="5" /><ellipse cx="560" cy="360" rx="46" ry="112" fill="none" stroke="#7fb8e8" stroke-width="5" /><ellipse cx="445" cy="620" rx="20" ry="12" fill="none" stroke="#7fb8e8" stroke-width="3" /><ellipse cx="555" cy="620" rx="20" ry="12" fill="none" stroke="#7fb8e8" stroke-width="3" /><circle cx="470" cy="520" r="7.0" fill="#403A36" stroke="none" stroke-width="1" /><circle cx="530" cy="520" r="7.0" fill="#403A36" stroke="none" stroke-width="1" /><line x1="458.0" y1="492.0" x2="480.0" y2="486.0" stroke="#403A36" stroke-width="4.0" stroke-linecap="round" stroke-linejoin="round" /><line x1="520.0" y1="486.0" x2="542.0" y2="492.0" stroke="#403A36" stroke-width="4.0" stroke-linecap="round" stroke-linejoin="round" /><circle cx="500" cy="545" r="5" fill="#403A36" stroke="none" stroke-width="1" /><path d="M 485.6 563 Q 500 571.1 514.4 563" stroke="#403A36" stroke-width="3.6" fill="none" stroke-linecap="round" stroke-linejoin="round" /><line x1="448" y1="548" x2="418" y2="538" stroke="#403A36" stroke-width="3" stroke-linecap="round" stroke-linejoin="round" /><line x1="448" y1="553" x2="417" y2="557" stroke="#403A36" stroke-width="3" stroke-linecap="round" stroke-linejoin="round" /><line x1="552" y1="548" x2="582" y2="538" stroke="#403A36" stroke-width="3" stroke-linecap="round" stroke-linejoin="round" /><line x1="552" y1="553" x2="583" y2="557" stroke="#403A36" stroke-width="3" stroke-linecap="round" stroke-linejoin="round" /><circle cx="458" cy="560" r="12" fill="none" stroke="#403A36" stroke-width="3" /><circle cx="542" cy="560" r="12" fill="none" stroke="#403A36" stroke-width="3" /><path d="M 352.77568135664546 435.0 q 8 -8 16 0" stroke="#403A36" stroke-width="2" fill="none" stroke-linecap="round" stroke-linejoin="round" /><path d="M 414.99999999999994 387.416697508023 q 8 -8 16 0" stroke="#403A36" stroke-width="2" fill="none" stroke-linecap="round" stroke-linejoin="round" /><path d="M 585.0 387.416697508023 q 8 -8 16 0" stroke="#403A36" stroke-width="2" fill="none" stroke-linecap="round" stroke-linejoin="round" /><path d="M 647.2243186433545 434.99999999999994 q 8 -8 16 0" stroke="#403A36" stroke-width="2" fill="none" stroke-linecap="round" stroke-linejoin="round" /><circle cx="660" cy="525" r="4" fill="none" stroke="#403A36" stroke-width="2" /><circle cx="690" cy="540" r="4" fill="none" stroke="#403A36" stroke-width="2" /><circle cx="715" cy="560" r="4" fill="none" stroke="#403A36" stroke-width="2" /><polygon points="787.0,470.0 787.6,473.4 786.6,476.7 784.1,479.6 780.5,481.9 776.3,483.4 772.1,484.5 768.1,485.4 764.2,486.4 760.0,487.3 755.5,487.7 750.9,487.4 746.6,486.1 743.1,484.0 740.4,481.4 738.2,478.7 736.3,476.0 734.4,473.1 733.0,470.0 732.4,466.6 733.4,463.3 735.9,460.4 739.5,458.1 743.7,456.6 747.9,455.5 751.9,454.6 755.8,453.6 760.0,452.7 764.5,452.3 769.1,452.6 773.4,453.9 776.9,456.0 779.6,458.6 781.8,461.3 783.7,464.0 785.6,466.9" stroke="#403A36" stroke-width="2" fill="none" stroke-linecap="round" stroke-linejoin="round" /><line x1="783.0" y1="445" x2="797.0" y2="445" stroke="#403A36" stroke-width="2.0" stroke-linecap="round" stroke-linejoin="round" /><line x1="790" y1="438.0" x2="790" y2="452.0" stroke="#403A36" stroke-width="2.0" stroke-linecap="round" stroke-linejoin="round" /><text x="112" y="872" font-family="Arial, Helvetica, sans-serif" font-size="32" font-weight="700" fill="#3d3733" text-anchor="start" >Personality Details</text><g data-polish="board-pins" opacity="0.42">
          <circle cx="112" cy="202" r="4" fill="#7fb8e8"/>
          <circle cx="130" cy="202" r="4" fill="#f2c477"/>
          <circle cx="148" cy="202" r="4" fill="#f1a7bd"/>
          <path d="M 830 900 L 950 900" stroke="#2f3440" stroke-width="2" stroke-linecap="round" opacity="0.18"/>
        </g></svg>