<svg xmlns="http://www.w3.org/2000/svg" role="img" aria-label="Pocket SketchSteps lesson step diagram" width="1400" height="1000" viewBox="0 0 1400 1000"><rect width="100%" height="100%" fill="#F3EEF8"/><rect width="100%" height="100%" fill="url(#ambientGlow)" opacity="0.55"/><rect width="100%" height="100%" fill="url(#focusGlow)" opacity="0.65"/><defs><filter id="shadow" x="-20%" y="-20%" width="140%" height="140%"><feDropShadow dx="0" dy="6" stdDeviation="11" flood-color="#1f2430" flood-opacity="0.10"/></filter><linearGradient id="ambientGlow" x1="0" y1="0" x2="1" y2="1">
      <stop offset="0%" stop-color="#ffffff" stop-opacity="0.42"/>
      <stop offset="52%" stop-color="#ffffff" stop-opacity="0.06"/>
      <stop offset="100%" stop-color="#f6dcc5" stop-opacity="0.18"/>
    </linearGradient>
    <radialGradient id="focusGlow" cx="38%" cy="40%" r="60%">
      <stop offset="0%" stop-color="#ffffff" stop-opacity="0.26"/>
      <stop offset="100%" stop-color="#ffffff" stop-opacity="0"/>
    </radialGradient>
    <filter id="softInk" x="-10%" y="-10%" width="120%" height="120%">
      <feDropShadow dx="0" dy="1" stdDeviation="0.35" flood-color="#1f2430" flood-opacity="0.14"/>
    </filter>
    <style><![CDATA[
      svg { shape-rendering: geometricPrecision; text-rendering: optimizeLegibility; }
      text { letter-spacing: .01em; }
      path, line, polyline, polygon, rect, ellipse, circle { vector-effect: non-scaling-stroke; }
    ]]></style></defs><circle cx="16" cy="16" r="1.7" fill="#f5f1f9"/><circle cx="76" cy="16" r="1.7" fill="#f5f1f9"/><circle cx="136" cy="16" r="1.7" fill="#f5f1f9"/><circle cx="196" cy="16" r="1.7" fill="#f5f1f9"/><circle cx="256" cy="16" r="1.7" fill="#f5f1f9"/><circle cx="316" cy="16" r="1.7" fill="#f5f1f9"/><circle cx="376" cy="16" r="1.7" fill="#f5f1f9"/><circle cx="436" cy="16" r="1.7" fill="#f5f1f9"/><circle cx="496" cy="16" r="1.7" fill="#f5f1f9"/><circle cx="556" cy="16" r="1.7" fill="#f5f1f9"/><circle cx="616" cy="16" r="1.7" fill="#f5f1f9"/><circle cx="676" cy="16" r="1.7" fill="#f5f1f9"/><circle cx="736" cy="16" r="1.7" fill="#f5f1f9"/><circle cx="796" cy="16" r="1.7" fill="#f5f1f9"/><circle cx="856" cy="16" r="1.7" fill="#f5f1f9"/><circle cx="916" cy="16" r="1.7" fill="#f5f1f9"/><circle cx="976" cy="16" r="1.7" fill="#f5f1f9"/><circle cx="1036" cy="16" r="1.7" fill="#f5f1f9"/><circle cx="1096" cy="16" r="1.7" fill="#f5f1f9"/><circle cx="1156" cy="16" r="1.7" fill="#f5f1f9"/><circle cx="1216" cy="16" r="1.7" fill="#f5f1f9"/><circle cx="1276" cy="16" r="1.7" fill="#f5f1f9"/><circle cx="1336" cy="16" r="1.7" fill="#f5f1f9"/><circle cx="1396" cy="16" r="1.7" fill="#f5f1f9"/><circle cx="16" cy="76" r="1.7" fill="#f5f1f9"/><circle cx="76" cy="76" r="1.7" fill="#f5f1f9"/><circle cx="136" cy="76" r="1.7" fill="#f5f1f9"/><circle cx="196" cy="76" r="1.7" fill="#f5f1f9"/><circle cx="256" cy="76" r="1.7" fill="#f5f1f9"/><circle cx="316" cy="76" r="1.7" fill="#f5f1f9"/><circle cx="376" cy="76" r="1.7" fill="#f5f1f9"/><circle cx="436" cy="76" r="1.7" fill="#f5f1f9"/><circle cx="496" cy="76" r="1.7" fill="#f5f1f9"/><circle cx="556" cy="76" r="1.7" fill="#f5f1f9"/><circle cx="616" cy="76" r="1.7" fill="#f5f1f9"/><circle cx="676" cy="76" r="1.7" fill="#f5f1f9"/><circle cx="736" cy="76" r="1.7" fill="#f5f1f9"/><circle cx="796" cy="76" r="1.7" fill="#f5f1f9"/><circle cx="856" cy="76" r="1.7" fill="#f5f1f9"/><circle cx="916" cy="76" r="1.7" fill="#f5f1f9"/><circle cx="976" cy="76" r="1.7" fill="#f5f1f9"/><circle cx="1036" cy="76" r="1.7" fill="#f5f1f9"/><circle cx="1096" cy="76" r="1.7" fill="#f5f1f9"/><circle cx="1156" cy="76" r="1.7" fill="#f5f1f9"/><circle cx="1216" cy="76" r="1.7" fill="#f5f1f9"/><circle cx="1276" cy="76" r="1.7" fill="#f5f1f9"/><circle cx="1336" cy="76" r="1.7" fill="#f5f1f9"/><circle cx="1396" cy="76" r="1.7" fill="#f5f1f9"/><circle cx="16" cy="136" r="1.7" fill="#f5f1f9"/><circle cx="76" cy="136" r="1.7" fill="#f5f1f9"/><circle cx="136" cy="136" r="1.7" fill="#f5f1f9"/><circle cx="196" cy="136" r="1.7" fill="#f5f1f9"/><circle cx="256" cy="136" r="1.7" fill="#f5f1f9"/><circle cx="316" cy="136" r="1.7" fill="#f5f1f9"/><circle cx="376" cy="136" r="1.7" fill="#f5f1f9"/><circle cx="436" cy="136" r="1.7" fill="#f5f1f9"/><circle cx="496" cy="136" r="1.7" fill="#f5f1f9"/><circle cx="556" cy="136" r="1.7" fill="#f5f1f9"/><circle cx="616" cy="136" r="1.7" fill="#f5f1f9"/><circle cx="676" cy="136" r="1.7" fill="#f5f1f9"/><circle cx="736" cy="136" r="1.7" fill="#f5f1f9"/><circle cx="796" cy="136" r="1.7" fill="#f5f1f9"/><circle cx="856" cy="136" r="1.7" fill="#f5f1f9"/><circle cx="916" cy="136" r="1.7" fill="#f5f1f9"/><circle cx="976" cy="136" r="1.7" fill="#f5f1f9"/><circle cx="1036" cy="136" r="1.7" fill="#f5f1f9"/><circle cx="1096" cy="136" r="1.7" fill="#f5f1f9"/><circle cx="1156" cy="136" r="1.7" fill="#f5f1f9"/><circle cx="1216" cy="136" r="1.7" fill="#f5f1f9"/><circle cx="1276" cy="136" r="1.7" fill="#f5f1f9"/><circle cx="1336" cy="136" r="1.7" fill="#f5f1f9"/><circle cx="1396" cy="136" r="1.7" fill="#f5f1f9"/><circle cx="16" cy="196" r="1.7" fill="#f5f1f9"/><circle cx="76" cy="196" r="1.7" fill="#f5f1f9"/><circle cx="136" cy="196" r="1.7" fill="#f5f1f9"/><circle cx="196" cy="196" r="1.7" fill="#f5f1f9"/><circle cx="256" cy="196" r="1.7" fill="#f5f1f9"/><circle cx="316" cy="196" r="1.7" fill="#f5f1f9"/><circle cx="376" cy="196" r="1.7" fill="#f5f1f9"/><circle cx="436" cy="196" r="1.7" fill="#f5f1f9"/><circle cx="496" cy="196" r="1.7" fill="#f5f1f9"/><circle cx="556" cy="196" r="1.7" fill="#f5f1f9"/><circle cx="616" cy="196" r="1.7" fill="#f5f1f9"/><circle cx="676" cy="196" r="1.7" fill="#f5f1f9"/><circle cx="736" cy="196" r="1.7" fill="#f5f1f9"/><circle cx="796" cy="196" r="1.7" fill="#f5f1f9"/><circle cx="856" cy="196" r="1.7" fill="#f5f1f9"/><circle cx="916" cy="196" r="1.7" fill="#f5f1f9"/><circle cx="976" cy="196" r="1.7" fill="#f5f1f9"/><circle cx="1036" cy="196" r="1.7" fill="#f5f1f9"/><circle cx="1096" cy="196" r="1.7" fill="#f5f1f9"/><circle cx="1156" cy="196" r="1.7" fill="#f5f1f9"/><circle cx="1216" cy="196" r="1.7" fill="#f5f1f9"/><circle cx="1276" cy="196" r="1.7" fill="#f5f1f9"/><circle cx="1336" cy="196" r="1.7" fill="#f5f1f9"/><circle cx="1396" cy="196" r="1.7" fill="#f5f1f9"/><circle cx="16" cy="256" r="1.7" fill="#f5f1f9"/><circle cx="76" cy="256" r="1.7" fill="#f5f1f9"/><circle cx="136" cy="256" r="1.7" fill="#f5f1f9"/><circle cx="196" cy="256" r="1.7" fill="#f5f1f9"/><circle cx="256" cy="256" r="1.7" fill="#f5f1f9"/><circle cx="316" cy="256" r="1.7" fill="#f5f1f9"/><circle cx="376" cy="256" r="1.7" fill="#f5f1f9"/><circle cx="436" cy="256" r="1.7" fill="#f5f1f9"/><circle cx="496" cy="256" r="1.7" fill="#f5f1f9"/><circle cx="556" cy="256" r="1.7" fill="#f5f1f9"/><circle cx="616" cy="256" r="1.7" fill="#f5f1f9"/><circle cx="676" cy="256" r="1.7" fill="#f5f1f9"/><circle cx="736" cy="256" r="1.7" fill="#f5f1f9"/><circle cx="796" cy="256" r="1.7" fill="#f5f1f9"/><circle cx="856" cy="256" r="1.7" fill="#f5f1f9"/><circle cx="916" cy="256" r="1.7" fill="#f5f1f9"/><circle cx="976" cy="256" r="1.7" fill="#f5f1f9"/><circle cx="1036" cy="256" r="1.7" fill="#f5f1f9"/><circle cx="1096" cy="256" r="1.7" fill="#f5f1f9"/><circle cx="1156" cy="256" r="1.7" fill="#f5f1f9"/><circle cx="1216" cy="256" r="1.7" fill="#f5f1f9"/><circle cx="1276" cy="256" r="1.7" fill="#f5f1f9"/><circle cx="1336" cy="256" r="1.7" fill="#f5f1f9"/><circle cx="1396" cy="256" r="1.7" fill="#f5f1f9"/><circle cx="16" cy="316" r="1.7" fill="#f5f1f9"/><circle cx="76" cy="316" r="1.7" fill="#f5f1f9"/><circle cx="136" cy="316" r="1.7" fill="#f5f1f9"/><circle cx="196" cy="316" r="1.7" fill="#f5f1f9"/><circle cx="256" cy="316" r="1.7" fill="#f5f1f9"/><circle cx="316" cy="316" r="1.7" fill="#f5f1f9"/><circle cx="376" cy="316" r="1.7" fill="#f5f1f9"/><circle cx="436" cy="316" r="1.7" fill="#f5f1f9"/><circle cx="496" cy="316" r="1.7" fill="#f5f1f9"/><circle cx="556" cy="316" r="1.7" fill="#f5f1f9"/><circle cx="616" cy="316" r="1.7" fill="#f5f1f9"/><circle cx="676" cy="316" r="1.7" fill="#f5f1f9"/><circle cx="736" cy="316" r="1.7" fill="#f5f1f9"/><circle cx="796" cy="316" r="1.7" fill="#f5f1f9"/><circle cx="856" cy="316" r="1.7" fill="#f5f1f9"/><circle cx="916" cy="316" r="1.7" fill="#f5f1f9"/><circle cx="976" cy="316" r="1.7" fill="#f5f1f9"/><circle cx="1036" cy="316" r="1.7" fill="#f5f1f9"/><circle cx="1096" cy="316" r="1.7" fill="#f5f1f9"/><circle cx="1156" cy="316" r="1.7" fill="#f5f1f9"/><circle cx="1216" cy="316" r="1.7" fill="#f5f1f9"/><circle cx="1276" cy="316" r="1.7" fill="#f5f1f9"/><circle cx="1336" cy="316" r="1.7" fill="#f5f1f9"/><circle cx="1396" cy="316" r="1.7" fill="#f5f1f9"/><circle cx="16" cy="376" r="1.7" fill="#f5f1f9"/><circle cx="76" cy="376" r="1.7" fill="#f5f1f9"/><circle cx="136" cy="376" r="1.7" fill="#f5f1f9"/><circle cx="196" cy="376" r="1.7" fill="#f5f1f9"/><circle cx="256" cy="376" r="1.7" fill="#f5f1f9"/><circle cx="316" cy="376" r="1.7" fill="#f5f1f9"/><circle cx="376" cy="376" r="1.7" fill="#f5f1f9"/><circle cx="436" cy="376" r="1.7" fill="#f5f1f9"/><circle cx="496" cy="376" r="1.7" fill="#f5f1f9"/><circle cx="556" cy="376" r="1.7" fill="#f5f1f9"/><circle cx="616" cy="376" r="1.7" fill="#f5f1f9"/><circle cx="676" cy="376" r="1.7" fill="#f5f1f9"/><circle cx="736" cy="376" r="1.7" fill="#f5f1f9"/><circle cx="796" cy="376" r="1.7" fill="#f5f1f9"/><circle cx="856" cy="376" r="1.7" fill="#f5f1f9"/><circle cx="916" cy="376" r="1.7" fill="#f5f1f9"/><circle cx="976" cy="376" r="1.7" fill="#f5f1f9"/><circle cx="1036" cy="376" r="1.7" fill="#f5f1f9"/><circle cx="1096" cy="376" r="1.7" fill="#f5f1f9"/><circle cx="1156" cy="376" r="1.7" fill="#f5f1f9"/><circle cx="1216" cy="376" r="1.7" fill="#f5f1f9"/><circle cx="1276" cy="376" r="1.7" fill="#f5f1f9"/><circle cx="1336" cy="376" r="1.7" fill="#f5f1f9"/><circle cx="1396" cy="376" r="1.7" fill="#f5f1f9"/><circle cx="16" cy="436" r="1.7" fill="#f5f1f9"/><circle cx="76" cy="436" r="1.7" fill="#f5f1f9"/><circle cx="136" cy="436" r="1.7" fill="#f5f1f9"/><circle cx="196" cy="436" r="1.7" fill="#f5f1f9"/><circle cx="256" cy="436" r="1.7" fill="#f5f1f9"/><circle cx="316" cy="436" r="1.7" fill="#f5f1f9"/><circle cx="376" cy="436" r="1.7" fill="#f5f1f9"/><circle cx="436" cy="436" r="1.7" fill="#f5f1f9"/><circle cx="496" cy="436" r="1.7" fill="#f5f1f9"/><circle cx="556" cy="436" r="1.7" fill="#f5f1f9"/><circle cx="616" cy="436" r="1.7" fill="#f5f1f9"/><circle cx="676" cy="436" r="1.7" fill="#f5f1f9"/><circle cx="736" cy="436" r="1.7" fill="#f5f1f9"/><circle cx="796" cy="436" r="1.7" fill="#f5f1f9"/><circle cx="856" cy="436" r="1.7" fill="#f5f1f9"/><circle cx="916" cy="436" r="1.7" fill="#f5f1f9"/><circle cx="976" cy="436" r="1.7" fill="#f5f1f9"/><circle cx="1036" cy="436" r="1.7" fill="#f5f1f9"/><circle cx="1096" cy="436" r="1.7" fill="#f5f1f9"/><circle cx="1156" cy="436" r="1.7" fill="#f5f1f9"/><circle cx="1216" cy="436" r="1.7" fill="#f5f1f9"/><circle cx="1276" cy="436" r="1.7" fill="#f5f1f9"/><circle cx="1336" cy="436" r="1.7" fill="#f5f1f9"/><circle cx="1396" cy="436" r="1.7" fill="#f5f1f9"/><circle cx="16" cy="496" r="1.7" fill="#f5f1f9"/><circle cx="76" cy="496" r="1.7" fill="#f5f1f9"/><circle cx="136" cy="496" r="1.7" fill="#f5f1f9"/><circle cx="196" cy="496" r="1.7" fill="#f5f1f9"/><circle cx="256" cy="496" r="1.7" fill="#f5f1f9"/><circle cx="316" cy="496" r="1.7" fill="#f5f1f9"/><circle cx="376" cy="496" r="1.7" fill="#f5f1f9"/><circle cx="436" cy="496" r="1.7" fill="#f5f1f9"/><circle cx="496" cy="496" r="1.7" fill="#f5f1f9"/><circle cx="556" cy="496" r="1.7" fill="#f5f1f9"/><circle cx="616" cy="496" r="1.7" fill="#f5f1f9"/><circle cx="676" cy="496" r="1.7" fill="#f5f1f9"/><circle cx="736" cy="496" r="1.7" fill="#f5f1f9"/><circle cx="796" cy="496" r="1.7" fill="#f5f1f9"/><circle cx="856" cy="496" r="1.7" fill="#f5f1f9"/><circle cx="916" cy="496" r="1.7" fill="#f5f1f9"/><circle cx="976" cy="496" r="1.7" fill="#f5f1f9"/><circle cx="1036" cy="496" r="1.7" fill="#f5f1f9"/><circle cx="1096" cy="496" r="1.7" fill="#f5f1f9"/><circle cx="1156" cy="496" r="1.7" fill="#f5f1f9"/><circle cx="1216" cy="496" r="1.7" fill="#f5f1f9"/><circle cx="1276" cy="496" r="1.7" fill="#f5f1f9"/><circle cx="1336" cy="496" r="1.7" fill="#f5f1f9"/><circle cx="1396" cy="496" r="1.7" fill="#f5f1f9"/><circle cx="16" cy="556" r="1.7" fill="#f5f1f9"/><circle cx="76" cy="556" r="1.7" fill="#f5f1f9"/><circle cx="136" cy="556" r="1.7" fill="#f5f1f9"/><circle cx="196" cy="556" r="1.7" fill="#f5f1f9"/><circle cx="256" cy="556" r="1.7" fill="#f5f1f9"/><circle cx="316" cy="556" r="1.7" fill="#f5f1f9"/><circle cx="376" cy="556" r="1.7" fill="#f5f1f9"/><circle cx="436" cy="556" r="1.7" fill="#f5f1f9"/><circle cx="496" cy="556" r="1.7" fill="#f5f1f9"/><circle cx="556" cy="556" r="1.7" fill="#f5f1f9"/><circle cx="616" cy="556" r="1.7" fill="#f5f1f9"/><circle cx="676" cy="556" r="1.7" fill="#f5f1f9"/><circle cx="736" cy="556" r="1.7" fill="#f5f1f9"/><circle cx="796" cy="556" r="1.7" fill="#f5f1f9"/><circle cx="856" cy="556" r="1.7" fill="#f5f1f9"/><circle cx="916" cy="556" r="1.7" fill="#f5f1f9"/><circle cx="976" cy="556" r="1.7" fill="#f5f1f9"/><circle cx="1036" cy="556" r="1.7" fill="#f5f1f9"/><circle cx="1096" cy="556" r="1.7" fill="#f5f1f9"/><circle cx="1156" cy="556" r="1.7" fill="#f5f1f9"/><circle cx="1216" cy="556" r="1.7" fill="#f5f1f9"/><circle cx="1276" cy="556" r="1.7" fill="#f5f1f9"/><circle cx="1336" cy="556" r="1.7" fill="#f5f1f9"/><circle cx="1396" cy="556" r="1.7" fill="#f5f1f9"/><circle cx="16" cy="616" r="1.7" fill="#f5f1f9"/><circle cx="76" cy="616" r="1.7" fill="#f5f1f9"/><circle cx="136" cy="616" r="1.7" fill="#f5f1f9"/><circle cx="196" cy="616" r="1.7" fill="#f5f1f9"/><circle cx="256" cy="616" r="1.7" fill="#f5f1f9"/><circle cx="316" cy="616" r="1.7" fill="#f5f1f9"/><circle cx="376" cy="616" r="1.7" fill="#f5f1f9"/><circle cx="436" cy="616" r="1.7" fill="#f5f1f9"/><circle cx="496" cy="616" r="1.7" fill="#f5f1f9"/><circle cx="556" cy="616" r="1.7" fill="#f5f1f9"/><circle cx="616" cy="616" r="1.7" fill="#f5f1f9"/><circle cx="676" cy="616" r="1.7" fill="#f5f1f9"/><circle cx="736" cy="616" r="1.7" fill="#f5f1f9"/><circle cx="796" cy="616" r="1.7" fill="#f5f1f9"/><circle cx="856" cy="616" r="1.7" fill="#f5f1f9"/><circle cx="916" cy="616" r="1.7" fill="#f5f1f9"/><circle cx="976" cy="616" r="1.7" fill="#f5f1f9"/><circle cx="1036" cy="616" r="1.7" fill="#f5f1f9"/><circle cx="1096" cy="616" r="1.7" fill="#f5f1f9"/><circle cx="1156" cy="616" r="1.7" fill="#f5f1f9"/><circle cx="1216" cy="616" r="1.7" fill="#f5f1f9"/><circle cx="1276" cy="616" r="1.7" fill="#f5f1f9"/><circle cx="1336" cy="616" r="1.7" fill="#f5f1f9"/><circle cx="1396" cy="616" r="1.7" fill="#f5f1f9"/><circle cx="16" cy="676" r="1.7" fill="#f5f1f9"/><circle cx="76" cy="676" r="1.7" fill="#f5f1f9"/><circle cx="136" cy="676" r="1.7" fill="#f5f1f9"/><circle cx="196" cy="676" r="1.7" fill="#f5f1f9"/><circle cx="256" cy="676" r="1.7" fill="#f5f1f9"/><circle cx="316" cy="676" r="1.7" fill="#f5f1f9"/><circle cx="376" cy="676" r="1.7" fill="#f5f1f9"/><circle cx="436" cy="676" r="1.7" fill="#f5f1f9"/><circle cx="496" cy="676" r="1.7" fill="#f5f1f9"/><circle cx="556" cy="676" r="1.7" fill="#f5f1f9"/><circle cx="616" cy="676" r="1.7" fill="#f5f1f9"/><circle cx="676" cy="676" r="1.7" fill="#f5f1f9"/><circle cx="736" cy="676" r="1.7" fill="#f5f1f9"/><circle cx="796" cy="676" r="1.7" fill="#f5f1f9"/><circle cx="856" cy="676" r="1.7" fill="#f5f1f9"/><circle cx="916" cy="676" r="1.7" fill="#f5f1f9"/><circle cx="976" cy="676" r="1.7" fill="#f5f1f9"/><circle cx="1036" cy="676" r="1.7" fill="#f5f1f9"/><circle cx="1096" cy="676" r="1.7" fill="#f5f1f9"/><circle cx="1156" cy="676" r="1.7" fill="#f5f1f9"/><circle cx="1216" cy="676" r="1.7" fill="#f5f1f9"/><circle cx="1276" cy="676" r="1.7" fill="#f5f1f9"/><circle cx="1336" cy="676" r="1.7" fill="#f5f1f9"/><circle cx="1396" cy="676" r="1.7" fill="#f5f1f9"/><circle cx="16" cy="736" r="1.7" fill="#f5f1f9"/><circle cx="76" cy="736" r="1.7" fill="#f5f1f9"/><circle cx="136" cy="736" r="1.7" fill="#f5f1f9"/><circle cx="196" cy="736" r="1.7" fill="#f5f1f9"/><circle cx="256" cy="736" r="1.7" fill="#f5f1f9"/><circle cx="316" cy="736" r="1.7" fill="#f5f1f9"/><circle cx="376" cy="736" r="1.7" fill="#f5f1f9"/><circle cx="436" cy="736" r="1.7" fill="#f5f1f9"/><circle cx="496" cy="736" r="1.7" fill="#f5f1f9"/><circle cx="556" cy="736" r="1.7" fill="#f5f1f9"/><circle cx="616" cy="736" r="1.7" fill="#f5f1f9"/><circle cx="676" cy="736" r="1.7" fill="#f5f1f9"/><circle cx="736" cy="736" r="1.7" fill="#f5f1f9"/><circle cx="796" cy="736" r="1.7" fill="#f5f1f9"/><circle cx="856" cy="736" r="1.7" fill="#f5f1f9"/><circle cx="916" cy="736" r="1.7" fill="#f5f1f9"/><circle cx="976" cy="736" r="1.7" fill="#f5f1f9"/><circle cx="1036" cy="736" r="1.7" fill="#f5f1f9"/><circle cx="1096" cy="736" r="1.7" fill="#f5f1f9"/><circle cx="1156" cy="736" r="1.7" fill="#f5f1f9"/><circle cx="1216" cy="736" r="1.7" fill="#f5f1f9"/><circle cx="1276" cy="736" r="1.7" fill="#f5f1f9"/><circle cx="1336" cy="736" r="1.7" fill="#f5f1f9"/><circle cx="1396" cy="736" r="1.7" fill="#f5f1f9"/><circle cx="16" cy="796" r="1.7" fill="#f5f1f9"/><circle cx="76" cy="796" r="1.7" fill="#f5f1f9"/><circle cx="136" cy="796" r="1.7" fill="#f5f1f9"/><circle cx="196" cy="796" r="1.7" fill="#f5f1f9"/><circle cx="256" cy="796" r="1.7" fill="#f5f1f9"/><circle cx="316" cy="796" r="1.7" fill="#f5f1f9"/><circle cx="376" cy="796" r="1.7" fill="#f5f1f9"/><circle cx="436" cy="796" r="1.7" fill="#f5f1f9"/><circle cx="496" cy="796" r="1.7" fill="#f5f1f9"/><circle cx="556" cy="796" r="1.7" fill="#f5f1f9"/><circle cx="616" cy="796" r="1.7" fill="#f5f1f9"/><circle cx="676" cy="796" r="1.7" fill="#f5f1f9"/><circle cx="736" cy="796" r="1.7" fill="#f5f1f9"/><circle cx="796" cy="796" r="1.7" fill="#f5f1f9"/><circle cx="856" cy="796" r="1.7" fill="#f5f1f9"/><circle cx="916" cy="796" r="1.7" fill="#f5f1f9"/><circle cx="976" cy="796" r="1.7" fill="#f5f1f9"/><circle cx="1036" cy="796" r="1.7" fill="#f5f1f9"/><circle cx="1096" cy="796" r="1.7" fill="#f5f1f9"/><circle cx="1156" cy="796" r="1.7" fill="#f5f1f9"/><circle cx="1216" cy="796" r="1.7" fill="#f5f1f9"/><circle cx="1276" cy="796" r="1.7" fill="#f5f1f9"/><circle cx="1336" cy="796" r="1.7" fill="#f5f1f9"/><circle cx="1396" cy="796" r="1.7" fill="#f5f1f9"/><circle cx="16" cy="856" r="1.7" fill="#f5f1f9"/><circle cx="76" cy="856" r="1.7" fill="#f5f1f9"/><circle cx="136" cy="856" r="1.7" fill="#f5f1f9"/><circle cx="196" cy="856" r="1.7" fill="#f5f1f9"/><circle cx="256" cy="856" r="1.7" fill="#f5f1f9"/><circle cx="316" cy="856" r="1.7" fill="#f5f1f9"/><circle cx="376" cy="856" r="1.7" fill="#f5f1f9"/><circle cx="436" cy="856" r="1.7" fill="#f5f1f9"/><circle cx="496" cy="856" r="1.7" fill="#f5f1f9"/><circle cx="556" cy="856" r="1.7" fill="#f5f1f9"/><circle cx="616" cy="856" r="1.7" fill="#f5f1f9"/><circle cx="676" cy="856" r="1.7" fill="#f5f1f9"/><circle cx="736" cy="856" r="1.7" fill="#f5f1f9"/><circle cx="796" cy="856" r="1.7" fill="#f5f1f9"/><circle cx="856" cy="856" r="1.7" fill="#f5f1f9"/><circle cx="916" cy="856" r="1.7" fill="#f5f1f9"/><circle cx="976" cy="856" r="1.7" fill="#f5f1f9"/><circle cx="1036" cy="856" r="1.7" fill="#f5f1f9"/><circle cx="1096" cy="856" r="1.7" fill="#f5f1f9"/><circle cx="1156" cy="856" r="1.7" fill="#f5f1f9"/><circle cx="1216" cy="856" r="1.7" fill="#f5f1f9"/><circle cx="1276" cy="856" r="1.7" fill="#f5f1f9"/><circle cx="1336" cy="856" r="1.7" fill="#f5f1f9"/><circle cx="1396" cy="856" r="1.7" fill="#f5f1f9"/><circle cx="16" cy="916" r="1.7" fill="#f5f1f9"/><circle cx="76" cy="916" r="1.7" fill="#f5f1f9"/><circle cx="136" cy="916" r="1.7" fill="#f5f1f9"/><circle cx="196" cy="916" r="1.7" fill="#f5f1f9"/><circle cx="256" cy="916" r="1.7" fill="#f5f1f9"/><circle cx="316" cy="916" r="1.7" fill="#f5f1f9"/><circle cx="376" cy="916" r="1.7" fill="#f5f1f9"/><circle cx="436" cy="916" r="1.7" fill="#f5f1f9"/><circle cx="496" cy="916" r="1.7" fill="#f5f1f9"/><circle cx="556" cy="916" r="1.7" fill="#f5f1f9"/><circle cx="616" cy="916" r="1.7" fill="#f5f1f9"/><circle cx="676" cy="916" r="1.7" fill="#f5f1f9"/><circle cx="736" cy="916" r="1.7" fill="#f5f1f9"/><circle cx="796" cy="916" r="1.7" fill="#f5f1f9"/><circle cx="856" cy="916" r="1.7" fill="#f5f1f9"/><circle cx="916" cy="916" r="1.7" fill="#f5f1f9"/><circle cx="976" cy="916" r="1.7" fill="#f5f1f9"/><circle cx="1036" cy="916" r="1.7" fill="#f5f1f9"/><circle cx="1096" cy="916" r="1.7" fill="#f5f1f9"/><circle cx="1156" cy="916" r="1.7" fill="#f5f1f9"/><circle cx="1216" cy="916" r="1.7" fill="#f5f1f9"/><circle cx="1276" cy="916" r="1.7" fill="#f5f1f9"/><circle cx="1336" cy="916" r="1.7" fill="#f5f1f9"/><circle cx="1396" cy="916" r="1.7" fill="#f5f1f9"/><circle cx="16" cy="976" r="1.7" fill="#f5f1f9"/><circle cx="76" cy="976" r="1.7" fill="#f5f1f9"/><circle cx="136" cy="976" r="1.7" fill="#f5f1f9"/><circle cx="196" cy="976" r="1.7" fill="#f5f1f9"/><circle cx="256" cy="976" r="1.7" fill="#f5f1f9"/><circle cx="316" cy="976" r="1.7" fill="#f5f1f9"/><circle cx="376" cy="976" r="1.7" fill="#f5f1f9"/><circle cx="436" cy="976" r="1.7" fill="#f5f1f9"/><circle cx="496" cy="976" r="1.7" fill="#f5f1f9"/><circle cx="556" cy="976" r="1.7" fill="#f5f1f9"/><circle cx="616" cy="976" r="1.7" fill="#f5f1f9"/><circle cx="676" cy="976" r="1.7" fill="#f5f1f9"/><circle cx="736" cy="976" r="1.7" fill="#f5f1f9"/><circle cx="796" cy="976" r="1.7" fill="#f5f1f9"/><circle cx="856" cy="976" r="1.7" fill="#f5f1f9"/><circle cx="916" cy="976" r="1.7" fill="#f5f1f9"/><circle cx="976" cy="976" r="1.7" fill="#f5f1f9"/><circle cx="1036" cy="976" r="1.7" fill="#f5f1f9"/><circle cx="1096" cy="976" r="1.7" fill="#f5f1f9"/><circle cx="1156" cy="976" r="1.7" fill="#f5f1f9"/><circle cx="1216" cy="976" r="1.7" fill="#f5f1f9"/><circle cx="1276" cy="976" r="1.7" fill="#f5f1f9"/><circle cx="1336" cy="976" r="1.7" fill="#f5f1f9"/><circle cx="1396" cy="976" r="1.7" fill="#f5f1f9"/><text x="54" y="52" font-family="Arial, Helvetica, sans-serif" font-size="22" font-weight="700" fill="#4e4c4f" text-anchor="start">Pocket SketchSteps</text><text x="54" y="94" font-family="Arial, Helvetica, sans-serif" font-size="42" font-weight="700" fill="#252a33" text-anchor="start">Jelly Blob Friend</text><text x="54" y="132" font-family="Arial, Helvetica, sans-serif" font-size="26" font-weight="400" fill="#615f63" text-anchor="start">Gloopy Junebug</text><rect x="1004" y="44" width="346" height="44" rx="16" fill="#B8E8E1" stroke="none" stroke-width="1" /><text x="1177.0" y="73" font-family="Arial, Helvetica, sans-serif" font-size="20" font-weight="700" fill="#1e1e1e" text-anchor="middle">STEP 3 • Personality Details</text><rect x="70" y="182" width="910" height="740" rx="28" fill="#fffdf8" stroke="#bae0dc" stroke-width="3" filter="url(#shadow)"/><line x1="110" y1="214" x2="110" y2="888" stroke="#d3ebe9" stroke-width="1" opacity="0.62" stroke-linecap="round" stroke-linejoin="round" /><line x1="150" y1="214" x2="150" y2="888" stroke="#d3ebe9" stroke-width="1" opacity="0.62" stroke-linecap="round" stroke-linejoin="round" /><line x1="190" y1="214" x2="190" y2="888" stroke="#d3ebe9" stroke-width="1" opacity="0.62" stroke-linecap="round" stroke-linejoin="round" /><line x1="230" y1="214" x2="230" y2="888" stroke="#d3ebe9" stroke-width="1" opacity="0.62" stroke-linecap="round" stroke-linejoin="round" /><line x1="270" y1="214" x2="270" y2="888" stroke="#d3ebe9" stroke-width="1" opacity="0.62" stroke-linecap="round" stroke-linejoin="round" /><line x1="310" y1="214" x2="310" y2="888" stroke="#d3ebe9" stroke-width="1" opacity="0.62" stroke-linecap="round" stroke-linejoin="round" /><line x1="350" y1="214" x2="350" y2="888" stroke="#d3ebe9" stroke-width="1" opacity="0.62" stroke-linecap="round" stroke-linejoin="round" /><line x1="390" y1="214" x2="390" y2="888" stroke="#d3ebe9" stroke-width="1" opacity="0.62" stroke-linecap="round" stroke-linejoin="round" /><line x1="430" y1="214" x2="430" y2="888" stroke="#d3ebe9" stroke-width="1" opacity="0.62" stroke-linecap="round" stroke-linejoin="round" /><line x1="470" y1="214" x2="470" y2="888" stroke="#d3ebe9" stroke-width="1" opacity="0.62" stroke-linecap="round" stroke-linejoin="round" /><line x1="510" y1="214" x2="510" y2="888" stroke="#d3ebe9" stroke-width="1" opacity="0.62" stroke-linecap="round" stroke-linejoin="round" /><line x1="550" y1="214" x2="550" y2="888" stroke="#d3ebe9" stroke-width="1" opacity="0.62" stroke-linecap="round" stroke-linejoin="round" /><line x1="590" y1="214" x2="590" y2="888" stroke="#d3ebe9" stroke-width="1" opacity="0.62" stroke-linecap="round" stroke-linejoin="round" /><line x1="630" y1="214" x2="630" y2="888" stroke="#d3ebe9" stroke-width="1" opacity="0.62" stroke-linecap="round" stroke-linejoin="round" /><line x1="670" y1="214" x2="670" y2="888" stroke="#d3ebe9" stroke-width="1" opacity="0.62" stroke-linecap="round" stroke-linejoin="round" /><line x1="710" y1="214" x2="710" y2="888" stroke="#d3ebe9" stroke-width="1" opacity="0.62" stroke-linecap="round" stroke-linejoin="round" /><line x1="750" y1="214" x2="750" y2="888" stroke="#d3ebe9" stroke-width="1" opacity="0.62" stroke-linecap="round" stroke-linejoin="round" /><line x1="790" y1="214" x2="790" y2="888" stroke="#d3ebe9" stroke-width="1" opacity="0.62" stroke-linecap="round" stroke-linejoin="round" /><line x1="830" y1="214" x2="830" y2="888" stroke="#d3ebe9" stroke-width="1" opacity="0.62" stroke-linecap="round" stroke-linejoin="round" /><line x1="870" y1="214" x2="870" y2="888" stroke="#d3ebe9" stroke-width="1" opacity="0.62" stroke-linecap="round" stroke-linejoin="round" /><line x1="910" y1="214" x2="910" y2="888" stroke="#d3ebe9" stroke-width="1" opacity="0.62" stroke-linecap="round" stroke-linejoin="round" /><line x1="102" y1="214" x2="948" y2="214" stroke="#d3ebe9" stroke-width="1" opacity="0.62" stroke-linecap="round" stroke-linejoin="round" /><line x1="102" y1="254" x2="948" y2="254" stroke="#d3ebe9" stroke-width="1" opacity="0.62" stroke-linecap="round" stroke-linejoin="round" /><line x1="102" y1="294" x2="948" y2="294" stroke="#d3ebe9" stroke-width="1" opacity="0.62" stroke-linecap="round" stroke-linejoin="round" /><line x1="102" y1="334" x2="948" y2="334" stroke="#d3ebe9" stroke-width="1" opacity="0.62" stroke-linecap="round" stroke-linejoin="round" /><line x1="102" y1="374" x2="948" y2="374" stroke="#d3ebe9" stroke-width="1" opacity="0.62" stroke-linecap="round" stroke-linejoin="round" /><line x1="102" y1="414" x2="948" y2="414" stroke="#d3ebe9" stroke-width="1" opacity="0.62" stroke-linecap="round" stroke-linejoin="round" /><line x1="102" y1="454" x2="948" y2="454" stroke="#d3ebe9" stroke-width="1" opacity="0.62" stroke-linecap="round" stroke-linejoin="round" /><line x1="102" y1="494" x2="948" y2="494" stroke="#d3ebe9" stroke-width="1" opacity="0.62" stroke-linecap="round" stroke-linejoin="round" /><line x1="102" y1="534" x2="948" y2="534" stroke="#d3ebe9" stroke-width="1" opacity="0.62" stroke-linecap="round" stroke-linejoin="round" /><line x1="102" y1="574" x2="948" y2="574" stroke="#d3ebe9" stroke-width="1" opacity="0.62" stroke-linecap="round" stroke-linejoin="round" /><line x1="102" y1="614" x2="948" y2="614" stroke="#d3ebe9" stroke-width="1" opacity="0.62" stroke-linecap="round" stroke-linejoin="round" /><line x1="102" y1="654" x2="948" y2="654" stroke="#d3ebe9" stroke-width="1" opacity="0.62" stroke-linecap="round" stroke-linejoin="round" /><line x1="102" y1="694" x2="948" y2="694" stroke="#d3ebe9" stroke-width="1" opacity="0.62" stroke-linecap="round" stroke-linejoin="round" /><line x1="102" y1="734" x2="948" y2="734" stroke="#d3ebe9" stroke-width="1" opacity="0.62" stroke-linecap="round" stroke-linejoin="round" /><line x1="102" y1="774" x2="948" y2="774" stroke="#d3ebe9" stroke-width="1" opacity="0.62" stroke-linecap="round" stroke-linejoin="round" /><line x1="102" y1="814" x2="948" y2="814" stroke="#d3ebe9" stroke-width="1" opacity="0.62" stroke-linecap="round" stroke-linejoin="round" /><line x1="102" y1="854" x2="948" y2="854" stroke="#d3ebe9" stroke-width="1" opacity="0.62" stroke-linecap="round" stroke-linejoin="round" /><rect x="1010" y="182" width="320" height="740" rx="28" fill="#fff" stroke="#c7e6e2" stroke-width="3" filter="url(#shadow)"/><text x="1042" y="226" font-family="Arial, Helvetica, sans-serif" font-size="20" font-weight="700" fill="#5c5a5e" text-anchor="start">Layer</text><rect x="1042" y="244" width="240" height="42" rx="14" fill="#e5f6f4" stroke="none" stroke-width="1" /><text x="1060" y="272" font-family="Arial, Helvetica, sans-serif" font-size="20" font-weight="700" fill="#22303c" text-anchor="start">Sketch</text><text x="1042" y="330" font-family="Arial, Helvetica, sans-serif" font-size="20" font-weight="700" fill="#5c5a5e" text-anchor="start">What to draw</text><text x="1042" y="364" font-family="Arial, Helvetica, sans-serif" font-size="22" font-weight="400" fill="#262626" text-anchor="start">On the Sketch layer, add</text><text x="1042" y="392" font-family="Arial, Helvetica, sans-serif" font-size="22" font-weight="400" fill="#262626" text-anchor="start">little shiny crumb</text><text x="1042" y="420" font-family="Arial, Helvetica, sans-serif" font-size="22" font-weight="400" fill="#262626" text-anchor="start">shapes inside the blob,</text><text x="1042" y="448" font-family="Arial, Helvetica, sans-serif" font-size="22" font-weight="400" fill="#262626" text-anchor="start">cheek circles, and a few</text><text x="1042" y="476" font-family="Arial, Helvetica, sans-serif" font-size="22" font-weight="400" fill="#262626" text-anchor="start">wobble lines around the</text><text x="1042" y="504" font-family="Arial, Helvetica, sans-serif" font-size="22" font-weight="400" fill="#262626" text-anchor="start">sides.</text><text x="1042" y="616" font-family="Arial, Helvetica, sans-serif" font-size="20" font-weight="700" fill="#5c5a5e" text-anchor="start">Helpful hint</text><text x="1042" y="650" font-family="Arial, Helvetica, sans-serif" font-size="19" font-weight="400" fill="#444345" text-anchor="start">Inside details can be</text><text x="1042" y="674" font-family="Arial, Helvetica, sans-serif" font-size="19" font-weight="400" fill="#444345" text-anchor="start">simple dots, stars, and</text><text x="1042" y="698" font-family="Arial, Helvetica, sans-serif" font-size="19" font-weight="400" fill="#444345" text-anchor="start">tiny ovals.</text><text x="1042" y="828" font-family="Arial, Helvetica, sans-serif" font-size="18" font-weight="700" fill="#666468" text-anchor="start">SVG guide step</text><circle cx="1060" cy="858" r="14" fill="#F7D28B" stroke="none" stroke-width="1" /><circle cx="1106" cy="858" r="14" fill="#F7D28B" stroke="none" stroke-width="1" /><circle cx="1152" cy="858" r="14" fill="#F7D28B" stroke="none" stroke-width="1" /><circle cx="1198" cy="858" r="14" fill="#f5f1f9" stroke="none" stroke-width="1" /><circle cx="1244" cy="858" r="14" fill="#f5f1f9" stroke="none" stroke-width="1" /><polygon points="680.0,500.0 687.3,525.7 675.7,549.7 651.2,567.9 629.7,584.7 614.5,606.1 594.7,627.5 564.4,637.6 530.6,635.0 500.0,631.6 469.4,635.0 435.6,637.6 405.3,627.5 385.5,606.1 370.3,584.7 348.8,567.9 324.3,549.7 312.7,525.7 320.0,500.0 332.7,477.1 337.4,454.0 339.4,427.9 354.0,404.7 383.1,391.6 414.7,385.1 441.3,374.5 468.1,359.3 500.0,351.6 531.9,359.3 558.7,374.5 585.3,385.1 616.9,391.6 646.0,404.7 660.6,427.9 662.6,454.0 667.3,477.1" stroke="#7fb8e8" stroke-width="5" fill="none" stroke-linecap="round" stroke-linejoin="round" /><ellipse cx="455" cy="490" rx="14" ry="18" fill="none" stroke="#34524E" stroke-width="4" /><circle cx="455" cy="490" r="4" fill="#34524E" stroke="none" stroke-width="1" /><ellipse cx="545" cy="490" rx="14" ry="18" fill="none" stroke="#34524E" stroke-width="4" /><circle cx="545" cy="490" r="4" fill="#34524E" stroke="none" stroke-width="1" /><line x1="443" y1="452" x2="467" y2="450" stroke="#34524E" stroke-width="4" stroke-linecap="round" stroke-linejoin="round" /><line x1="533" y1="450" x2="557" y2="452" stroke="#34524E" stroke-width="4" stroke-linecap="round" stroke-linejoin="round" /><path d="M 484 548 Q 500 557 516 548" stroke="#34524E" stroke-width="4" fill="none" stroke-linecap="round" stroke-linejoin="round" /><circle cx="455" cy="530" r="15" fill="none" stroke="#2f3440" stroke-width="3" /><circle cx="545" cy="530" r="15" fill="none" stroke="#2f3440" stroke-width="3" /><polygon points="450.0,441.0 452.4,446.8 458.6,447.2 453.8,451.2 455.3,457.3 450.0,454.0 444.7,457.3 446.2,451.2 441.4,447.2 447.6,446.8" stroke="#2f3440" stroke-width="2" fill="none" stroke-linecap="round" stroke-linejoin="round" /><polygon points="520.0,456.0 522.4,461.8 528.6,462.2 523.8,466.2 525.3,472.3 520.0,469.0 514.7,472.3 516.2,466.2 511.4,462.2 517.6,461.8" stroke="#2f3440" stroke-width="2" fill="none" stroke-linecap="round" stroke-linejoin="round" /><polygon points="490.0,521.0 492.4,526.8 498.6,527.2 493.8,531.2 495.3,537.3 490.0,534.0 484.7,537.3 486.2,531.2 481.4,527.2 487.6,526.8" stroke="#2f3440" stroke-width="2" fill="none" stroke-linecap="round" stroke-linejoin="round" /><polygon points="560.0,496.0 562.4,501.8 568.6,502.2 563.8,506.2 565.3,512.3 560.0,509.0 554.7,512.3 556.2,506.2 551.4,502.2 557.6,501.8" stroke="#2f3440" stroke-width="2" fill="none" stroke-linecap="round" stroke-linejoin="round" /><path d="M 310 520 q -20 -5 -30 10" stroke="#2f3440" stroke-width="3" fill="none" stroke-linecap="round" stroke-linejoin="round" /><path d="M 685 500 q 25 -5 35 10" stroke="#2f3440" stroke-width="3" fill="none" stroke-linecap="round" stroke-linejoin="round" /><text x="112" y="872" font-family="Arial, Helvetica, sans-serif" font-size="32" font-weight="700" fill="#314e4a" text-anchor="start">Personality Details</text><g data-polish="board-pins" opacity="0.42">
          <circle cx="112" cy="202" r="4" fill="#7fb8e8"/>
          <circle cx="130" cy="202" r="4" fill="#f2c477"/>
          <circle cx="148" cy="202" r="4" fill="#f1a7bd"/>
          <path d="M 830 900 L 950 900" stroke="#2f3440" stroke-width="2" stroke-linecap="round" opacity="0.18"/>
        </g></svg>