<svg xmlns="http://www.w3.org/2000/svg" role="img" aria-label="Pocket SketchSteps lesson step diagram" width="1400" height="1000" viewBox="0 0 1400 1000"><rect width="100%" height="100%" fill="#EEF5E8"/><rect width="100%" height="100%" fill="url(#ambientGlow)" opacity="0.55"/><rect width="100%" height="100%" fill="url(#focusGlow)" opacity="0.65"/><defs><filter id="shadow" x="-20%" y="-20%" width="140%" height="140%"><feDropShadow dx="0" dy="6" stdDeviation="11" flood-color="#1f2430" flood-opacity="0.10"/></filter><linearGradient id="ambientGlow" x1="0" y1="0" x2="1" y2="1">
      <stop offset="0%" stop-color="#ffffff" stop-opacity="0.42"/>
      <stop offset="52%" stop-color="#ffffff" stop-opacity="0.06"/>
      <stop offset="100%" stop-color="#f6dcc5" stop-opacity="0.18"/>
    </linearGradient>
    <radialGradient id="focusGlow" cx="38%" cy="40%" r="60%">
      <stop offset="0%" stop-color="#ffffff" stop-opacity="0.26"/>
      <stop offset="100%" stop-color="#ffffff" stop-opacity="0"/>
    </radialGradient>
    <filter id="softInk" x="-10%" y="-10%" width="120%" height="120%">
      <feDropShadow dx="0" dy="1" stdDeviation="0.35" flood-color="#1f2430" flood-opacity="0.14"/>
    </filter>
    <style><![CDATA[
      svg { shape-rendering: geometricPrecision; text-rendering: optimizeLegibility; }
      text { letter-spacing: .01em; }
      path, line, polyline, polygon, rect, ellipse, circle { vector-effect: non-scaling-stroke; }
    ]]></style></defs><circle cx="16" cy="16" r="1.7" fill="#f1f7ed"/><circle cx="76" cy="16" r="1.7" fill="#f1f7ed"/><circle cx="136" cy="16" r="1.7" fill="#f1f7ed"/><circle cx="196" cy="16" r="1.7" fill="#f1f7ed"/><circle cx="256" cy="16" r="1.7" fill="#f1f7ed"/><circle cx="316" cy="16" r="1.7" fill="#f1f7ed"/><circle cx="376" cy="16" r="1.7" fill="#f1f7ed"/><circle cx="436" cy="16" r="1.7" fill="#f1f7ed"/><circle cx="496" cy="16" r="1.7" fill="#f1f7ed"/><circle cx="556" cy="16" r="1.7" fill="#f1f7ed"/><circle cx="616" cy="16" r="1.7" fill="#f1f7ed"/><circle cx="676" cy="16" r="1.7" fill="#f1f7ed"/><circle cx="736" cy="16" r="1.7" fill="#f1f7ed"/><circle cx="796" cy="16" r="1.7" fill="#f1f7ed"/><circle cx="856" cy="16" r="1.7" fill="#f1f7ed"/><circle cx="916" cy="16" r="1.7" fill="#f1f7ed"/><circle cx="976" cy="16" r="1.7" fill="#f1f7ed"/><circle cx="1036" cy="16" r="1.7" fill="#f1f7ed"/><circle cx="1096" cy="16" r="1.7" fill="#f1f7ed"/><circle cx="1156" cy="16" r="1.7" fill="#f1f7ed"/><circle cx="1216" cy="16" r="1.7" fill="#f1f7ed"/><circle cx="1276" cy="16" r="1.7" fill="#f1f7ed"/><circle cx="1336" cy="16" r="1.7" fill="#f1f7ed"/><circle cx="1396" cy="16" r="1.7" fill="#f1f7ed"/><circle cx="16" cy="76" r="1.7" fill="#f1f7ed"/><circle cx="76" cy="76" r="1.7" fill="#f1f7ed"/><circle cx="136" cy="76" r="1.7" fill="#f1f7ed"/><circle cx="196" cy="76" r="1.7" fill="#f1f7ed"/><circle cx="256" cy="76" r="1.7" fill="#f1f7ed"/><circle cx="316" cy="76" r="1.7" fill="#f1f7ed"/><circle cx="376" cy="76" r="1.7" fill="#f1f7ed"/><circle cx="436" cy="76" r="1.7" fill="#f1f7ed"/><circle cx="496" cy="76" r="1.7" fill="#f1f7ed"/><circle cx="556" cy="76" r="1.7" fill="#f1f7ed"/><circle cx="616" cy="76" r="1.7" fill="#f1f7ed"/><circle cx="676" cy="76" r="1.7" fill="#f1f7ed"/><circle cx="736" cy="76" r="1.7" fill="#f1f7ed"/><circle cx="796" cy="76" r="1.7" fill="#f1f7ed"/><circle cx="856" cy="76" r="1.7" fill="#f1f7ed"/><circle cx="916" cy="76" r="1.7" fill="#f1f7ed"/><circle cx="976" cy="76" r="1.7" fill="#f1f7ed"/><circle cx="1036" cy="76" r="1.7" fill="#f1f7ed"/><circle cx="1096" cy="76" r="1.7" fill="#f1f7ed"/><circle cx="1156" cy="76" r="1.7" fill="#f1f7ed"/><circle cx="1216" cy="76" r="1.7" fill="#f1f7ed"/><circle cx="1276" cy="76" r="1.7" fill="#f1f7ed"/><circle cx="1336" cy="76" r="1.7" fill="#f1f7ed"/><circle cx="1396" cy="76" r="1.7" fill="#f1f7ed"/><circle cx="16" cy="136" r="1.7" fill="#f1f7ed"/><circle cx="76" cy="136" r="1.7" fill="#f1f7ed"/><circle cx="136" cy="136" r="1.7" fill="#f1f7ed"/><circle cx="196" cy="136" r="1.7" fill="#f1f7ed"/><circle cx="256" cy="136" r="1.7" fill="#f1f7ed"/><circle cx="316" cy="136" r="1.7" fill="#f1f7ed"/><circle cx="376" cy="136" r="1.7" fill="#f1f7ed"/><circle cx="436" cy="136" r="1.7" fill="#f1f7ed"/><circle cx="496" cy="136" r="1.7" fill="#f1f7ed"/><circle cx="556" cy="136" r="1.7" fill="#f1f7ed"/><circle cx="616" cy="136" r="1.7" fill="#f1f7ed"/><circle cx="676" cy="136" r="1.7" fill="#f1f7ed"/><circle cx="736" cy="136" r="1.7" fill="#f1f7ed"/><circle cx="796" cy="136" r="1.7" fill="#f1f7ed"/><circle cx="856" cy="136" r="1.7" fill="#f1f7ed"/><circle cx="916" cy="136" r="1.7" fill="#f1f7ed"/><circle cx="976" cy="136" r="1.7" fill="#f1f7ed"/><circle cx="1036" cy="136" r="1.7" fill="#f1f7ed"/><circle cx="1096" cy="136" r="1.7" fill="#f1f7ed"/><circle cx="1156" cy="136" r="1.7" fill="#f1f7ed"/><circle cx="1216" cy="136" r="1.7" fill="#f1f7ed"/><circle cx="1276" cy="136" r="1.7" fill="#f1f7ed"/><circle cx="1336" cy="136" r="1.7" fill="#f1f7ed"/><circle cx="1396" cy="136" r="1.7" fill="#f1f7ed"/><circle cx="16" cy="196" r="1.7" fill="#f1f7ed"/><circle cx="76" cy="196" r="1.7" fill="#f1f7ed"/><circle cx="136" cy="196" r="1.7" fill="#f1f7ed"/><circle cx="196" cy="196" r="1.7" fill="#f1f7ed"/><circle cx="256" cy="196" r="1.7" fill="#f1f7ed"/><circle cx="316" cy="196" r="1.7" fill="#f1f7ed"/><circle cx="376" cy="196" r="1.7" fill="#f1f7ed"/><circle cx="436" cy="196" r="1.7" fill="#f1f7ed"/><circle cx="496" cy="196" r="1.7" fill="#f1f7ed"/><circle cx="556" cy="196" r="1.7" fill="#f1f7ed"/><circle cx="616" cy="196" r="1.7" fill="#f1f7ed"/><circle cx="676" cy="196" r="1.7" fill="#f1f7ed"/><circle cx="736" cy="196" r="1.7" fill="#f1f7ed"/><circle cx="796" cy="196" r="1.7" fill="#f1f7ed"/><circle cx="856" cy="196" r="1.7" fill="#f1f7ed"/><circle cx="916" cy="196" r="1.7" fill="#f1f7ed"/><circle cx="976" cy="196" r="1.7" fill="#f1f7ed"/><circle cx="1036" cy="196" r="1.7" fill="#f1f7ed"/><circle cx="1096" cy="196" r="1.7" fill="#f1f7ed"/><circle cx="1156" cy="196" r="1.7" fill="#f1f7ed"/><circle cx="1216" cy="196" r="1.7" fill="#f1f7ed"/><circle cx="1276" cy="196" r="1.7" fill="#f1f7ed"/><circle cx="1336" cy="196" r="1.7" fill="#f1f7ed"/><circle cx="1396" cy="196" r="1.7" fill="#f1f7ed"/><circle cx="16" cy="256" r="1.7" fill="#f1f7ed"/><circle cx="76" cy="256" r="1.7" fill="#f1f7ed"/><circle cx="136" cy="256" r="1.7" fill="#f1f7ed"/><circle cx="196" cy="256" r="1.7" fill="#f1f7ed"/><circle cx="256" cy="256" r="1.7" fill="#f1f7ed"/><circle cx="316" cy="256" r="1.7" fill="#f1f7ed"/><circle cx="376" cy="256" r="1.7" fill="#f1f7ed"/><circle cx="436" cy="256" r="1.7" fill="#f1f7ed"/><circle cx="496" cy="256" r="1.7" fill="#f1f7ed"/><circle cx="556" cy="256" r="1.7" fill="#f1f7ed"/><circle cx="616" cy="256" r="1.7" fill="#f1f7ed"/><circle cx="676" cy="256" r="1.7" fill="#f1f7ed"/><circle cx="736" cy="256" r="1.7" fill="#f1f7ed"/><circle cx="796" cy="256" r="1.7" fill="#f1f7ed"/><circle cx="856" cy="256" r="1.7" fill="#f1f7ed"/><circle cx="916" cy="256" r="1.7" fill="#f1f7ed"/><circle cx="976" cy="256" r="1.7" fill="#f1f7ed"/><circle cx="1036" cy="256" r="1.7" fill="#f1f7ed"/><circle cx="1096" cy="256" r="1.7" fill="#f1f7ed"/><circle cx="1156" cy="256" r="1.7" fill="#f1f7ed"/><circle cx="1216" cy="256" r="1.7" fill="#f1f7ed"/><circle cx="1276" cy="256" r="1.7" fill="#f1f7ed"/><circle cx="1336" cy="256" r="1.7" fill="#f1f7ed"/><circle cx="1396" cy="256" r="1.7" fill="#f1f7ed"/><circle cx="16" cy="316" r="1.7" fill="#f1f7ed"/><circle cx="76" cy="316" r="1.7" fill="#f1f7ed"/><circle cx="136" cy="316" r="1.7" fill="#f1f7ed"/><circle cx="196" cy="316" r="1.7" fill="#f1f7ed"/><circle cx="256" cy="316" r="1.7" fill="#f1f7ed"/><circle cx="316" cy="316" r="1.7" fill="#f1f7ed"/><circle cx="376" cy="316" r="1.7" fill="#f1f7ed"/><circle cx="436" cy="316" r="1.7" fill="#f1f7ed"/><circle cx="496" cy="316" r="1.7" fill="#f1f7ed"/><circle cx="556" cy="316" r="1.7" fill="#f1f7ed"/><circle cx="616" cy="316" r="1.7" fill="#f1f7ed"/><circle cx="676" cy="316" r="1.7" fill="#f1f7ed"/><circle cx="736" cy="316" r="1.7" fill="#f1f7ed"/><circle cx="796" cy="316" r="1.7" fill="#f1f7ed"/><circle cx="856" cy="316" r="1.7" fill="#f1f7ed"/><circle cx="916" cy="316" r="1.7" fill="#f1f7ed"/><circle cx="976" cy="316" r="1.7" fill="#f1f7ed"/><circle cx="1036" cy="316" r="1.7" fill="#f1f7ed"/><circle cx="1096" cy="316" r="1.7" fill="#f1f7ed"/><circle cx="1156" cy="316" r="1.7" fill="#f1f7ed"/><circle cx="1216" cy="316" r="1.7" fill="#f1f7ed"/><circle cx="1276" cy="316" r="1.7" fill="#f1f7ed"/><circle cx="1336" cy="316" r="1.7" fill="#f1f7ed"/><circle cx="1396" cy="316" r="1.7" fill="#f1f7ed"/><circle cx="16" cy="376" r="1.7" fill="#f1f7ed"/><circle cx="76" cy="376" r="1.7" fill="#f1f7ed"/><circle cx="136" cy="376" r="1.7" fill="#f1f7ed"/><circle cx="196" cy="376" r="1.7" fill="#f1f7ed"/><circle cx="256" cy="376" r="1.7" fill="#f1f7ed"/><circle cx="316" cy="376" r="1.7" fill="#f1f7ed"/><circle cx="376" cy="376" r="1.7" fill="#f1f7ed"/><circle cx="436" cy="376" r="1.7" fill="#f1f7ed"/><circle cx="496" cy="376" r="1.7" fill="#f1f7ed"/><circle cx="556" cy="376" r="1.7" fill="#f1f7ed"/><circle cx="616" cy="376" r="1.7" fill="#f1f7ed"/><circle cx="676" cy="376" r="1.7" fill="#f1f7ed"/><circle cx="736" cy="376" r="1.7" fill="#f1f7ed"/><circle cx="796" cy="376" r="1.7" fill="#f1f7ed"/><circle cx="856" cy="376" r="1.7" fill="#f1f7ed"/><circle cx="916" cy="376" r="1.7" fill="#f1f7ed"/><circle cx="976" cy="376" r="1.7" fill="#f1f7ed"/><circle cx="1036" cy="376" r="1.7" fill="#f1f7ed"/><circle cx="1096" cy="376" r="1.7" fill="#f1f7ed"/><circle cx="1156" cy="376" r="1.7" fill="#f1f7ed"/><circle cx="1216" cy="376" r="1.7" fill="#f1f7ed"/><circle cx="1276" cy="376" r="1.7" fill="#f1f7ed"/><circle cx="1336" cy="376" r="1.7" fill="#f1f7ed"/><circle cx="1396" cy="376" r="1.7" fill="#f1f7ed"/><circle cx="16" cy="436" r="1.7" fill="#f1f7ed"/><circle cx="76" cy="436" r="1.7" fill="#f1f7ed"/><circle cx="136" cy="436" r="1.7" fill="#f1f7ed"/><circle cx="196" cy="436" r="1.7" fill="#f1f7ed"/><circle cx="256" cy="436" r="1.7" fill="#f1f7ed"/><circle cx="316" cy="436" r="1.7" fill="#f1f7ed"/><circle cx="376" cy="436" r="1.7" fill="#f1f7ed"/><circle cx="436" cy="436" r="1.7" fill="#f1f7ed"/><circle cx="496" cy="436" r="1.7" fill="#f1f7ed"/><circle cx="556" cy="436" r="1.7" fill="#f1f7ed"/><circle cx="616" cy="436" r="1.7" fill="#f1f7ed"/><circle cx="676" cy="436" r="1.7" fill="#f1f7ed"/><circle cx="736" cy="436" r="1.7" fill="#f1f7ed"/><circle cx="796" cy="436" r="1.7" fill="#f1f7ed"/><circle cx="856" cy="436" r="1.7" fill="#f1f7ed"/><circle cx="916" cy="436" r="1.7" fill="#f1f7ed"/><circle cx="976" cy="436" r="1.7" fill="#f1f7ed"/><circle cx="1036" cy="436" r="1.7" fill="#f1f7ed"/><circle cx="1096" cy="436" r="1.7" fill="#f1f7ed"/><circle cx="1156" cy="436" r="1.7" fill="#f1f7ed"/><circle cx="1216" cy="436" r="1.7" fill="#f1f7ed"/><circle cx="1276" cy="436" r="1.7" fill="#f1f7ed"/><circle cx="1336" cy="436" r="1.7" fill="#f1f7ed"/><circle cx="1396" cy="436" r="1.7" fill="#f1f7ed"/><circle cx="16" cy="496" r="1.7" fill="#f1f7ed"/><circle cx="76" cy="496" r="1.7" fill="#f1f7ed"/><circle cx="136" cy="496" r="1.7" fill="#f1f7ed"/><circle cx="196" cy="496" r="1.7" fill="#f1f7ed"/><circle cx="256" cy="496" r="1.7" fill="#f1f7ed"/><circle cx="316" cy="496" r="1.7" fill="#f1f7ed"/><circle cx="376" cy="496" r="1.7" fill="#f1f7ed"/><circle cx="436" cy="496" r="1.7" fill="#f1f7ed"/><circle cx="496" cy="496" r="1.7" fill="#f1f7ed"/><circle cx="556" cy="496" r="1.7" fill="#f1f7ed"/><circle cx="616" cy="496" r="1.7" fill="#f1f7ed"/><circle cx="676" cy="496" r="1.7" fill="#f1f7ed"/><circle cx="736" cy="496" r="1.7" fill="#f1f7ed"/><circle cx="796" cy="496" r="1.7" fill="#f1f7ed"/><circle cx="856" cy="496" r="1.7" fill="#f1f7ed"/><circle cx="916" cy="496" r="1.7" fill="#f1f7ed"/><circle cx="976" cy="496" r="1.7" fill="#f1f7ed"/><circle cx="1036" cy="496" r="1.7" fill="#f1f7ed"/><circle cx="1096" cy="496" r="1.7" fill="#f1f7ed"/><circle cx="1156" cy="496" r="1.7" fill="#f1f7ed"/><circle cx="1216" cy="496" r="1.7" fill="#f1f7ed"/><circle cx="1276" cy="496" r="1.7" fill="#f1f7ed"/><circle cx="1336" cy="496" r="1.7" fill="#f1f7ed"/><circle cx="1396" cy="496" r="1.7" fill="#f1f7ed"/><circle cx="16" cy="556" r="1.7" fill="#f1f7ed"/><circle cx="76" cy="556" r="1.7" fill="#f1f7ed"/><circle cx="136" cy="556" r="1.7" fill="#f1f7ed"/><circle cx="196" cy="556" r="1.7" fill="#f1f7ed"/><circle cx="256" cy="556" r="1.7" fill="#f1f7ed"/><circle cx="316" cy="556" r="1.7" fill="#f1f7ed"/><circle cx="376" cy="556" r="1.7" fill="#f1f7ed"/><circle cx="436" cy="556" r="1.7" fill="#f1f7ed"/><circle cx="496" cy="556" r="1.7" fill="#f1f7ed"/><circle cx="556" cy="556" r="1.7" fill="#f1f7ed"/><circle cx="616" cy="556" r="1.7" fill="#f1f7ed"/><circle cx="676" cy="556" r="1.7" fill="#f1f7ed"/><circle cx="736" cy="556" r="1.7" fill="#f1f7ed"/><circle cx="796" cy="556" r="1.7" fill="#f1f7ed"/><circle cx="856" cy="556" r="1.7" fill="#f1f7ed"/><circle cx="916" cy="556" r="1.7" fill="#f1f7ed"/><circle cx="976" cy="556" r="1.7" fill="#f1f7ed"/><circle cx="1036" cy="556" r="1.7" fill="#f1f7ed"/><circle cx="1096" cy="556" r="1.7" fill="#f1f7ed"/><circle cx="1156" cy="556" r="1.7" fill="#f1f7ed"/><circle cx="1216" cy="556" r="1.7" fill="#f1f7ed"/><circle cx="1276" cy="556" r="1.7" fill="#f1f7ed"/><circle cx="1336" cy="556" r="1.7" fill="#f1f7ed"/><circle cx="1396" cy="556" r="1.7" fill="#f1f7ed"/><circle cx="16" cy="616" r="1.7" fill="#f1f7ed"/><circle cx="76" cy="616" r="1.7" fill="#f1f7ed"/><circle cx="136" cy="616" r="1.7" fill="#f1f7ed"/><circle cx="196" cy="616" r="1.7" fill="#f1f7ed"/><circle cx="256" cy="616" r="1.7" fill="#f1f7ed"/><circle cx="316" cy="616" r="1.7" fill="#f1f7ed"/><circle cx="376" cy="616" r="1.7" fill="#f1f7ed"/><circle cx="436" cy="616" r="1.7" fill="#f1f7ed"/><circle cx="496" cy="616" r="1.7" fill="#f1f7ed"/><circle cx="556" cy="616" r="1.7" fill="#f1f7ed"/><circle cx="616" cy="616" r="1.7" fill="#f1f7ed"/><circle cx="676" cy="616" r="1.7" fill="#f1f7ed"/><circle cx="736" cy="616" r="1.7" fill="#f1f7ed"/><circle cx="796" cy="616" r="1.7" fill="#f1f7ed"/><circle cx="856" cy="616" r="1.7" fill="#f1f7ed"/><circle cx="916" cy="616" r="1.7" fill="#f1f7ed"/><circle cx="976" cy="616" r="1.7" fill="#f1f7ed"/><circle cx="1036" cy="616" r="1.7" fill="#f1f7ed"/><circle cx="1096" cy="616" r="1.7" fill="#f1f7ed"/><circle cx="1156" cy="616" r="1.7" fill="#f1f7ed"/><circle cx="1216" cy="616" r="1.7" fill="#f1f7ed"/><circle cx="1276" cy="616" r="1.7" fill="#f1f7ed"/><circle cx="1336" cy="616" r="1.7" fill="#f1f7ed"/><circle cx="1396" cy="616" r="1.7" fill="#f1f7ed"/><circle cx="16" cy="676" r="1.7" fill="#f1f7ed"/><circle cx="76" cy="676" r="1.7" fill="#f1f7ed"/><circle cx="136" cy="676" r="1.7" fill="#f1f7ed"/><circle cx="196" cy="676" r="1.7" fill="#f1f7ed"/><circle cx="256" cy="676" r="1.7" fill="#f1f7ed"/><circle cx="316" cy="676" r="1.7" fill="#f1f7ed"/><circle cx="376" cy="676" r="1.7" fill="#f1f7ed"/><circle cx="436" cy="676" r="1.7" fill="#f1f7ed"/><circle cx="496" cy="676" r="1.7" fill="#f1f7ed"/><circle cx="556" cy="676" r="1.7" fill="#f1f7ed"/><circle cx="616" cy="676" r="1.7" fill="#f1f7ed"/><circle cx="676" cy="676" r="1.7" fill="#f1f7ed"/><circle cx="736" cy="676" r="1.7" fill="#f1f7ed"/><circle cx="796" cy="676" r="1.7" fill="#f1f7ed"/><circle cx="856" cy="676" r="1.7" fill="#f1f7ed"/><circle cx="916" cy="676" r="1.7" fill="#f1f7ed"/><circle cx="976" cy="676" r="1.7" fill="#f1f7ed"/><circle cx="1036" cy="676" r="1.7" fill="#f1f7ed"/><circle cx="1096" cy="676" r="1.7" fill="#f1f7ed"/><circle cx="1156" cy="676" r="1.7" fill="#f1f7ed"/><circle cx="1216" cy="676" r="1.7" fill="#f1f7ed"/><circle cx="1276" cy="676" r="1.7" fill="#f1f7ed"/><circle cx="1336" cy="676" r="1.7" fill="#f1f7ed"/><circle cx="1396" cy="676" r="1.7" fill="#f1f7ed"/><circle cx="16" cy="736" r="1.7" fill="#f1f7ed"/><circle cx="76" cy="736" r="1.7" fill="#f1f7ed"/><circle cx="136" cy="736" r="1.7" fill="#f1f7ed"/><circle cx="196" cy="736" r="1.7" fill="#f1f7ed"/><circle cx="256" cy="736" r="1.7" fill="#f1f7ed"/><circle cx="316" cy="736" r="1.7" fill="#f1f7ed"/><circle cx="376" cy="736" r="1.7" fill="#f1f7ed"/><circle cx="436" cy="736" r="1.7" fill="#f1f7ed"/><circle cx="496" cy="736" r="1.7" fill="#f1f7ed"/><circle cx="556" cy="736" r="1.7" fill="#f1f7ed"/><circle cx="616" cy="736" r="1.7" fill="#f1f7ed"/><circle cx="676" cy="736" r="1.7" fill="#f1f7ed"/><circle cx="736" cy="736" r="1.7" fill="#f1f7ed"/><circle cx="796" cy="736" r="1.7" fill="#f1f7ed"/><circle cx="856" cy="736" r="1.7" fill="#f1f7ed"/><circle cx="916" cy="736" r="1.7" fill="#f1f7ed"/><circle cx="976" cy="736" r="1.7" fill="#f1f7ed"/><circle cx="1036" cy="736" r="1.7" fill="#f1f7ed"/><circle cx="1096" cy="736" r="1.7" fill="#f1f7ed"/><circle cx="1156" cy="736" r="1.7" fill="#f1f7ed"/><circle cx="1216" cy="736" r="1.7" fill="#f1f7ed"/><circle cx="1276" cy="736" r="1.7" fill="#f1f7ed"/><circle cx="1336" cy="736" r="1.7" fill="#f1f7ed"/><circle cx="1396" cy="736" r="1.7" fill="#f1f7ed"/><circle cx="16" cy="796" r="1.7" fill="#f1f7ed"/><circle cx="76" cy="796" r="1.7" fill="#f1f7ed"/><circle cx="136" cy="796" r="1.7" fill="#f1f7ed"/><circle cx="196" cy="796" r="1.7" fill="#f1f7ed"/><circle cx="256" cy="796" r="1.7" fill="#f1f7ed"/><circle cx="316" cy="796" r="1.7" fill="#f1f7ed"/><circle cx="376" cy="796" r="1.7" fill="#f1f7ed"/><circle cx="436" cy="796" r="1.7" fill="#f1f7ed"/><circle cx="496" cy="796" r="1.7" fill="#f1f7ed"/><circle cx="556" cy="796" r="1.7" fill="#f1f7ed"/><circle cx="616" cy="796" r="1.7" fill="#f1f7ed"/><circle cx="676" cy="796" r="1.7" fill="#f1f7ed"/><circle cx="736" cy="796" r="1.7" fill="#f1f7ed"/><circle cx="796" cy="796" r="1.7" fill="#f1f7ed"/><circle cx="856" cy="796" r="1.7" fill="#f1f7ed"/><circle cx="916" cy="796" r="1.7" fill="#f1f7ed"/><circle cx="976" cy="796" r="1.7" fill="#f1f7ed"/><circle cx="1036" cy="796" r="1.7" fill="#f1f7ed"/><circle cx="1096" cy="796" r="1.7" fill="#f1f7ed"/><circle cx="1156" cy="796" r="1.7" fill="#f1f7ed"/><circle cx="1216" cy="796" r="1.7" fill="#f1f7ed"/><circle cx="1276" cy="796" r="1.7" fill="#f1f7ed"/><circle cx="1336" cy="796" r="1.7" fill="#f1f7ed"/><circle cx="1396" cy="796" r="1.7" fill="#f1f7ed"/><circle cx="16" cy="856" r="1.7" fill="#f1f7ed"/><circle cx="76" cy="856" r="1.7" fill="#f1f7ed"/><circle cx="136" cy="856" r="1.7" fill="#f1f7ed"/><circle cx="196" cy="856" r="1.7" fill="#f1f7ed"/><circle cx="256" cy="856" r="1.7" fill="#f1f7ed"/><circle cx="316" cy="856" r="1.7" fill="#f1f7ed"/><circle cx="376" cy="856" r="1.7" fill="#f1f7ed"/><circle cx="436" cy="856" r="1.7" fill="#f1f7ed"/><circle cx="496" cy="856" r="1.7" fill="#f1f7ed"/><circle cx="556" cy="856" r="1.7" fill="#f1f7ed"/><circle cx="616" cy="856" r="1.7" fill="#f1f7ed"/><circle cx="676" cy="856" r="1.7" fill="#f1f7ed"/><circle cx="736" cy="856" r="1.7" fill="#f1f7ed"/><circle cx="796" cy="856" r="1.7" fill="#f1f7ed"/><circle cx="856" cy="856" r="1.7" fill="#f1f7ed"/><circle cx="916" cy="856" r="1.7" fill="#f1f7ed"/><circle cx="976" cy="856" r="1.7" fill="#f1f7ed"/><circle cx="1036" cy="856" r="1.7" fill="#f1f7ed"/><circle cx="1096" cy="856" r="1.7" fill="#f1f7ed"/><circle cx="1156" cy="856" r="1.7" fill="#f1f7ed"/><circle cx="1216" cy="856" r="1.7" fill="#f1f7ed"/><circle cx="1276" cy="856" r="1.7" fill="#f1f7ed"/><circle cx="1336" cy="856" r="1.7" fill="#f1f7ed"/><circle cx="1396" cy="856" r="1.7" fill="#f1f7ed"/><circle cx="16" cy="916" r="1.7" fill="#f1f7ed"/><circle cx="76" cy="916" r="1.7" fill="#f1f7ed"/><circle cx="136" cy="916" r="1.7" fill="#f1f7ed"/><circle cx="196" cy="916" r="1.7" fill="#f1f7ed"/><circle cx="256" cy="916" r="1.7" fill="#f1f7ed"/><circle cx="316" cy="916" r="1.7" fill="#f1f7ed"/><circle cx="376" cy="916" r="1.7" fill="#f1f7ed"/><circle cx="436" cy="916" r="1.7" fill="#f1f7ed"/><circle cx="496" cy="916" r="1.7" fill="#f1f7ed"/><circle cx="556" cy="916" r="1.7" fill="#f1f7ed"/><circle cx="616" cy="916" r="1.7" fill="#f1f7ed"/><circle cx="676" cy="916" r="1.7" fill="#f1f7ed"/><circle cx="736" cy="916" r="1.7" fill="#f1f7ed"/><circle cx="796" cy="916" r="1.7" fill="#f1f7ed"/><circle cx="856" cy="916" r="1.7" fill="#f1f7ed"/><circle cx="916" cy="916" r="1.7" fill="#f1f7ed"/><circle cx="976" cy="916" r="1.7" fill="#f1f7ed"/><circle cx="1036" cy="916" r="1.7" fill="#f1f7ed"/><circle cx="1096" cy="916" r="1.7" fill="#f1f7ed"/><circle cx="1156" cy="916" r="1.7" fill="#f1f7ed"/><circle cx="1216" cy="916" r="1.7" fill="#f1f7ed"/><circle cx="1276" cy="916" r="1.7" fill="#f1f7ed"/><circle cx="1336" cy="916" r="1.7" fill="#f1f7ed"/><circle cx="1396" cy="916" r="1.7" fill="#f1f7ed"/><circle cx="16" cy="976" r="1.7" fill="#f1f7ed"/><circle cx="76" cy="976" r="1.7" fill="#f1f7ed"/><circle cx="136" cy="976" r="1.7" fill="#f1f7ed"/><circle cx="196" cy="976" r="1.7" fill="#f1f7ed"/><circle cx="256" cy="976" r="1.7" fill="#f1f7ed"/><circle cx="316" cy="976" r="1.7" fill="#f1f7ed"/><circle cx="376" cy="976" r="1.7" fill="#f1f7ed"/><circle cx="436" cy="976" r="1.7" fill="#f1f7ed"/><circle cx="496" cy="976" r="1.7" fill="#f1f7ed"/><circle cx="556" cy="976" r="1.7" fill="#f1f7ed"/><circle cx="616" cy="976" r="1.7" fill="#f1f7ed"/><circle cx="676" cy="976" r="1.7" fill="#f1f7ed"/><circle cx="736" cy="976" r="1.7" fill="#f1f7ed"/><circle cx="796" cy="976" r="1.7" fill="#f1f7ed"/><circle cx="856" cy="976" r="1.7" fill="#f1f7ed"/><circle cx="916" cy="976" r="1.7" fill="#f1f7ed"/><circle cx="976" cy="976" r="1.7" fill="#f1f7ed"/><circle cx="1036" cy="976" r="1.7" fill="#f1f7ed"/><circle cx="1096" cy="976" r="1.7" fill="#f1f7ed"/><circle cx="1156" cy="976" r="1.7" fill="#f1f7ed"/><circle cx="1216" cy="976" r="1.7" fill="#f1f7ed"/><circle cx="1276" cy="976" r="1.7" fill="#f1f7ed"/><circle cx="1336" cy="976" r="1.7" fill="#f1f7ed"/><circle cx="1396" cy="976" r="1.7" fill="#f1f7ed"/><text x="54" y="52" font-family="Arial, Helvetica, sans-serif" font-size="22" font-weight="700" fill="#4c4e4a" text-anchor="start" >Pocket SketchSteps</text><text x="54" y="94" font-family="Arial, Helvetica, sans-serif" font-size="42" font-weight="700" fill="#252a33" text-anchor="start" >Lucky Coin Familiar</text><text x="54" y="132" font-family="Arial, Helvetica, sans-serif" font-size="26" font-weight="400" fill="#5f625d" text-anchor="start" >Copper Winkworth</text><rect x="1070" y="44" width="280" height="44" rx="16" fill="#E2B46F" stroke="none" stroke-width="1" /><text x="1210.0" y="73" font-family="Arial, Helvetica, sans-serif" font-size="20" font-weight="700" fill="#1e1e1e" text-anchor="middle" >STEP 4 • Clean Lineart</text><rect x="70" y="182" width="910" height="740" rx="28" fill="#fffdf8" stroke="#d8bb9a" stroke-width="3" filter="url(#shadow)"/><line x1="110" y1="214" x2="110" y2="888" stroke="#e6d4bf" stroke-width="1" opacity="0.62" stroke-linecap="round" stroke-linejoin="round" /><line x1="150" y1="214" x2="150" y2="888" stroke="#e6d4bf" stroke-width="1" opacity="0.62" stroke-linecap="round" stroke-linejoin="round" /><line x1="190" y1="214" x2="190" y2="888" stroke="#e6d4bf" stroke-width="1" opacity="0.62" stroke-linecap="round" stroke-linejoin="round" /><line x1="230" y1="214" x2="230" y2="888" stroke="#e6d4bf" stroke-width="1" opacity="0.62" stroke-linecap="round" stroke-linejoin="round" /><line x1="270" y1="214" x2="270" y2="888" stroke="#e6d4bf" stroke-width="1" opacity="0.62" stroke-linecap="round" stroke-linejoin="round" /><line x1="310" y1="214" x2="310" y2="888" stroke="#e6d4bf" stroke-width="1" opacity="0.62" stroke-linecap="round" stroke-linejoin="round" /><line x1="350" y1="214" x2="350" y2="888" stroke="#e6d4bf" stroke-width="1" opacity="0.62" stroke-linecap="round" stroke-linejoin="round" /><line x1="390" y1="214" x2="390" y2="888" stroke="#e6d4bf" stroke-width="1" opacity="0.62" stroke-linecap="round" stroke-linejoin="round" /><line x1="430" y1="214" x2="430" y2="888" stroke="#e6d4bf" stroke-width="1" opacity="0.62" stroke-linecap="round" stroke-linejoin="round" /><line x1="470" y1="214" x2="470" y2="888" stroke="#e6d4bf" stroke-width="1" opacity="0.62" stroke-linecap="round" stroke-linejoin="round" /><line x1="510" y1="214" x2="510" y2="888" stroke="#e6d4bf" stroke-width="1" opacity="0.62" stroke-linecap="round" stroke-linejoin="round" /><line x1="550" y1="214" x2="550" y2="888" stroke="#e6d4bf" stroke-width="1" opacity="0.62" stroke-linecap="round" stroke-linejoin="round" /><line x1="590" y1="214" x2="590" y2="888" stroke="#e6d4bf" stroke-width="1" opacity="0.62" stroke-linecap="round" stroke-linejoin="round" /><line x1="630" y1="214" x2="630" y2="888" stroke="#e6d4bf" stroke-width="1" opacity="0.62" stroke-linecap="round" stroke-linejoin="round" /><line x1="670" y1="214" x2="670" y2="888" stroke="#e6d4bf" stroke-width="1" opacity="0.62" stroke-linecap="round" stroke-linejoin="round" /><line x1="710" y1="214" x2="710" y2="888" stroke="#e6d4bf" stroke-width="1" opacity="0.62" stroke-linecap="round" stroke-linejoin="round" /><line x1="750" y1="214" x2="750" y2="888" stroke="#e6d4bf" stroke-width="1" opacity="0.62" stroke-linecap="round" stroke-linejoin="round" /><line x1="790" y1="214" x2="790" y2="888" stroke="#e6d4bf" stroke-width="1" opacity="0.62" stroke-linecap="round" stroke-linejoin="round" /><line x1="830" y1="214" x2="830" y2="888" stroke="#e6d4bf" stroke-width="1" opacity="0.62" stroke-linecap="round" stroke-linejoin="round" /><line x1="870" y1="214" x2="870" y2="888" stroke="#e6d4bf" stroke-width="1" opacity="0.62" stroke-linecap="round" stroke-linejoin="round" /><line x1="910" y1="214" x2="910" y2="888" stroke="#e6d4bf" stroke-width="1" opacity="0.62" stroke-linecap="round" stroke-linejoin="round" /><line x1="102" y1="214" x2="948" y2="214" stroke="#e6d4bf" stroke-width="1" opacity="0.62" stroke-linecap="round" stroke-linejoin="round" /><line x1="102" y1="254" x2="948" y2="254" stroke="#e6d4bf" stroke-width="1" opacity="0.62" stroke-linecap="round" stroke-linejoin="round" /><line x1="102" y1="294" x2="948" y2="294" stroke="#e6d4bf" stroke-width="1" opacity="0.62" stroke-linecap="round" stroke-linejoin="round" /><line x1="102" y1="334" x2="948" y2="334" stroke="#e6d4bf" stroke-width="1" opacity="0.62" stroke-linecap="round" stroke-linejoin="round" /><line x1="102" y1="374" x2="948" y2="374" stroke="#e6d4bf" stroke-width="1" opacity="0.62" stroke-linecap="round" stroke-linejoin="round" /><line x1="102" y1="414" x2="948" y2="414" stroke="#e6d4bf" stroke-width="1" opacity="0.62" stroke-linecap="round" stroke-linejoin="round" /><line x1="102" y1="454" x2="948" y2="454" stroke="#e6d4bf" stroke-width="1" opacity="0.62" stroke-linecap="round" stroke-linejoin="round" /><line x1="102" y1="494" x2="948" y2="494" stroke="#e6d4bf" stroke-width="1" opacity="0.62" stroke-linecap="round" stroke-linejoin="round" /><line x1="102" y1="534" x2="948" y2="534" stroke="#e6d4bf" stroke-width="1" opacity="0.62" stroke-linecap="round" stroke-linejoin="round" /><line x1="102" y1="574" x2="948" y2="574" stroke="#e6d4bf" stroke-width="1" opacity="0.62" stroke-linecap="round" stroke-linejoin="round" /><line x1="102" y1="614" x2="948" y2="614" stroke="#e6d4bf" stroke-width="1" opacity="0.62" stroke-linecap="round" stroke-linejoin="round" /><line x1="102" y1="654" x2="948" y2="654" stroke="#e6d4bf" stroke-width="1" opacity="0.62" stroke-linecap="round" stroke-linejoin="round" /><line x1="102" y1="694" x2="948" y2="694" stroke="#e6d4bf" stroke-width="1" opacity="0.62" stroke-linecap="round" stroke-linejoin="round" /><line x1="102" y1="734" x2="948" y2="734" stroke="#e6d4bf" stroke-width="1" opacity="0.62" stroke-linecap="round" stroke-linejoin="round" /><line x1="102" y1="774" x2="948" y2="774" stroke="#e6d4bf" stroke-width="1" opacity="0.62" stroke-linecap="round" stroke-linejoin="round" /><line x1="102" y1="814" x2="948" y2="814" stroke="#e6d4bf" stroke-width="1" opacity="0.62" stroke-linecap="round" stroke-linejoin="round" /><line x1="102" y1="854" x2="948" y2="854" stroke="#e6d4bf" stroke-width="1" opacity="0.62" stroke-linecap="round" stroke-linejoin="round" /><rect x="1010" y="182" width="320" height="740" rx="28" fill="#ffffff" stroke="#dfc8ad" stroke-width="3" filter="url(#shadow)"/><text x="1042" y="226" font-family="Arial, Helvetica, sans-serif" font-size="20" font-weight="700" fill="#5a5d58" text-anchor="start" >Layer</text><rect x="1042" y="244" width="240" height="42" rx="14" fill="#f4e3ca" stroke="none" stroke-width="1" /><text x="1060" y="272" font-family="Arial, Helvetica, sans-serif" font-size="20" font-weight="700" fill="#22303c" text-anchor="start" >Lineart</text><text x="1042" y="330" font-family="Arial, Helvetica, sans-serif" font-size="20" font-weight="700" fill="#5a5d58" text-anchor="start" >What to draw</text><text x="1042" y="364" font-family="Arial, Helvetica, sans-serif" font-size="22" font-weight="400" fill="#262626" text-anchor="start" >On the Lineart</text><text x="1042" y="392" font-family="Arial, Helvetica, sans-serif" font-size="22" font-weight="400" fill="#262626" text-anchor="start" >layer, trace the</text><text x="1042" y="420" font-family="Arial, Helvetica, sans-serif" font-size="22" font-weight="400" fill="#262626" text-anchor="start" >outer coin, inner</text><text x="1042" y="448" font-family="Arial, Helvetica, sans-serif" font-size="22" font-weight="400" fill="#262626" text-anchor="start" >rim, face, star</text><text x="1042" y="476" font-family="Arial, Helvetica, sans-serif" font-size="22" font-weight="400" fill="#262626" text-anchor="start" >stamp, rim marks,</text><text x="1042" y="504" font-family="Arial, Helvetica, sans-serif" font-size="22" font-weight="400" fill="#262626" text-anchor="start" >cheeks, and jingle</text><text x="1042" y="532" font-family="Arial, Helvetica, sans-serif" font-size="22" font-weight="400" fill="#262626" text-anchor="start" >lines.</text><text x="1042" y="616" font-family="Arial, Helvetica, sans-serif" font-size="20" font-weight="700" fill="#5a5d58" text-anchor="start" >Helpful hint</text><text x="1042" y="650" font-family="Arial, Helvetica, sans-serif" font-size="19" font-weight="400" fill="#434541" text-anchor="start" >Leave some rim marks</text><text x="1042" y="674" font-family="Arial, Helvetica, sans-serif" font-size="19" font-weight="400" fill="#434541" text-anchor="start" >out if the edge</text><text x="1042" y="698" font-family="Arial, Helvetica, sans-serif" font-size="19" font-weight="400" fill="#434541" text-anchor="start" >starts to feel too</text><text x="1042" y="722" font-family="Arial, Helvetica, sans-serif" font-size="19" font-weight="400" fill="#434541" text-anchor="start" >busy.</text><text x="1042" y="828" font-family="Arial, Helvetica, sans-serif" font-size="18" font-weight="700" fill="#646761" text-anchor="start" >SVG guide step</text><circle cx="1060" cy="858" r="14" fill="#F7DFA2" stroke="none" stroke-width="1" /><circle cx="1106" cy="858" r="14" fill="#F7DFA2" stroke="none" stroke-width="1" /><circle cx="1152" cy="858" r="14" fill="#F7DFA2" stroke="none" stroke-width="1" /><circle cx="1198" cy="858" r="14" fill="#F7DFA2" stroke="none" stroke-width="1" /><circle cx="1244" cy="858" r="14" fill="#f1f6eb" stroke="none" stroke-width="1" /><circle cx="500" cy="470" r="170" fill="none" stroke="#252a33" stroke-width="5" /><circle cx="500" cy="470" r="128" fill="none" stroke="#252a33" stroke-width="4" /><ellipse cx="460" cy="440" rx="12.6" ry="16.2" fill="white" stroke="#4A3828" stroke-width="3.6" /><ellipse cx="460" cy="440.9" rx="5.4" ry="8.1" fill="#4A3828" stroke="none" stroke-width="1" /><path d="M 525.6 445 Q 540 436.0 554.4 445" stroke="#4A3828" stroke-width="3.6" fill="none" stroke-linecap="round" stroke-linejoin="round" /><line x1="449.2" y1="406.8" x2="470.8" y2="401.4" stroke="#4A3828" stroke-width="3.6" stroke-linecap="round" stroke-linejoin="round" /><line x1="529.2" y1="401.4" x2="549.0" y2="405" stroke="#4A3828" stroke-width="3.6" stroke-linecap="round" stroke-linejoin="round" /><path d="M 485.6 500 Q 500 508.1 514.4 500" stroke="#4A3828" stroke-width="3.6" fill="none" stroke-linecap="round" stroke-linejoin="round" /><polygon points="500.0,526.0 506.5,541.1 522.8,542.6 510.5,553.4 514.1,569.4 500.0,561.0 485.9,569.4 489.5,553.4 477.2,542.6 493.5,541.1" stroke="#4A3828" stroke-width="3" fill="none" stroke-linecap="round" stroke-linejoin="round" /><line x1="392.75377796334305" y1="380.0097346438845" x2="381.2631113165584" y2="370.3679204985864" stroke="#4A3828" stroke-width="3" stroke-linecap="round" stroke-linejoin="round" /><line x1="429.99999999999994" y1="348.7564434701786" x2="422.49999999999994" y2="335.76606241341204" stroke="#4A3828" stroke-width="3" stroke-linecap="round" stroke-linejoin="round" /><line x1="475.68925512662975" y1="332.1269145782909" x2="473.0845324616258" y2="317.35479828310775" stroke="#4A3828" stroke-width="3" stroke-linecap="round" stroke-linejoin="round" /><line x1="524.3107448733701" y1="332.1269145782909" x2="526.9154675383742" y2="317.3547982831077" stroke="#4A3828" stroke-width="3" stroke-linecap="round" stroke-linejoin="round" /><line x1="570.0" y1="348.7564434701786" x2="577.5" y2="335.766062413412" stroke="#4A3828" stroke-width="3" stroke-linecap="round" stroke-linejoin="round" /><line x1="607.246222036657" y1="380.0097346438845" x2="618.7368886834415" y2="370.3679204985864" stroke="#4A3828" stroke-width="3" stroke-linecap="round" stroke-linejoin="round" /><line x1="645" y1="450" x2="659" y2="450" stroke="#F7DFA2" stroke-width="2" stroke-linecap="round" stroke-linejoin="round" /><line x1="668" y1="470" x2="682" y2="470" stroke="#F7DFA2" stroke-width="2" stroke-linecap="round" stroke-linejoin="round" /><line x1="690" y1="490" x2="704" y2="490" stroke="#F7DFA2" stroke-width="2" stroke-linecap="round" stroke-linejoin="round" /><circle cx="460" cy="520" r="12" fill="none" stroke="#4A3828" stroke-width="2" /><circle cx="540" cy="520" r="12" fill="none" stroke="#4A3828" stroke-width="2" /><text x="112" y="872" font-family="Arial, Helvetica, sans-serif" font-size="32" font-weight="700" fill="#463526" text-anchor="start" >Clean Lineart</text><g data-polish="board-pins" opacity="0.42">
          <circle cx="112" cy="202" r="4" fill="#7fb8e8"/>
          <circle cx="130" cy="202" r="4" fill="#f2c477"/>
          <circle cx="148" cy="202" r="4" fill="#f1a7bd"/>
          <path d="M 830 900 L 950 900" stroke="#2f3440" stroke-width="2" stroke-linecap="round" opacity="0.18"/>
        </g></svg>