<svg xmlns="http://www.w3.org/2000/svg" role="img" aria-label="Pocket SketchSteps lesson step diagram" width="1400" height="1000" viewBox="0 0 1400 1000"><rect width="100%" height="100%" fill="#F7EDE2"/><rect width="100%" height="100%" fill="url(#ambientGlow)" opacity="0.55"/><rect width="100%" height="100%" fill="url(#focusGlow)" opacity="0.65"/><defs><filter id="shadow" x="-20%" y="-20%" width="140%" height="140%"><feDropShadow dx="0" dy="6" stdDeviation="11" flood-color="#1f2430" flood-opacity="0.10"/></filter><linearGradient id="ambientGlow" x1="0" y1="0" x2="1" y2="1">
      <stop offset="0%" stop-color="#ffffff" stop-opacity="0.42"/>
      <stop offset="52%" stop-color="#ffffff" stop-opacity="0.06"/>
      <stop offset="100%" stop-color="#f6dcc5" stop-opacity="0.18"/>
    </linearGradient>
    <radialGradient id="focusGlow" cx="38%" cy="40%" r="60%">
      <stop offset="0%" stop-color="#ffffff" stop-opacity="0.26"/>
      <stop offset="100%" stop-color="#ffffff" stop-opacity="0"/>
    </radialGradient>
    <filter id="softInk" x="-10%" y="-10%" width="120%" height="120%">
      <feDropShadow dx="0" dy="1" stdDeviation="0.35" flood-color="#1f2430" flood-opacity="0.14"/>
    </filter>
    <style><![CDATA[
      svg { shape-rendering: geometricPrecision; text-rendering: optimizeLegibility; }
      text { letter-spacing: .01em; }
      path, line, polyline, polygon, rect, ellipse, circle { vector-effect: non-scaling-stroke; }
    ]]></style></defs><circle cx="16" cy="16" r="1.7" fill="#f9f1e8"/><circle cx="76" cy="16" r="1.7" fill="#f9f1e8"/><circle cx="136" cy="16" r="1.7" fill="#f9f1e8"/><circle cx="196" cy="16" r="1.7" fill="#f9f1e8"/><circle cx="256" cy="16" r="1.7" fill="#f9f1e8"/><circle cx="316" cy="16" r="1.7" fill="#f9f1e8"/><circle cx="376" cy="16" r="1.7" fill="#f9f1e8"/><circle cx="436" cy="16" r="1.7" fill="#f9f1e8"/><circle cx="496" cy="16" r="1.7" fill="#f9f1e8"/><circle cx="556" cy="16" r="1.7" fill="#f9f1e8"/><circle cx="616" cy="16" r="1.7" fill="#f9f1e8"/><circle cx="676" cy="16" r="1.7" fill="#f9f1e8"/><circle cx="736" cy="16" r="1.7" fill="#f9f1e8"/><circle cx="796" cy="16" r="1.7" fill="#f9f1e8"/><circle cx="856" cy="16" r="1.7" fill="#f9f1e8"/><circle cx="916" cy="16" r="1.7" fill="#f9f1e8"/><circle cx="976" cy="16" r="1.7" fill="#f9f1e8"/><circle cx="1036" cy="16" r="1.7" fill="#f9f1e8"/><circle cx="1096" cy="16" r="1.7" fill="#f9f1e8"/><circle cx="1156" cy="16" r="1.7" fill="#f9f1e8"/><circle cx="1216" cy="16" r="1.7" fill="#f9f1e8"/><circle cx="1276" cy="16" r="1.7" fill="#f9f1e8"/><circle cx="1336" cy="16" r="1.7" fill="#f9f1e8"/><circle cx="1396" cy="16" r="1.7" fill="#f9f1e8"/><circle cx="16" cy="76" r="1.7" fill="#f9f1e8"/><circle cx="76" cy="76" r="1.7" fill="#f9f1e8"/><circle cx="136" cy="76" r="1.7" fill="#f9f1e8"/><circle cx="196" cy="76" r="1.7" fill="#f9f1e8"/><circle cx="256" cy="76" r="1.7" fill="#f9f1e8"/><circle cx="316" cy="76" r="1.7" fill="#f9f1e8"/><circle cx="376" cy="76" r="1.7" fill="#f9f1e8"/><circle cx="436" cy="76" r="1.7" fill="#f9f1e8"/><circle cx="496" cy="76" r="1.7" fill="#f9f1e8"/><circle cx="556" cy="76" r="1.7" fill="#f9f1e8"/><circle cx="616" cy="76" r="1.7" fill="#f9f1e8"/><circle cx="676" cy="76" r="1.7" fill="#f9f1e8"/><circle cx="736" cy="76" r="1.7" fill="#f9f1e8"/><circle cx="796" cy="76" r="1.7" fill="#f9f1e8"/><circle cx="856" cy="76" r="1.7" fill="#f9f1e8"/><circle cx="916" cy="76" r="1.7" fill="#f9f1e8"/><circle cx="976" cy="76" r="1.7" fill="#f9f1e8"/><circle cx="1036" cy="76" r="1.7" fill="#f9f1e8"/><circle cx="1096" cy="76" r="1.7" fill="#f9f1e8"/><circle cx="1156" cy="76" r="1.7" fill="#f9f1e8"/><circle cx="1216" cy="76" r="1.7" fill="#f9f1e8"/><circle cx="1276" cy="76" r="1.7" fill="#f9f1e8"/><circle cx="1336" cy="76" r="1.7" fill="#f9f1e8"/><circle cx="1396" cy="76" r="1.7" fill="#f9f1e8"/><circle cx="16" cy="136" r="1.7" fill="#f9f1e8"/><circle cx="76" cy="136" r="1.7" fill="#f9f1e8"/><circle cx="136" cy="136" r="1.7" fill="#f9f1e8"/><circle cx="196" cy="136" r="1.7" fill="#f9f1e8"/><circle cx="256" cy="136" r="1.7" fill="#f9f1e8"/><circle cx="316" cy="136" r="1.7" fill="#f9f1e8"/><circle cx="376" cy="136" r="1.7" fill="#f9f1e8"/><circle cx="436" cy="136" r="1.7" fill="#f9f1e8"/><circle cx="496" cy="136" r="1.7" fill="#f9f1e8"/><circle cx="556" cy="136" r="1.7" fill="#f9f1e8"/><circle cx="616" cy="136" r="1.7" fill="#f9f1e8"/><circle cx="676" cy="136" r="1.7" fill="#f9f1e8"/><circle cx="736" cy="136" r="1.7" fill="#f9f1e8"/><circle cx="796" cy="136" r="1.7" fill="#f9f1e8"/><circle cx="856" cy="136" r="1.7" fill="#f9f1e8"/><circle cx="916" cy="136" r="1.7" fill="#f9f1e8"/><circle cx="976" cy="136" r="1.7" fill="#f9f1e8"/><circle cx="1036" cy="136" r="1.7" fill="#f9f1e8"/><circle cx="1096" cy="136" r="1.7" fill="#f9f1e8"/><circle cx="1156" cy="136" r="1.7" fill="#f9f1e8"/><circle cx="1216" cy="136" r="1.7" fill="#f9f1e8"/><circle cx="1276" cy="136" r="1.7" fill="#f9f1e8"/><circle cx="1336" cy="136" r="1.7" fill="#f9f1e8"/><circle cx="1396" cy="136" r="1.7" fill="#f9f1e8"/><circle cx="16" cy="196" r="1.7" fill="#f9f1e8"/><circle cx="76" cy="196" r="1.7" fill="#f9f1e8"/><circle cx="136" cy="196" r="1.7" fill="#f9f1e8"/><circle cx="196" cy="196" r="1.7" fill="#f9f1e8"/><circle cx="256" cy="196" r="1.7" fill="#f9f1e8"/><circle cx="316" cy="196" r="1.7" fill="#f9f1e8"/><circle cx="376" cy="196" r="1.7" fill="#f9f1e8"/><circle cx="436" cy="196" r="1.7" fill="#f9f1e8"/><circle cx="496" cy="196" r="1.7" fill="#f9f1e8"/><circle cx="556" cy="196" r="1.7" fill="#f9f1e8"/><circle cx="616" cy="196" r="1.7" fill="#f9f1e8"/><circle cx="676" cy="196" r="1.7" fill="#f9f1e8"/><circle cx="736" cy="196" r="1.7" fill="#f9f1e8"/><circle cx="796" cy="196" r="1.7" fill="#f9f1e8"/><circle cx="856" cy="196" r="1.7" fill="#f9f1e8"/><circle cx="916" cy="196" r="1.7" fill="#f9f1e8"/><circle cx="976" cy="196" r="1.7" fill="#f9f1e8"/><circle cx="1036" cy="196" r="1.7" fill="#f9f1e8"/><circle cx="1096" cy="196" r="1.7" fill="#f9f1e8"/><circle cx="1156" cy="196" r="1.7" fill="#f9f1e8"/><circle cx="1216" cy="196" r="1.7" fill="#f9f1e8"/><circle cx="1276" cy="196" r="1.7" fill="#f9f1e8"/><circle cx="1336" cy="196" r="1.7" fill="#f9f1e8"/><circle cx="1396" cy="196" r="1.7" fill="#f9f1e8"/><circle cx="16" cy="256" r="1.7" fill="#f9f1e8"/><circle cx="76" cy="256" r="1.7" fill="#f9f1e8"/><circle cx="136" cy="256" r="1.7" fill="#f9f1e8"/><circle cx="196" cy="256" r="1.7" fill="#f9f1e8"/><circle cx="256" cy="256" r="1.7" fill="#f9f1e8"/><circle cx="316" cy="256" r="1.7" fill="#f9f1e8"/><circle cx="376" cy="256" r="1.7" fill="#f9f1e8"/><circle cx="436" cy="256" r="1.7" fill="#f9f1e8"/><circle cx="496" cy="256" r="1.7" fill="#f9f1e8"/><circle cx="556" cy="256" r="1.7" fill="#f9f1e8"/><circle cx="616" cy="256" r="1.7" fill="#f9f1e8"/><circle cx="676" cy="256" r="1.7" fill="#f9f1e8"/><circle cx="736" cy="256" r="1.7" fill="#f9f1e8"/><circle cx="796" cy="256" r="1.7" fill="#f9f1e8"/><circle cx="856" cy="256" r="1.7" fill="#f9f1e8"/><circle cx="916" cy="256" r="1.7" fill="#f9f1e8"/><circle cx="976" cy="256" r="1.7" fill="#f9f1e8"/><circle cx="1036" cy="256" r="1.7" fill="#f9f1e8"/><circle cx="1096" cy="256" r="1.7" fill="#f9f1e8"/><circle cx="1156" cy="256" r="1.7" fill="#f9f1e8"/><circle cx="1216" cy="256" r="1.7" fill="#f9f1e8"/><circle cx="1276" cy="256" r="1.7" fill="#f9f1e8"/><circle cx="1336" cy="256" r="1.7" fill="#f9f1e8"/><circle cx="1396" cy="256" r="1.7" fill="#f9f1e8"/><circle cx="16" cy="316" r="1.7" fill="#f9f1e8"/><circle cx="76" cy="316" r="1.7" fill="#f9f1e8"/><circle cx="136" cy="316" r="1.7" fill="#f9f1e8"/><circle cx="196" cy="316" r="1.7" fill="#f9f1e8"/><circle cx="256" cy="316" r="1.7" fill="#f9f1e8"/><circle cx="316" cy="316" r="1.7" fill="#f9f1e8"/><circle cx="376" cy="316" r="1.7" fill="#f9f1e8"/><circle cx="436" cy="316" r="1.7" fill="#f9f1e8"/><circle cx="496" cy="316" r="1.7" fill="#f9f1e8"/><circle cx="556" cy="316" r="1.7" fill="#f9f1e8"/><circle cx="616" cy="316" r="1.7" fill="#f9f1e8"/><circle cx="676" cy="316" r="1.7" fill="#f9f1e8"/><circle cx="736" cy="316" r="1.7" fill="#f9f1e8"/><circle cx="796" cy="316" r="1.7" fill="#f9f1e8"/><circle cx="856" cy="316" r="1.7" fill="#f9f1e8"/><circle cx="916" cy="316" r="1.7" fill="#f9f1e8"/><circle cx="976" cy="316" r="1.7" fill="#f9f1e8"/><circle cx="1036" cy="316" r="1.7" fill="#f9f1e8"/><circle cx="1096" cy="316" r="1.7" fill="#f9f1e8"/><circle cx="1156" cy="316" r="1.7" fill="#f9f1e8"/><circle cx="1216" cy="316" r="1.7" fill="#f9f1e8"/><circle cx="1276" cy="316" r="1.7" fill="#f9f1e8"/><circle cx="1336" cy="316" r="1.7" fill="#f9f1e8"/><circle cx="1396" cy="316" r="1.7" fill="#f9f1e8"/><circle cx="16" cy="376" r="1.7" fill="#f9f1e8"/><circle cx="76" cy="376" r="1.7" fill="#f9f1e8"/><circle cx="136" cy="376" r="1.7" fill="#f9f1e8"/><circle cx="196" cy="376" r="1.7" fill="#f9f1e8"/><circle cx="256" cy="376" r="1.7" fill="#f9f1e8"/><circle cx="316" cy="376" r="1.7" fill="#f9f1e8"/><circle cx="376" cy="376" r="1.7" fill="#f9f1e8"/><circle cx="436" cy="376" r="1.7" fill="#f9f1e8"/><circle cx="496" cy="376" r="1.7" fill="#f9f1e8"/><circle cx="556" cy="376" r="1.7" fill="#f9f1e8"/><circle cx="616" cy="376" r="1.7" fill="#f9f1e8"/><circle cx="676" cy="376" r="1.7" fill="#f9f1e8"/><circle cx="736" cy="376" r="1.7" fill="#f9f1e8"/><circle cx="796" cy="376" r="1.7" fill="#f9f1e8"/><circle cx="856" cy="376" r="1.7" fill="#f9f1e8"/><circle cx="916" cy="376" r="1.7" fill="#f9f1e8"/><circle cx="976" cy="376" r="1.7" fill="#f9f1e8"/><circle cx="1036" cy="376" r="1.7" fill="#f9f1e8"/><circle cx="1096" cy="376" r="1.7" fill="#f9f1e8"/><circle cx="1156" cy="376" r="1.7" fill="#f9f1e8"/><circle cx="1216" cy="376" r="1.7" fill="#f9f1e8"/><circle cx="1276" cy="376" r="1.7" fill="#f9f1e8"/><circle cx="1336" cy="376" r="1.7" fill="#f9f1e8"/><circle cx="1396" cy="376" r="1.7" fill="#f9f1e8"/><circle cx="16" cy="436" r="1.7" fill="#f9f1e8"/><circle cx="76" cy="436" r="1.7" fill="#f9f1e8"/><circle cx="136" cy="436" r="1.7" fill="#f9f1e8"/><circle cx="196" cy="436" r="1.7" fill="#f9f1e8"/><circle cx="256" cy="436" r="1.7" fill="#f9f1e8"/><circle cx="316" cy="436" r="1.7" fill="#f9f1e8"/><circle cx="376" cy="436" r="1.7" fill="#f9f1e8"/><circle cx="436" cy="436" r="1.7" fill="#f9f1e8"/><circle cx="496" cy="436" r="1.7" fill="#f9f1e8"/><circle cx="556" cy="436" r="1.7" fill="#f9f1e8"/><circle cx="616" cy="436" r="1.7" fill="#f9f1e8"/><circle cx="676" cy="436" r="1.7" fill="#f9f1e8"/><circle cx="736" cy="436" r="1.7" fill="#f9f1e8"/><circle cx="796" cy="436" r="1.7" fill="#f9f1e8"/><circle cx="856" cy="436" r="1.7" fill="#f9f1e8"/><circle cx="916" cy="436" r="1.7" fill="#f9f1e8"/><circle cx="976" cy="436" r="1.7" fill="#f9f1e8"/><circle cx="1036" cy="436" r="1.7" fill="#f9f1e8"/><circle cx="1096" cy="436" r="1.7" fill="#f9f1e8"/><circle cx="1156" cy="436" r="1.7" fill="#f9f1e8"/><circle cx="1216" cy="436" r="1.7" fill="#f9f1e8"/><circle cx="1276" cy="436" r="1.7" fill="#f9f1e8"/><circle cx="1336" cy="436" r="1.7" fill="#f9f1e8"/><circle cx="1396" cy="436" r="1.7" fill="#f9f1e8"/><circle cx="16" cy="496" r="1.7" fill="#f9f1e8"/><circle cx="76" cy="496" r="1.7" fill="#f9f1e8"/><circle cx="136" cy="496" r="1.7" fill="#f9f1e8"/><circle cx="196" cy="496" r="1.7" fill="#f9f1e8"/><circle cx="256" cy="496" r="1.7" fill="#f9f1e8"/><circle cx="316" cy="496" r="1.7" fill="#f9f1e8"/><circle cx="376" cy="496" r="1.7" fill="#f9f1e8"/><circle cx="436" cy="496" r="1.7" fill="#f9f1e8"/><circle cx="496" cy="496" r="1.7" fill="#f9f1e8"/><circle cx="556" cy="496" r="1.7" fill="#f9f1e8"/><circle cx="616" cy="496" r="1.7" fill="#f9f1e8"/><circle cx="676" cy="496" r="1.7" fill="#f9f1e8"/><circle cx="736" cy="496" r="1.7" fill="#f9f1e8"/><circle cx="796" cy="496" r="1.7" fill="#f9f1e8"/><circle cx="856" cy="496" r="1.7" fill="#f9f1e8"/><circle cx="916" cy="496" r="1.7" fill="#f9f1e8"/><circle cx="976" cy="496" r="1.7" fill="#f9f1e8"/><circle cx="1036" cy="496" r="1.7" fill="#f9f1e8"/><circle cx="1096" cy="496" r="1.7" fill="#f9f1e8"/><circle cx="1156" cy="496" r="1.7" fill="#f9f1e8"/><circle cx="1216" cy="496" r="1.7" fill="#f9f1e8"/><circle cx="1276" cy="496" r="1.7" fill="#f9f1e8"/><circle cx="1336" cy="496" r="1.7" fill="#f9f1e8"/><circle cx="1396" cy="496" r="1.7" fill="#f9f1e8"/><circle cx="16" cy="556" r="1.7" fill="#f9f1e8"/><circle cx="76" cy="556" r="1.7" fill="#f9f1e8"/><circle cx="136" cy="556" r="1.7" fill="#f9f1e8"/><circle cx="196" cy="556" r="1.7" fill="#f9f1e8"/><circle cx="256" cy="556" r="1.7" fill="#f9f1e8"/><circle cx="316" cy="556" r="1.7" fill="#f9f1e8"/><circle cx="376" cy="556" r="1.7" fill="#f9f1e8"/><circle cx="436" cy="556" r="1.7" fill="#f9f1e8"/><circle cx="496" cy="556" r="1.7" fill="#f9f1e8"/><circle cx="556" cy="556" r="1.7" fill="#f9f1e8"/><circle cx="616" cy="556" r="1.7" fill="#f9f1e8"/><circle cx="676" cy="556" r="1.7" fill="#f9f1e8"/><circle cx="736" cy="556" r="1.7" fill="#f9f1e8"/><circle cx="796" cy="556" r="1.7" fill="#f9f1e8"/><circle cx="856" cy="556" r="1.7" fill="#f9f1e8"/><circle cx="916" cy="556" r="1.7" fill="#f9f1e8"/><circle cx="976" cy="556" r="1.7" fill="#f9f1e8"/><circle cx="1036" cy="556" r="1.7" fill="#f9f1e8"/><circle cx="1096" cy="556" r="1.7" fill="#f9f1e8"/><circle cx="1156" cy="556" r="1.7" fill="#f9f1e8"/><circle cx="1216" cy="556" r="1.7" fill="#f9f1e8"/><circle cx="1276" cy="556" r="1.7" fill="#f9f1e8"/><circle cx="1336" cy="556" r="1.7" fill="#f9f1e8"/><circle cx="1396" cy="556" r="1.7" fill="#f9f1e8"/><circle cx="16" cy="616" r="1.7" fill="#f9f1e8"/><circle cx="76" cy="616" r="1.7" fill="#f9f1e8"/><circle cx="136" cy="616" r="1.7" fill="#f9f1e8"/><circle cx="196" cy="616" r="1.7" fill="#f9f1e8"/><circle cx="256" cy="616" r="1.7" fill="#f9f1e8"/><circle cx="316" cy="616" r="1.7" fill="#f9f1e8"/><circle cx="376" cy="616" r="1.7" fill="#f9f1e8"/><circle cx="436" cy="616" r="1.7" fill="#f9f1e8"/><circle cx="496" cy="616" r="1.7" fill="#f9f1e8"/><circle cx="556" cy="616" r="1.7" fill="#f9f1e8"/><circle cx="616" cy="616" r="1.7" fill="#f9f1e8"/><circle cx="676" cy="616" r="1.7" fill="#f9f1e8"/><circle cx="736" cy="616" r="1.7" fill="#f9f1e8"/><circle cx="796" cy="616" r="1.7" fill="#f9f1e8"/><circle cx="856" cy="616" r="1.7" fill="#f9f1e8"/><circle cx="916" cy="616" r="1.7" fill="#f9f1e8"/><circle cx="976" cy="616" r="1.7" fill="#f9f1e8"/><circle cx="1036" cy="616" r="1.7" fill="#f9f1e8"/><circle cx="1096" cy="616" r="1.7" fill="#f9f1e8"/><circle cx="1156" cy="616" r="1.7" fill="#f9f1e8"/><circle cx="1216" cy="616" r="1.7" fill="#f9f1e8"/><circle cx="1276" cy="616" r="1.7" fill="#f9f1e8"/><circle cx="1336" cy="616" r="1.7" fill="#f9f1e8"/><circle cx="1396" cy="616" r="1.7" fill="#f9f1e8"/><circle cx="16" cy="676" r="1.7" fill="#f9f1e8"/><circle cx="76" cy="676" r="1.7" fill="#f9f1e8"/><circle cx="136" cy="676" r="1.7" fill="#f9f1e8"/><circle cx="196" cy="676" r="1.7" fill="#f9f1e8"/><circle cx="256" cy="676" r="1.7" fill="#f9f1e8"/><circle cx="316" cy="676" r="1.7" fill="#f9f1e8"/><circle cx="376" cy="676" r="1.7" fill="#f9f1e8"/><circle cx="436" cy="676" r="1.7" fill="#f9f1e8"/><circle cx="496" cy="676" r="1.7" fill="#f9f1e8"/><circle cx="556" cy="676" r="1.7" fill="#f9f1e8"/><circle cx="616" cy="676" r="1.7" fill="#f9f1e8"/><circle cx="676" cy="676" r="1.7" fill="#f9f1e8"/><circle cx="736" cy="676" r="1.7" fill="#f9f1e8"/><circle cx="796" cy="676" r="1.7" fill="#f9f1e8"/><circle cx="856" cy="676" r="1.7" fill="#f9f1e8"/><circle cx="916" cy="676" r="1.7" fill="#f9f1e8"/><circle cx="976" cy="676" r="1.7" fill="#f9f1e8"/><circle cx="1036" cy="676" r="1.7" fill="#f9f1e8"/><circle cx="1096" cy="676" r="1.7" fill="#f9f1e8"/><circle cx="1156" cy="676" r="1.7" fill="#f9f1e8"/><circle cx="1216" cy="676" r="1.7" fill="#f9f1e8"/><circle cx="1276" cy="676" r="1.7" fill="#f9f1e8"/><circle cx="1336" cy="676" r="1.7" fill="#f9f1e8"/><circle cx="1396" cy="676" r="1.7" fill="#f9f1e8"/><circle cx="16" cy="736" r="1.7" fill="#f9f1e8"/><circle cx="76" cy="736" r="1.7" fill="#f9f1e8"/><circle cx="136" cy="736" r="1.7" fill="#f9f1e8"/><circle cx="196" cy="736" r="1.7" fill="#f9f1e8"/><circle cx="256" cy="736" r="1.7" fill="#f9f1e8"/><circle cx="316" cy="736" r="1.7" fill="#f9f1e8"/><circle cx="376" cy="736" r="1.7" fill="#f9f1e8"/><circle cx="436" cy="736" r="1.7" fill="#f9f1e8"/><circle cx="496" cy="736" r="1.7" fill="#f9f1e8"/><circle cx="556" cy="736" r="1.7" fill="#f9f1e8"/><circle cx="616" cy="736" r="1.7" fill="#f9f1e8"/><circle cx="676" cy="736" r="1.7" fill="#f9f1e8"/><circle cx="736" cy="736" r="1.7" fill="#f9f1e8"/><circle cx="796" cy="736" r="1.7" fill="#f9f1e8"/><circle cx="856" cy="736" r="1.7" fill="#f9f1e8"/><circle cx="916" cy="736" r="1.7" fill="#f9f1e8"/><circle cx="976" cy="736" r="1.7" fill="#f9f1e8"/><circle cx="1036" cy="736" r="1.7" fill="#f9f1e8"/><circle cx="1096" cy="736" r="1.7" fill="#f9f1e8"/><circle cx="1156" cy="736" r="1.7" fill="#f9f1e8"/><circle cx="1216" cy="736" r="1.7" fill="#f9f1e8"/><circle cx="1276" cy="736" r="1.7" fill="#f9f1e8"/><circle cx="1336" cy="736" r="1.7" fill="#f9f1e8"/><circle cx="1396" cy="736" r="1.7" fill="#f9f1e8"/><circle cx="16" cy="796" r="1.7" fill="#f9f1e8"/><circle cx="76" cy="796" r="1.7" fill="#f9f1e8"/><circle cx="136" cy="796" r="1.7" fill="#f9f1e8"/><circle cx="196" cy="796" r="1.7" fill="#f9f1e8"/><circle cx="256" cy="796" r="1.7" fill="#f9f1e8"/><circle cx="316" cy="796" r="1.7" fill="#f9f1e8"/><circle cx="376" cy="796" r="1.7" fill="#f9f1e8"/><circle cx="436" cy="796" r="1.7" fill="#f9f1e8"/><circle cx="496" cy="796" r="1.7" fill="#f9f1e8"/><circle cx="556" cy="796" r="1.7" fill="#f9f1e8"/><circle cx="616" cy="796" r="1.7" fill="#f9f1e8"/><circle cx="676" cy="796" r="1.7" fill="#f9f1e8"/><circle cx="736" cy="796" r="1.7" fill="#f9f1e8"/><circle cx="796" cy="796" r="1.7" fill="#f9f1e8"/><circle cx="856" cy="796" r="1.7" fill="#f9f1e8"/><circle cx="916" cy="796" r="1.7" fill="#f9f1e8"/><circle cx="976" cy="796" r="1.7" fill="#f9f1e8"/><circle cx="1036" cy="796" r="1.7" fill="#f9f1e8"/><circle cx="1096" cy="796" r="1.7" fill="#f9f1e8"/><circle cx="1156" cy="796" r="1.7" fill="#f9f1e8"/><circle cx="1216" cy="796" r="1.7" fill="#f9f1e8"/><circle cx="1276" cy="796" r="1.7" fill="#f9f1e8"/><circle cx="1336" cy="796" r="1.7" fill="#f9f1e8"/><circle cx="1396" cy="796" r="1.7" fill="#f9f1e8"/><circle cx="16" cy="856" r="1.7" fill="#f9f1e8"/><circle cx="76" cy="856" r="1.7" fill="#f9f1e8"/><circle cx="136" cy="856" r="1.7" fill="#f9f1e8"/><circle cx="196" cy="856" r="1.7" fill="#f9f1e8"/><circle cx="256" cy="856" r="1.7" fill="#f9f1e8"/><circle cx="316" cy="856" r="1.7" fill="#f9f1e8"/><circle cx="376" cy="856" r="1.7" fill="#f9f1e8"/><circle cx="436" cy="856" r="1.7" fill="#f9f1e8"/><circle cx="496" cy="856" r="1.7" fill="#f9f1e8"/><circle cx="556" cy="856" r="1.7" fill="#f9f1e8"/><circle cx="616" cy="856" r="1.7" fill="#f9f1e8"/><circle cx="676" cy="856" r="1.7" fill="#f9f1e8"/><circle cx="736" cy="856" r="1.7" fill="#f9f1e8"/><circle cx="796" cy="856" r="1.7" fill="#f9f1e8"/><circle cx="856" cy="856" r="1.7" fill="#f9f1e8"/><circle cx="916" cy="856" r="1.7" fill="#f9f1e8"/><circle cx="976" cy="856" r="1.7" fill="#f9f1e8"/><circle cx="1036" cy="856" r="1.7" fill="#f9f1e8"/><circle cx="1096" cy="856" r="1.7" fill="#f9f1e8"/><circle cx="1156" cy="856" r="1.7" fill="#f9f1e8"/><circle cx="1216" cy="856" r="1.7" fill="#f9f1e8"/><circle cx="1276" cy="856" r="1.7" fill="#f9f1e8"/><circle cx="1336" cy="856" r="1.7" fill="#f9f1e8"/><circle cx="1396" cy="856" r="1.7" fill="#f9f1e8"/><circle cx="16" cy="916" r="1.7" fill="#f9f1e8"/><circle cx="76" cy="916" r="1.7" fill="#f9f1e8"/><circle cx="136" cy="916" r="1.7" fill="#f9f1e8"/><circle cx="196" cy="916" r="1.7" fill="#f9f1e8"/><circle cx="256" cy="916" r="1.7" fill="#f9f1e8"/><circle cx="316" cy="916" r="1.7" fill="#f9f1e8"/><circle cx="376" cy="916" r="1.7" fill="#f9f1e8"/><circle cx="436" cy="916" r="1.7" fill="#f9f1e8"/><circle cx="496" cy="916" r="1.7" fill="#f9f1e8"/><circle cx="556" cy="916" r="1.7" fill="#f9f1e8"/><circle cx="616" cy="916" r="1.7" fill="#f9f1e8"/><circle cx="676" cy="916" r="1.7" fill="#f9f1e8"/><circle cx="736" cy="916" r="1.7" fill="#f9f1e8"/><circle cx="796" cy="916" r="1.7" fill="#f9f1e8"/><circle cx="856" cy="916" r="1.7" fill="#f9f1e8"/><circle cx="916" cy="916" r="1.7" fill="#f9f1e8"/><circle cx="976" cy="916" r="1.7" fill="#f9f1e8"/><circle cx="1036" cy="916" r="1.7" fill="#f9f1e8"/><circle cx="1096" cy="916" r="1.7" fill="#f9f1e8"/><circle cx="1156" cy="916" r="1.7" fill="#f9f1e8"/><circle cx="1216" cy="916" r="1.7" fill="#f9f1e8"/><circle cx="1276" cy="916" r="1.7" fill="#f9f1e8"/><circle cx="1336" cy="916" r="1.7" fill="#f9f1e8"/><circle cx="1396" cy="916" r="1.7" fill="#f9f1e8"/><circle cx="16" cy="976" r="1.7" fill="#f9f1e8"/><circle cx="76" cy="976" r="1.7" fill="#f9f1e8"/><circle cx="136" cy="976" r="1.7" fill="#f9f1e8"/><circle cx="196" cy="976" r="1.7" fill="#f9f1e8"/><circle cx="256" cy="976" r="1.7" fill="#f9f1e8"/><circle cx="316" cy="976" r="1.7" fill="#f9f1e8"/><circle cx="376" cy="976" r="1.7" fill="#f9f1e8"/><circle cx="436" cy="976" r="1.7" fill="#f9f1e8"/><circle cx="496" cy="976" r="1.7" fill="#f9f1e8"/><circle cx="556" cy="976" r="1.7" fill="#f9f1e8"/><circle cx="616" cy="976" r="1.7" fill="#f9f1e8"/><circle cx="676" cy="976" r="1.7" fill="#f9f1e8"/><circle cx="736" cy="976" r="1.7" fill="#f9f1e8"/><circle cx="796" cy="976" r="1.7" fill="#f9f1e8"/><circle cx="856" cy="976" r="1.7" fill="#f9f1e8"/><circle cx="916" cy="976" r="1.7" fill="#f9f1e8"/><circle cx="976" cy="976" r="1.7" fill="#f9f1e8"/><circle cx="1036" cy="976" r="1.7" fill="#f9f1e8"/><circle cx="1096" cy="976" r="1.7" fill="#f9f1e8"/><circle cx="1156" cy="976" r="1.7" fill="#f9f1e8"/><circle cx="1216" cy="976" r="1.7" fill="#f9f1e8"/><circle cx="1276" cy="976" r="1.7" fill="#f9f1e8"/><circle cx="1336" cy="976" r="1.7" fill="#f9f1e8"/><circle cx="1396" cy="976" r="1.7" fill="#f9f1e8"/><text x="54" y="52" font-family="Arial, Helvetica, sans-serif" font-size="22" font-weight="700" fill="#4f4c48" text-anchor="start">Pocket SketchSteps</text><text x="54" y="94" font-family="Arial, Helvetica, sans-serif" font-size="42" font-weight="700" fill="#252a33" text-anchor="start">Pocket Monster</text><text x="54" y="132" font-family="Arial, Helvetica, sans-serif" font-size="26" font-weight="400" fill="#635f5a" text-anchor="start">Norb Buttonsnack</text><rect x="1004" y="44" width="346" height="44" rx="16" fill="#C9D9A7" stroke="none" stroke-width="1" /><text x="1177.0" y="73" font-family="Arial, Helvetica, sans-serif" font-size="20" font-weight="700" fill="#1e1e1e" text-anchor="middle">STEP 3 • Personality Details</text><rect x="70" y="182" width="910" height="740" rx="28" fill="#fffdf8" stroke="#c6d0b5" stroke-width="3" filter="url(#shadow)"/><line x1="110" y1="214" x2="110" y2="888" stroke="#dbe1d0" stroke-width="1" opacity="0.62" stroke-linecap="round" stroke-linejoin="round" /><line x1="150" y1="214" x2="150" y2="888" stroke="#dbe1d0" stroke-width="1" opacity="0.62" stroke-linecap="round" stroke-linejoin="round" /><line x1="190" y1="214" x2="190" y2="888" stroke="#dbe1d0" stroke-width="1" opacity="0.62" stroke-linecap="round" stroke-linejoin="round" /><line x1="230" y1="214" x2="230" y2="888" stroke="#dbe1d0" stroke-width="1" opacity="0.62" stroke-linecap="round" stroke-linejoin="round" /><line x1="270" y1="214" x2="270" y2="888" stroke="#dbe1d0" stroke-width="1" opacity="0.62" stroke-linecap="round" stroke-linejoin="round" /><line x1="310" y1="214" x2="310" y2="888" stroke="#dbe1d0" stroke-width="1" opacity="0.62" stroke-linecap="round" stroke-linejoin="round" /><line x1="350" y1="214" x2="350" y2="888" stroke="#dbe1d0" stroke-width="1" opacity="0.62" stroke-linecap="round" stroke-linejoin="round" /><line x1="390" y1="214" x2="390" y2="888" stroke="#dbe1d0" stroke-width="1" opacity="0.62" stroke-linecap="round" stroke-linejoin="round" /><line x1="430" y1="214" x2="430" y2="888" stroke="#dbe1d0" stroke-width="1" opacity="0.62" stroke-linecap="round" stroke-linejoin="round" /><line x1="470" y1="214" x2="470" y2="888" stroke="#dbe1d0" stroke-width="1" opacity="0.62" stroke-linecap="round" stroke-linejoin="round" /><line x1="510" y1="214" x2="510" y2="888" stroke="#dbe1d0" stroke-width="1" opacity="0.62" stroke-linecap="round" stroke-linejoin="round" /><line x1="550" y1="214" x2="550" y2="888" stroke="#dbe1d0" stroke-width="1" opacity="0.62" stroke-linecap="round" stroke-linejoin="round" /><line x1="590" y1="214" x2="590" y2="888" stroke="#dbe1d0" stroke-width="1" opacity="0.62" stroke-linecap="round" stroke-linejoin="round" /><line x1="630" y1="214" x2="630" y2="888" stroke="#dbe1d0" stroke-width="1" opacity="0.62" stroke-linecap="round" stroke-linejoin="round" /><line x1="670" y1="214" x2="670" y2="888" stroke="#dbe1d0" stroke-width="1" opacity="0.62" stroke-linecap="round" stroke-linejoin="round" /><line x1="710" y1="214" x2="710" y2="888" stroke="#dbe1d0" stroke-width="1" opacity="0.62" stroke-linecap="round" stroke-linejoin="round" /><line x1="750" y1="214" x2="750" y2="888" stroke="#dbe1d0" stroke-width="1" opacity="0.62" stroke-linecap="round" stroke-linejoin="round" /><line x1="790" y1="214" x2="790" y2="888" stroke="#dbe1d0" stroke-width="1" opacity="0.62" stroke-linecap="round" stroke-linejoin="round" /><line x1="830" y1="214" x2="830" y2="888" stroke="#dbe1d0" stroke-width="1" opacity="0.62" stroke-linecap="round" stroke-linejoin="round" /><line x1="870" y1="214" x2="870" y2="888" stroke="#dbe1d0" stroke-width="1" opacity="0.62" stroke-linecap="round" stroke-linejoin="round" /><line x1="910" y1="214" x2="910" y2="888" stroke="#dbe1d0" stroke-width="1" opacity="0.62" stroke-linecap="round" stroke-linejoin="round" /><line x1="102" y1="214" x2="948" y2="214" stroke="#dbe1d0" stroke-width="1" opacity="0.62" stroke-linecap="round" stroke-linejoin="round" /><line x1="102" y1="254" x2="948" y2="254" stroke="#dbe1d0" stroke-width="1" opacity="0.62" stroke-linecap="round" stroke-linejoin="round" /><line x1="102" y1="294" x2="948" y2="294" stroke="#dbe1d0" stroke-width="1" opacity="0.62" stroke-linecap="round" stroke-linejoin="round" /><line x1="102" y1="334" x2="948" y2="334" stroke="#dbe1d0" stroke-width="1" opacity="0.62" stroke-linecap="round" stroke-linejoin="round" /><line x1="102" y1="374" x2="948" y2="374" stroke="#dbe1d0" stroke-width="1" opacity="0.62" stroke-linecap="round" stroke-linejoin="round" /><line x1="102" y1="414" x2="948" y2="414" stroke="#dbe1d0" stroke-width="1" opacity="0.62" stroke-linecap="round" stroke-linejoin="round" /><line x1="102" y1="454" x2="948" y2="454" stroke="#dbe1d0" stroke-width="1" opacity="0.62" stroke-linecap="round" stroke-linejoin="round" /><line x1="102" y1="494" x2="948" y2="494" stroke="#dbe1d0" stroke-width="1" opacity="0.62" stroke-linecap="round" stroke-linejoin="round" /><line x1="102" y1="534" x2="948" y2="534" stroke="#dbe1d0" stroke-width="1" opacity="0.62" stroke-linecap="round" stroke-linejoin="round" /><line x1="102" y1="574" x2="948" y2="574" stroke="#dbe1d0" stroke-width="1" opacity="0.62" stroke-linecap="round" stroke-linejoin="round" /><line x1="102" y1="614" x2="948" y2="614" stroke="#dbe1d0" stroke-width="1" opacity="0.62" stroke-linecap="round" stroke-linejoin="round" /><line x1="102" y1="654" x2="948" y2="654" stroke="#dbe1d0" stroke-width="1" opacity="0.62" stroke-linecap="round" stroke-linejoin="round" /><line x1="102" y1="694" x2="948" y2="694" stroke="#dbe1d0" stroke-width="1" opacity="0.62" stroke-linecap="round" stroke-linejoin="round" /><line x1="102" y1="734" x2="948" y2="734" stroke="#dbe1d0" stroke-width="1" opacity="0.62" stroke-linecap="round" stroke-linejoin="round" /><line x1="102" y1="774" x2="948" y2="774" stroke="#dbe1d0" stroke-width="1" opacity="0.62" stroke-linecap="round" stroke-linejoin="round" /><line x1="102" y1="814" x2="948" y2="814" stroke="#dbe1d0" stroke-width="1" opacity="0.62" stroke-linecap="round" stroke-linejoin="round" /><line x1="102" y1="854" x2="948" y2="854" stroke="#dbe1d0" stroke-width="1" opacity="0.62" stroke-linecap="round" stroke-linejoin="round" /><rect x="1010" y="182" width="320" height="740" rx="28" fill="#fff" stroke="#d1d9c2" stroke-width="3" filter="url(#shadow)"/><text x="1042" y="226" font-family="Arial, Helvetica, sans-serif" font-size="20" font-weight="700" fill="#5e5a56" text-anchor="start">Layer</text><rect x="1042" y="244" width="240" height="42" rx="14" fill="#ebf1de" stroke="none" stroke-width="1" /><text x="1060" y="272" font-family="Arial, Helvetica, sans-serif" font-size="20" font-weight="700" fill="#22303c" text-anchor="start">Sketch</text><text x="1042" y="330" font-family="Arial, Helvetica, sans-serif" font-size="20" font-weight="700" fill="#5e5a56" text-anchor="start">What to draw</text><text x="1042" y="364" font-family="Arial, Helvetica, sans-serif" font-size="22" font-weight="400" fill="#262626" text-anchor="start">On the Sketch layer, add</text><text x="1042" y="392" font-family="Arial, Helvetica, sans-serif" font-size="22" font-weight="400" fill="#262626" text-anchor="start">tiny horns, belly spots,</text><text x="1042" y="420" font-family="Arial, Helvetica, sans-serif" font-size="22" font-weight="400" fill="#262626" text-anchor="start">a button snack, lint</text><text x="1042" y="448" font-family="Arial, Helvetica, sans-serif" font-size="22" font-weight="400" fill="#262626" text-anchor="start">dots, and a small folded</text><text x="1042" y="476" font-family="Arial, Helvetica, sans-serif" font-size="22" font-weight="400" fill="#262626" text-anchor="start">map shape.</text><text x="1042" y="616" font-family="Arial, Helvetica, sans-serif" font-size="20" font-weight="700" fill="#5e5a56" text-anchor="start">Helpful hint</text><text x="1042" y="650" font-family="Arial, Helvetica, sans-serif" font-size="19" font-weight="400" fill="#45423f" text-anchor="start">The map can be a little</text><text x="1042" y="674" font-family="Arial, Helvetica, sans-serif" font-size="19" font-weight="400" fill="#45423f" text-anchor="start">rectangle with one wavy</text><text x="1042" y="698" font-family="Arial, Helvetica, sans-serif" font-size="19" font-weight="400" fill="#45423f" text-anchor="start">line.</text><text x="1042" y="828" font-family="Arial, Helvetica, sans-serif" font-size="18" font-weight="700" fill="#68645f" text-anchor="start">SVG guide step</text><circle cx="1060" cy="858" r="14" fill="#F1A7A0" stroke="none" stroke-width="1" /><circle cx="1106" cy="858" r="14" fill="#F1A7A0" stroke="none" stroke-width="1" /><circle cx="1152" cy="858" r="14" fill="#F1A7A0" stroke="none" stroke-width="1" /><circle cx="1198" cy="858" r="14" fill="#f8f0e6" stroke="none" stroke-width="1" /><circle cx="1244" cy="858" r="14" fill="#f8f0e6" stroke="none" stroke-width="1" /><polygon points="640.0,500.0 644.2,532.7 639.3,565.2 624.9,592.7 605.0,613.3 584.9,630.1 566.4,647.8 547.4,667.4 525.2,684.1 500.0,690.8 474.8,684.1 452.6,667.4 433.6,647.8 415.1,630.1 395.0,613.3 375.1,592.7 360.7,565.2 355.8,532.7 360.0,500.0 368.5,470.2 376.2,442.1 382.4,412.7 390.6,381.9 404.9,354.3 426.4,336.0 451.6,329.1 476.6,329.6 500.0,330.8 523.4,329.6 548.4,329.1 573.6,336.0 595.1,354.3 609.4,381.9 617.6,412.7 623.8,442.1 631.5,470.2" stroke="#7fb8e8" stroke-width="5" fill="none" stroke-linecap="round" stroke-linejoin="round" /><ellipse cx="448" cy="665" rx="18" ry="14" fill="none" stroke="#7fb8e8" stroke-width="3" /><ellipse cx="542" cy="665" rx="18" ry="14" fill="none" stroke="#7fb8e8" stroke-width="3" /><ellipse cx="455" cy="470" rx="14" ry="18" fill="none" stroke="#3F4632" stroke-width="4" /><circle cx="455" cy="470" r="4" fill="#3F4632" stroke="none" stroke-width="1" /><ellipse cx="545" cy="485" rx="14" ry="18" fill="none" stroke="#3F4632" stroke-width="4" /><circle cx="545" cy="485" r="4" fill="#3F4632" stroke="none" stroke-width="1" /><line x1="443" y1="432" x2="467" y2="426" stroke="#3F4632" stroke-width="4" stroke-linecap="round" stroke-linejoin="round" /><line x1="533" y1="426" x2="557" y2="430" stroke="#3F4632" stroke-width="4" stroke-linecap="round" stroke-linejoin="round" /><rect x="470" y="540" width="60" height="35" rx="8" fill="none" stroke="#3F4632" stroke-width="3" /><line x1="485" y1="540" x2="485" y2="575" stroke="#3F4632" stroke-width="2" stroke-linecap="round" stroke-linejoin="round" /><line x1="505" y1="540" x2="505" y2="575" stroke="#3F4632" stroke-width="2" stroke-linecap="round" stroke-linejoin="round" /><line x1="525" y1="540" x2="525" y2="575" stroke="#3F4632" stroke-width="2" stroke-linecap="round" stroke-linejoin="round" /><polygon points="430,365 445,335 460,365" stroke="#2f3440" stroke-width="3" fill="none" stroke-linecap="round" stroke-linejoin="round" /><polygon points="540,365 555,335 570,365" stroke="#2f3440" stroke-width="3" fill="none" stroke-linecap="round" stroke-linejoin="round" /><ellipse cx="470" cy="590" rx="18" ry="10" fill="none" stroke="#2f3440" stroke-width="2" /><ellipse cx="530" cy="590" rx="18" ry="10" fill="none" stroke="#2f3440" stroke-width="2" /><ellipse cx="500" cy="620" rx="18" ry="10" fill="none" stroke="#2f3440" stroke-width="2" /><circle cx="618" cy="562" r="12" fill="none" stroke="#2f3440" stroke-width="3" /><rect x="650" y="600" width="60" height="40" rx="10" fill="none" stroke="#2f3440" stroke-width="3" /><text x="112" y="872" font-family="Arial, Helvetica, sans-serif" font-size="32" font-weight="700" fill="#3c4230" text-anchor="start">Personality Details</text><g data-polish="board-pins" opacity="0.42">
          <circle cx="112" cy="202" r="4" fill="#7fb8e8"/>
          <circle cx="130" cy="202" r="4" fill="#f2c477"/>
          <circle cx="148" cy="202" r="4" fill="#f1a7bd"/>
          <path d="M 830 900 L 950 900" stroke="#2f3440" stroke-width="2" stroke-linecap="round" opacity="0.18"/>
        </g></svg>